LisuBosaMaster-BlackItalic.ufo
<glyph name="quotedbl" format="2">
  <advance width="378"/>
  <unicode hex="0022"/>
  <outline>
    <contour>
      <point x="144" y="582" type="line"/>
      <point x="118" y="369" type="line"/>
      <point x="201" y="369" type="line"/>
      <point x="259" y="582" type="line"/>
    </contour>
    <contour>
      <point x="313" y="582" type="line"/>
      <point x="287" y="369" type="line"/>
      <point x="370" y="369" type="line"/>
      <point x="429" y="582" type="line"/>
    </contour>
  </outline>
</glyph>
<glyph name="numbersign" format="2">
  <advance width="508"/>
  <unicode hex="0023"/>
  <outline>
    <contour>
      <point x="313" y="215" type="line"/>
      <point x="200" y="215" type="line"/>
      <point x="227" y="328" type="line"/>
      <point x="340" y="328" type="line"/>
    </contour>
    <contour>
      <point x="462" y="215" type="line"/>
      <point x="384" y="215" type="line"/>
      <point x="410" y="328" type="line"/>
      <point x="484" y="328" type="line"/>
      <point x="492" y="397" type="line"/>
      <point x="426" y="397" type="line"/>
      <point x="461" y="542" type="line"/>
      <point x="391" y="542" type="line"/>
      <point x="357" y="397" type="line"/>
      <point x="243" y="397" type="line"/>
      <point x="277" y="542" type="line"/>
      <point x="207" y="542" type="line"/>
      <point x="172" y="397" type="line"/>
      <point x="82" y="397" type="line"/>
      <point x="74" y="328" type="line"/>
      <point x="157" y="328" type="line"/>
      <point x="130" y="215" type="line"/>
      <point x="52" y="215" type="line"/>
      <point x="45" y="145" type="line"/>
      <point x="114" y="145" type="line"/>
      <point x="77" y="-4" type="line"/>
      <point x="148" y="-4" type="line"/>
      <point x="182" y="145" type="line"/>
      <point x="296" y="145" type="line"/>
      <point x="261" y="-4" type="line"/>
      <point x="331" y="-4" type="line"/>
      <point x="367" y="145" type="line"/>
      <point x="455" y="145" type="line"/>
    </contour>
  </outline>
</glyph>
<glyph name="dollar" format="2">
  <advance width="494"/>
  <unicode hex="0024"/>
  <outline>
    <contour>
      <point x="483" y="439" type="curve" smooth="yes"/>
      <point x="483" y="458"/>
      <point x="462" y="483"/>
      <point x="429" y="505" type="curve" smooth="yes"/>
      <point x="407" y="520"/>
      <point x="372" y="538"/>
      <point x="308" y="538" type="curve" smooth="yes"/>
      <point x="170" y="538"/>
      <point x="104" y="463"/>
      <point x="104" y="390" type="curve" smooth="yes"/>
      <point x="104" y="245"/>
      <point x="331" y="229"/>
      <point x="331" y="142" type="curve" smooth="yes"/>
      <point x="331" y="115"/>
      <point x="315" y="91"/>
      <point x="239" y="91" type="curve" smooth="yes"/>
      <point x="190" y="91"/>
      <point x="157" y="122"/>
      <point x="134" y="151" type="curve" smooth="yes"/>
      <point x="122" y="166"/>
      <point x="117" y="170"/>
      <point x="104" y="170" type="curve" smooth="yes"/>
      <point x="78" y="170"/>
      <point x="41" y="134"/>
      <point x="41" y="104" type="curve" smooth="yes"/>
      <point x="41" y="82"/>
      <point x="59" y="63"/>
      <point x="76" y="48" type="curve" smooth="yes"/>
      <point x="104" y="23"/>
      <point x="162" y="-8"/>
      <point x="220" y="-8" type="curve" smooth="yes"/>
      <point x="358" y="-8"/>
      <point x="435" y="63"/>
      <point x="435" y="147" type="curve" smooth="yes"/>
      <point x="435" y="287"/>
      <point x="209" y="326"/>
      <point x="209" y="395" type="curve" smooth="yes"/>
      <point x="209" y="417"/>
      <point x="218" y="439"/>
      <point x="289" y="439" type="curve" smooth="yes"/>
      <point x="338" y="439"/>
      <point x="354" y="430"/>
      <point x="382" y="398" type="curve" smooth="yes"/>
      <point x="393" y="385"/>
      <point x="401" y="377"/>
      <point x="414" y="377" type="curve" smooth="yes"/>
      <point x="429" y="377"/>
      <point x="483" y="413"/>
    </contour>
    <contour>
      <point x="232" y="297" type="curve"/>
      <point x="309" y="251" type="line"/>
      <point x="323" y="306"/>
      <point x="337" y="360"/>
      <point x="349" y="401" type="curve" smooth="yes"/>
      <point x="361" y="444"/>
      <point x="376" y="487"/>
      <point x="381" y="501" type="curve" smooth="yes"/>
      <point x="385" y="512"/>
      <point x="393" y="538"/>
      <point x="393" y="551" type="curve" smooth="yes"/>
      <point x="393" y="562"/>
      <point x="371" y="578"/>
      <point x="341" y="578" type="curve" smooth="yes"/>
      <point x="319" y="578"/>
      <point x="306" y="574"/>
      <point x="298" y="563" type="curve" smooth="yes"/>
      <point x="292" y="554"/>
      <point x="288" y="537"/>
      <point x="284" y="517" type="curve" smooth="yes"/>
      <point x="281" y="504"/>
      <point x="276" y="471"/>
      <point x="268" y="438" type="curve" smooth="yes"/>
      <point x="260" y="405"/>
      <point x="247" y="353"/>
    </contour>
    <contour>
      <point x="303" y="251" type="curve"/>
      <point x="226" y="297" type="line"/>
      <point x="201" y="203"/>
      <point x="172" y="95"/>
      <point x="154" y="35" type="curve" smooth="yes"/>
      <point x="147" y="11"/>
      <point x="140" y="-13"/>
      <point x="140" y="-20" type="curve" smooth="yes"/>
      <point x="140" y="-36"/>
      <point x="156" y="-46"/>
      <point x="189" y="-46" type="curve" smooth="yes"/>
      <point x="211" y="-46"/>
      <point x="237" y="-37"/>
      <point x="240" y="-20" type="curve" smooth="yes"/>
      <point x="243" y="-4"/>
      <point x="251" y="36"/>
      <point x="259" y="72" type="curve" smooth="yes"/>
      <point x="269" y="113"/>
      <point x="286" y="182"/>
    </contour>
  </outline>
</glyph>
<glyph name="ampersand" format="2">
  <advance width="534"/>
  <unicode hex="0026"/>
  <outline>
    <contour>
      <point x="-3" y="141" type="curve" smooth="yes"/>
      <point x="-3" y="65"/>
      <point x="70" y="-10"/>
      <point x="187" y="-10" type="curve" smooth="yes"/>
      <point x="270" y="-10"/>
      <point x="351" y="33"/>
      <point x="387" y="91" type="curve" smooth="yes"/>
      <point x="398" y="109"/>
      <point x="404" y="125"/>
      <point x="404" y="136" type="curve" smooth="yes"/>
      <point x="404" y="149"/>
      <point x="348" y="167"/>
      <point x="315" y="167" type="curve" smooth="yes"/>
      <point x="271" y="167"/>
      <point x="270" y="161"/>
      <point x="270" y="156" type="curve" smooth="yes"/>
      <point x="270" y="145"/>
      <point x="262" y="135"/>
      <point x="254" y="126" type="curve" smooth="yes"/>
      <point x="246" y="117"/>
      <point x="224" y="105"/>
      <point x="195" y="105" type="curve" smooth="yes"/>
      <point x="148" y="105"/>
      <point x="123" y="136"/>
      <point x="123" y="162" type="curve" smooth="yes"/>
      <point x="123" y="215"/>
      <point x="167" y="246"/>
      <point x="230" y="246" type="curve" smooth="yes"/>
      <point x="257" y="246"/>
      <point x="268" y="260"/>
      <point x="274" y="273" type="curve" smooth="yes"/>
      <point x="282" y="290"/>
      <point x="283" y="301"/>
      <point x="283" y="307" type="curve" smooth="yes"/>
      <point x="283" y="317"/>
      <point x="281" y="323"/>
      <point x="266" y="329" type="curve" smooth="yes"/>
      <point x="236" y="340"/>
      <point x="217" y="358"/>
      <point x="217" y="379" type="curve" smooth="yes"/>
      <point x="217" y="408"/>
      <point x="237" y="424"/>
      <point x="267" y="424" type="curve" smooth="yes"/>
      <point x="287" y="424"/>
      <point x="301" y="419"/>
      <point x="317" y="408" type="curve" smooth="yes"/>
      <point x="331" y="399"/>
      <point x="337" y="383"/>
      <point x="352" y="383" type="curve" smooth="yes"/>
      <point x="384" y="383"/>
      <point x="443" y="408"/>
      <point x="443" y="434" type="curve" smooth="yes"/>
      <point x="443" y="450"/>
      <point x="411" y="484"/>
      <point x="385" y="505" type="curve" smooth="yes"/>
      <point x="364" y="522"/>
      <point x="318" y="538"/>
      <point x="274" y="538" type="curve" smooth="yes"/>
      <point x="167" y="538"/>
      <point x="91" y="471"/>
      <point x="91" y="399" type="curve" smooth="yes"/>
      <point x="91" y="372"/>
      <point x="100" y="340"/>
      <point x="138" y="314" type="curve"/>
      <point x="56" y="291"/>
      <point x="-3" y="221"/>
    </contour>
    <contour>
      <point x="480" y="154" type="curve" smooth="yes"/>
      <point x="485" y="163"/>
      <point x="494" y="183"/>
      <point x="494" y="203" type="curve" smooth="yes"/>
      <point x="494" y="223"/>
      <point x="482" y="230"/>
      <point x="461" y="230" type="curve" smooth="yes"/>
      <point x="435" y="230"/>
      <point x="381" y="229"/>
      <point x="358" y="229" type="curve" smooth="yes"/>
      <point x="339" y="229"/>
      <point x="339" y="230"/>
      <point x="313" y="230" type="curve" smooth="yes"/>
      <point x="303" y="230"/>
      <point x="289" y="228"/>
      <point x="283" y="225" type="curve" smooth="yes"/>
      <point x="276" y="222"/>
      <point x="268" y="215"/>
      <point x="260" y="200" type="curve" smooth="yes"/>
      <point x="252" y="184"/>
      <point x="247" y="166"/>
      <point x="247" y="156" type="curve" smooth="yes"/>
      <point x="247" y="132"/>
      <point x="256" y="126"/>
      <point x="284" y="126" type="curve" smooth="yes"/>
      <point x="320" y="126"/>
      <point x="343" y="129"/>
      <point x="374" y="129" type="curve" smooth="yes"/>
      <point x="391" y="129"/>
      <point x="408" y="127"/>
      <point x="433" y="127" type="curve" smooth="yes"/>
      <point x="452" y="127"/>
      <point x="469" y="134"/>
    </contour>
  </outline>
</glyph>
<glyph name="quotesingle" format="2">
  <advance width="155"/>
  <unicode hex="0027"/>
  <outline>
    <contour>
      <point x="98" y="306" type="curve" smooth="yes"/>
      <point x="90" y="298"/>
      <point x="82" y="296"/>
      <point x="75" y="296" type="curve" smooth="yes"/>
      <point x="66" y="296"/>
      <point x="63" y="305"/>
      <point x="63" y="314" type="curve" smooth="yes"/>
      <point x="63" y="318"/>
      <point x="63" y="323"/>
      <point x="68" y="340" type="curve" smooth="yes"/>
      <point x="77" y="369"/>
      <point x="98" y="438"/>
      <point x="109" y="483" type="curve" smooth="yes"/>
      <point x="113" y="499"/>
      <point x="118" y="513"/>
      <point x="120" y="521" type="curve" smooth="yes"/>
      <point x="123" y="535"/>
      <point x="139" y="538"/>
      <point x="161" y="538" type="curve" smooth="yes"/>
      <point x="185" y="538"/>
      <point x="198" y="526"/>
      <point x="198" y="512" type="curve" smooth="yes"/>
      <point x="198" y="481"/>
      <point x="156" y="395"/>
      <point x="136" y="360" type="curve" smooth="yes"/>
      <point x="116" y="324"/>
      <point x="105" y="313"/>
    </contour>
  </outline>
</glyph>
<glyph name="parenleft" format="2">
  <advance width="293"/>
  <unicode hex="0028"/>
  <guideline x="15" y="173" angle="259.0037"/>
  <guideline x="125" y="173" angle="259.0037"/>
  <outline>
    <contour>
      <point x="216" y="-52" type="line"/>
      <point x="106" y="18"/>
      <point x="121" y="155"/>
      <point x="152" y="313" type="curve" smooth="yes"/>
      <point x="183" y="470"/>
      <point x="210" y="557"/>
      <point x="348" y="627" type="curve"/>
      <point x="365" y="717" type="line"/>
      <point x="176" y="629"/>
      <point x="83" y="522"/>
      <point x="42" y="313" type="curve" smooth="yes"/>
      <point x="1" y="102"/>
      <point x="45" y="-51"/>
      <point x="198" y="-142" type="curve"/>
    </contour>
  </outline>
</glyph>
<glyph name="parenright" format="2">
  <advance width="294"/>
  <unicode hex="0029"/>
  <guideline x="173" y="173" angle="259.0037"/>
  <guideline x="283" y="173" angle="259.0037"/>
  <outline>
    <contour>
      <point x="298" y="248" type="curve" smooth="yes"/>
      <point x="339" y="459"/>
      <point x="294" y="606"/>
      <point x="141" y="697" type="curve"/>
      <point x="122" y="602" type="line"/>
      <point x="232" y="532"/>
      <point x="219" y="405"/>
      <point x="188" y="248" type="curve" smooth="yes"/>
      <point x="157" y="90"/>
      <point x="134" y="23"/>
      <point x="-4" y="-47" type="curve"/>
      <point x="-23" y="-142" type="line"/>
      <point x="166" y="-51"/>
      <point x="257" y="37"/>
    </contour>
  </outline>
</glyph>
<glyph name="slash" format="2">
  <advance width="291"/>
  <unicode hex="002F"/>
  <outline>
    <contour>
      <point x="233" y="650" type="line"/>
      <point x="-27" y="-100" type="line"/>
      <point x="60" y="-100" type="line"/>
      <point x="319" y="650" type="line"/>
    </contour>
  </outline>
</glyph>
<glyph name="zero" format="2">
  <advance width="484"/>
  <unicode hex="0030"/>
  <outline>
    <contour>
      <point x="460" y="203"/>
      <point x="379" y="-8"/>
      <point x="197" y="-8" type="curve" smooth="yes"/>
      <point x="102" y="-8"/>
      <point x="50" y="70"/>
      <point x="50" y="160" type="curve" smooth="yes"/>
      <point x="50" y="327"/>
      <point x="130" y="539"/>
      <point x="312" y="539" type="curve" smooth="yes"/>
      <point x="407" y="539"/>
      <point x="460" y="460"/>
      <point x="460" y="370" type="curve" smooth="yes"/>
    </contour>
    <contour>
      <point x="289" y="106"/>
      <point x="334" y="286"/>
      <point x="334" y="367" type="curve" smooth="yes"/>
      <point x="334" y="399"/>
      <point x="325" y="424"/>
      <point x="297" y="424" type="curve" smooth="yes"/>
      <point x="220" y="424"/>
      <point x="176" y="240"/>
      <point x="176" y="162" type="curve" smooth="yes"/>
      <point x="176" y="130"/>
      <point x="187" y="106"/>
      <point x="213" y="106" type="curve" smooth="yes"/>
    </contour>
  </outline>
</glyph>
<glyph name="one" format="2">
  <advance width="484"/>
  <unicode hex="0031"/>
  <outline>
    <contour>
      <point x="284" y="22" type="curve" smooth="yes"/>
      <point x="277" y="0"/>
      <point x="252" y="-9"/>
      <point x="219" y="-9" type="curve" smooth="yes"/>
      <point x="160" y="-9"/>
      <point x="149" y="8"/>
      <point x="149" y="21" type="curve" smooth="yes"/>
      <point x="149" y="30"/>
      <point x="164" y="79"/>
      <point x="175" y="113" type="curve" smooth="yes"/>
      <point x="202" y="200"/>
      <point x="225" y="276"/>
      <point x="250" y="363" type="curve"/>
      <point x="219" y="341"/>
      <point x="208" y="330"/>
      <point x="186" y="316" type="curve" smooth="yes"/>
      <point x="172" y="307"/>
      <point x="162" y="301"/>
      <point x="153" y="301" type="curve" smooth="yes"/>
      <point x="137" y="301"/>
      <point x="125" y="309"/>
      <point x="114" y="322" type="curve" smooth="yes"/>
      <point x="104" y="333"/>
      <point x="99" y="347"/>
      <point x="99" y="358" type="curve" smooth="yes"/>
      <point x="99" y="370"/>
      <point x="110" y="381"/>
      <point x="136" y="399" type="curve" smooth="yes"/>
      <point x="188" y="435"/>
      <point x="238" y="474"/>
      <point x="264" y="497" type="curve" smooth="yes"/>
      <point x="278" y="510"/>
      <point x="287" y="516"/>
      <point x="295" y="521" type="curve" smooth="yes"/>
      <point x="306" y="527"/>
      <point x="328" y="532"/>
      <point x="361" y="532" type="curve" smooth="yes"/>
      <point x="403" y="532"/>
      <point x="416" y="520"/>
      <point x="416" y="506" type="curve" smooth="yes"/>
      <point x="416" y="492"/>
      <point x="407" y="462"/>
      <point x="400" y="439" type="curve" smooth="yes"/>
      <point x="364" y="317"/>
      <point x="332" y="204"/>
      <point x="303" y="97" type="curve" smooth="yes"/>
      <point x="295" y="69"/>
      <point x="292" y="49"/>
    </contour>
  </outline>
</glyph>
<glyph name="two" format="2">
  <advance width="484"/>
  <unicode hex="0032"/>
  <guideline x="394" y="224" angle="71"/>
  <outline>
    <contour>
      <point x="409" y="38" type="curve" smooth="yes"/>
      <point x="409" y="15"/>
      <point x="398" y="-4"/>
      <point x="354" y="-4" type="curve" smooth="yes"/>
      <point x="298" y="-4"/>
      <point x="200" y="-2"/>
      <point x="144" y="-2" type="curve" smooth="yes"/>
      <point x="111" y="-2"/>
      <point x="84" y="-4"/>
      <point x="61" y="-4" type="curve" smooth="yes"/>
      <point x="30" y="-4"/>
      <point x="14" y="4"/>
      <point x="5" y="13" type="curve" smooth="yes"/>
      <point x="-6" y="24"/>
      <point x="-9" y="37"/>
      <point x="-9" y="50" type="curve" smooth="yes"/>
      <point x="-9" y="71"/>
      <point x="19" y="98"/>
      <point x="42" y="116" type="curve" smooth="yes"/>
      <point x="69" y="137"/>
      <point x="130" y="183"/>
      <point x="222" y="255" type="curve" smooth="yes"/>
      <point x="302" y="318"/>
      <point x="322" y="349"/>
      <point x="322" y="378" type="curve" smooth="yes"/>
      <point x="322" y="400"/>
      <point x="309" y="424"/>
      <point x="262" y="424" type="curve" smooth="yes"/>
      <point x="237" y="424"/>
      <point x="219" y="414"/>
      <point x="201" y="400" type="curve" smooth="yes"/>
      <point x="186" y="389"/>
      <point x="172" y="365"/>
      <point x="154" y="365" type="curve" smooth="yes"/>
      <point x="119" y="365"/>
      <point x="79" y="395"/>
      <point x="79" y="424" type="curve" smooth="yes"/>
      <point x="79" y="448"/>
      <point x="108" y="477"/>
      <point x="141" y="500" type="curve" smooth="yes"/>
      <point x="173" y="522"/>
      <point x="212" y="538"/>
      <point x="270" y="538" type="curve" smooth="yes"/>
      <point x="380" y="538"/>
      <point x="447" y="485"/>
      <point x="447" y="411" type="curve" smooth="yes"/>
      <point x="447" y="334"/>
      <point x="405" y="277"/>
      <point x="315" y="204" type="curve" smooth="yes"/>
      <point x="236" y="140"/>
      <point x="120" y="78"/>
      <point x="105" y="35" type="curve"/>
      <point x="87" y="81" type="line"/>
      <point x="135" y="100"/>
      <point x="201" y="102"/>
      <point x="225" y="102" type="curve" smooth="yes"/>
      <point x="262" y="102"/>
      <point x="300" y="103"/>
      <point x="337" y="103" type="curve" smooth="yes"/>
      <point x="373" y="103"/>
      <point x="384" y="92"/>
      <point x="393" y="82" type="curve" smooth="yes"/>
      <point x="405" y="68"/>
      <point x="409" y="56"/>
    </contour>
  </outline>
</glyph>
<glyph name="three" format="2">
  <advance width="484"/>
  <unicode hex="0033"/>
  <outline>
    <contour>
      <point x="417" y="169" type="curve" smooth="yes"/>
      <point x="417" y="64"/>
      <point x="319" y="-8"/>
      <point x="210" y="-8" type="curve" smooth="yes"/>
      <point x="129" y="-8"/>
      <point x="83" y="22"/>
      <point x="59" y="45" type="curve" smooth="yes"/>
      <point x="34" y="68"/>
      <point x="14" y="103"/>
      <point x="14" y="131" type="curve" smooth="yes"/>
      <point x="14" y="159"/>
      <point x="69" y="186"/>
      <point x="97" y="186" type="curve" smooth="yes"/>
      <point x="112" y="186"/>
      <point x="119" y="174"/>
      <point x="128" y="157" type="curve" smooth="yes"/>
      <point x="148" y="118"/>
      <point x="187" y="106"/>
      <point x="212" y="106" type="curve" smooth="yes"/>
      <point x="251" y="106"/>
      <point x="292" y="127"/>
      <point x="292" y="167" type="curve" smooth="yes"/>
      <point x="292" y="200"/>
      <point x="268" y="222"/>
      <point x="233" y="222" type="curve" smooth="yes"/>
      <point x="215" y="222"/>
      <point x="203" y="227"/>
      <point x="198" y="233" type="curve" smooth="yes"/>
      <point x="192" y="241"/>
      <point x="187" y="251"/>
      <point x="187" y="271" type="curve" smooth="yes"/>
      <point x="187" y="290"/>
      <point x="191" y="302"/>
      <point x="205" y="311" type="curve" smooth="yes"/>
      <point x="213" y="316"/>
      <point x="228" y="317"/>
      <point x="243" y="317" type="curve" smooth="yes"/>
      <point x="292" y="317"/>
      <point x="328" y="346"/>
      <point x="328" y="380" type="curve" smooth="yes"/>
      <point x="328" y="404"/>
      <point x="311" y="424"/>
      <point x="268" y="424" type="curve" smooth="yes"/>
      <point x="243" y="424"/>
      <point x="223" y="417"/>
      <point x="205" y="403" type="curve" smooth="yes"/>
      <point x="190" y="392"/>
      <point x="176" y="368"/>
      <point x="158" y="368" type="curve" smooth="yes"/>
      <point x="133" y="368"/>
      <point x="83" y="398"/>
      <point x="83" y="427" type="curve" smooth="yes"/>
      <point x="83" y="451"/>
      <point x="112" y="480"/>
      <point x="145" y="503" type="curve" smooth="yes"/>
      <point x="177" y="525"/>
      <point x="218" y="538"/>
      <point x="276" y="538" type="curve" smooth="yes"/>
      <point x="382" y="538"/>
      <point x="453" y="479"/>
      <point x="453" y="414" type="curve" smooth="yes"/>
      <point x="453" y="338"/>
      <point x="409" y="288"/>
      <point x="347" y="266" type="curve"/>
      <point x="380" y="255"/>
      <point x="417" y="222"/>
    </contour>
  </outline>
</glyph>
<glyph name="four" format="2">
  <advance width="474"/>
  <unicode hex="0034"/>
  <outline>
    <contour>
      <point x="366" y="525" type="curve" smooth="yes"/>
      <point x="364" y="523"/>
      <point x="360" y="519"/>
      <point x="349" y="508" type="curve" smooth="yes"/>
      <point x="284" y="439"/>
      <point x="105" y="251"/>
      <point x="23" y="190" type="curve" smooth="yes"/>
      <point x="19" y="187"/>
      <point x="16" y="181"/>
      <point x="16" y="174" type="curve" smooth="yes"/>
      <point x="16" y="170"/>
      <point x="17" y="164"/>
      <point x="20" y="159" type="curve" smooth="yes"/>
      <point x="23" y="154"/>
      <point x="30" y="145"/>
      <point x="36" y="140" type="curve" smooth="yes"/>
      <point x="40" y="137"/>
      <point x="43" y="135"/>
      <point x="49" y="135" type="curve" smooth="yes"/>
      <point x="56" y="135"/>
      <point x="66" y="141"/>
      <point x="74" y="147" type="curve" smooth="yes"/>
      <point x="164" y="214"/>
      <point x="327" y="394"/>
      <point x="343" y="405" type="curve"/>
      <point x="342" y="422" type="line"/>
      <point x="317" y="325"/>
      <point x="289" y="228"/>
      <point x="260" y="131" type="curve" smooth="yes"/>
      <point x="250" y="97"/>
      <point x="229" y="24"/>
      <point x="229" y="14" type="curve" smooth="yes"/>
      <point x="229" y="6"/>
      <point x="233" y="-9"/>
      <point x="265" y="-9" type="curve" smooth="yes"/>
      <point x="288" y="-9"/>
      <point x="304" y="0"/>
      <point x="308" y="17" type="curve" smooth="yes"/>
      <point x="316" y="49"/>
      <point x="324" y="80"/>
      <point x="333" y="113" type="curve" smooth="yes"/>
      <point x="365" y="230"/>
      <point x="401" y="352"/>
      <point x="435" y="475" type="curve" smooth="yes"/>
      <point x="439" y="490"/>
      <point x="443" y="506"/>
      <point x="443" y="516" type="curve" smooth="yes"/>
      <point x="443" y="524"/>
      <point x="431" y="532"/>
      <point x="401" y="532" type="curve" smooth="yes"/>
      <point x="374" y="532"/>
      <point x="370" y="529"/>
    </contour>
    <contour>
      <point x="19" y="151" type="curve" smooth="yes"/>
      <point x="27" y="127"/>
      <point x="43" y="123"/>
      <point x="61" y="123" type="curve" smooth="yes"/>
      <point x="79" y="123"/>
      <point x="112" y="124"/>
      <point x="152" y="124" type="curve" smooth="yes"/>
      <point x="181" y="124"/>
      <point x="229" y="125"/>
      <point x="262" y="125" type="curve" smooth="yes"/>
      <point x="308" y="125"/>
      <point x="365" y="123"/>
      <point x="411" y="123" type="curve" smooth="yes"/>
      <point x="427" y="123"/>
      <point x="434" y="126"/>
      <point x="437" y="128" type="curve" smooth="yes"/>
      <point x="441" y="130"/>
      <point x="444" y="137"/>
      <point x="444" y="144" type="curve" smooth="yes"/>
      <point x="444" y="152"/>
      <point x="439" y="169"/>
      <point x="431" y="177" type="curve" smooth="yes"/>
      <point x="417" y="191"/>
      <point x="397" y="192"/>
      <point x="379" y="192" type="curve" smooth="yes"/>
      <point x="343" y="192"/>
      <point x="312" y="192"/>
      <point x="278" y="192" type="curve" smooth="yes"/>
      <point x="232" y="192"/>
      <point x="201" y="191"/>
      <point x="165" y="191" type="curve" smooth="yes"/>
      <point x="127" y="191"/>
      <point x="88" y="191"/>
      <point x="48" y="191" type="curve" smooth="yes"/>
      <point x="42" y="191"/>
      <point x="32" y="193"/>
      <point x="29" y="192" type="curve" smooth="yes"/>
      <point x="24" y="190"/>
      <point x="15" y="186"/>
      <point x="15" y="174" type="curve" smooth="yes"/>
      <point x="15" y="169"/>
      <point x="16" y="160"/>
    </contour>
  </outline>
</glyph>
<glyph name="five" format="2">
  <advance width="484"/>
  <unicode hex="0035"/>
  <outline>
    <contour>
      <point x="447" y="214" type="curve" smooth="yes"/>
      <point x="447" y="290"/>
      <point x="383" y="356"/>
      <point x="307" y="356" type="curve" smooth="yes"/>
      <point x="284" y="356"/>
      <point x="258" y="352"/>
      <point x="245" y="346" type="curve"/>
      <point x="251" y="366"/>
      <point x="262" y="393"/>
      <point x="276" y="425" type="curve" smooth="yes"/>
      <point x="289" y="455"/>
      <point x="304" y="490"/>
      <point x="304" y="500" type="curve" smooth="yes"/>
      <point x="304" y="516"/>
      <point x="278" y="522"/>
      <point x="255" y="522" type="curve" smooth="yes"/>
      <point x="227" y="522"/>
      <point x="198" y="509"/>
      <point x="186" y="488" type="curve" smooth="yes"/>
      <point x="159" y="439"/>
      <point x="107" y="298"/>
      <point x="107" y="281" type="curve" smooth="yes"/>
      <point x="107" y="254"/>
      <point x="147" y="233"/>
      <point x="179" y="233" type="curve" smooth="yes"/>
      <point x="211" y="233"/>
      <point x="245" y="261"/>
      <point x="280" y="261" type="curve" smooth="yes"/>
      <point x="310" y="261"/>
      <point x="324" y="239"/>
      <point x="324" y="202" type="curve" smooth="yes"/>
      <point x="324" y="150"/>
      <point x="289" y="106"/>
      <point x="229" y="106" type="curve" smooth="yes"/>
      <point x="196" y="106"/>
      <point x="169" y="125"/>
      <point x="151" y="154" type="curve" smooth="yes"/>
      <point x="146" y="162"/>
      <point x="142" y="167"/>
      <point x="127" y="167" type="curve" smooth="yes"/>
      <point x="97" y="167"/>
      <point x="49" y="128"/>
      <point x="49" y="104" type="curve" smooth="yes"/>
      <point x="49" y="82"/>
      <point x="70" y="51"/>
      <point x="99" y="28" type="curve" smooth="yes"/>
      <point x="124" y="8"/>
      <point x="166" y="-8"/>
      <point x="219" y="-8" type="curve" smooth="yes"/>
      <point x="378" y="-8"/>
      <point x="447" y="115"/>
    </contour>
    <contour>
      <point x="257" y="531" type="curve" smooth="yes"/>
      <point x="200" y="531"/>
      <point x="167" y="532"/>
      <point x="145" y="532" type="curve" smooth="yes"/>
      <point x="129" y="532"/>
      <point x="104" y="523"/>
      <point x="104" y="496" type="curve" smooth="yes"/>
      <point x="104" y="469"/>
      <point x="113" y="456"/>
      <point x="128" y="443" type="curve" smooth="yes"/>
      <point x="144" y="429"/>
      <point x="198" y="424"/>
      <point x="258" y="424" type="curve" smooth="yes"/>
      <point x="311" y="424"/>
      <point x="335" y="425"/>
      <point x="362" y="425" type="curve" smooth="yes"/>
      <point x="378" y="425"/>
      <point x="425" y="424"/>
      <point x="440" y="424" type="curve" smooth="yes"/>
      <point x="472" y="424"/>
      <point x="483" y="425"/>
      <point x="492" y="431" type="curve" smooth="yes"/>
      <point x="502" y="438"/>
      <point x="508" y="448"/>
      <point x="508" y="471" type="curve" smooth="yes"/>
      <point x="508" y="498"/>
      <point x="486" y="533"/>
      <point x="429" y="533" type="curve" smooth="yes"/>
      <point x="377" y="533"/>
      <point x="321" y="531"/>
    </contour>
  </outline>
</glyph>
<glyph name="six" format="2">
  <advance width="474"/>
  <unicode hex="0036"/>
  <outline>
    <contour>
      <point x="389" y="201" type="curve" smooth="yes"/>
      <point x="389" y="95"/>
      <point x="310" y="-8"/>
      <point x="184" y="-8" type="curve" smooth="yes"/>
      <point x="98" y="-8"/>
      <point x="43" y="63"/>
      <point x="43" y="151" type="curve" smooth="yes"/>
      <point x="43" y="194"/>
      <point x="51" y="245"/>
      <point x="81" y="327" type="curve" smooth="yes"/>
      <point x="116" y="421"/>
      <point x="176" y="538"/>
      <point x="314" y="538" type="curve" smooth="yes"/>
      <point x="348" y="538"/>
      <point x="384" y="523"/>
      <point x="405" y="505" type="curve" smooth="yes"/>
      <point x="432" y="482"/>
      <point x="447" y="450"/>
      <point x="447" y="431" type="curve" smooth="yes"/>
      <point x="447" y="413"/>
      <point x="410" y="405"/>
      <point x="393" y="405" type="curve" smooth="yes"/>
      <point x="385" y="405"/>
      <point x="379" y="409"/>
      <point x="376" y="416" type="curve" smooth="yes"/>
      <point x="366" y="439"/>
      <point x="346" y="465"/>
      <point x="301" y="465" type="curve" smooth="yes"/>
      <point x="233" y="465"/>
      <point x="181" y="403"/>
      <point x="147" y="295" type="curve"/>
      <point x="177" y="319"/>
      <point x="221" y="332"/>
      <point x="258" y="332" type="curve" smooth="yes"/>
      <point x="328" y="332"/>
      <point x="389" y="271"/>
    </contour>
    <contour>
      <point x="198" y="64" type="curve" smooth="yes"/>
      <point x="266" y="64"/>
      <point x="315" y="135"/>
      <point x="315" y="188" type="curve" smooth="yes"/>
      <point x="315" y="232"/>
      <point x="285" y="265"/>
      <point x="237" y="265" type="curve" smooth="yes"/>
      <point x="163" y="265"/>
      <point x="118" y="211"/>
      <point x="118" y="155" type="curve" smooth="yes"/>
      <point x="118" y="96"/>
      <point x="149" y="64"/>
    </contour>
  </outline>
</glyph>
<glyph name="seven" format="2">
  <advance width="484"/>
  <unicode hex="0037"/>
  <guideline x="9" y="233" angle="71"/>
  <outline>
    <contour>
      <point x="115" y="462" type="curve" smooth="yes"/>
      <point x="126" y="442"/>
      <point x="146" y="425"/>
      <point x="179" y="425" type="curve" smooth="yes"/>
      <point x="227" y="425"/>
      <point x="308" y="426"/>
      <point x="358" y="426" type="curve" smooth="yes"/>
      <point x="403" y="426"/>
      <point x="431" y="424"/>
      <point x="476" y="424" type="curve" smooth="yes"/>
      <point x="482" y="424"/>
      <point x="497" y="428"/>
      <point x="502" y="431" type="curve" smooth="yes"/>
      <point x="509" y="435"/>
      <point x="516" y="443"/>
      <point x="516" y="454" type="curve" smooth="yes"/>
      <point x="516" y="469"/>
      <point x="509" y="488"/>
      <point x="501" y="500" type="curve" smooth="yes"/>
      <point x="490" y="517"/>
      <point x="476" y="525"/>
      <point x="468" y="528" type="curve" smooth="yes"/>
      <point x="460" y="531"/>
      <point x="449" y="533"/>
      <point x="417" y="533" type="curve" smooth="yes"/>
      <point x="378" y="533"/>
      <point x="360" y="532"/>
      <point x="312" y="532" type="curve" smooth="yes"/>
      <point x="254" y="532"/>
      <point x="174" y="533"/>
      <point x="134" y="533" type="curve" smooth="yes"/>
      <point x="112" y="533"/>
      <point x="104" y="515"/>
      <point x="104" y="501" type="curve" smooth="yes"/>
      <point x="104" y="490"/>
      <point x="105" y="480"/>
    </contour>
    <contour>
      <point x="158" y="-8" type="curve" smooth="yes"/>
      <point x="182" y="-8"/>
      <point x="211" y="-2"/>
      <point x="222" y="20" type="curve" smooth="yes"/>
      <point x="230" y="36"/>
      <point x="238" y="60"/>
      <point x="247" y="80" type="curve" smooth="yes"/>
      <point x="286" y="167"/>
      <point x="366" y="302"/>
      <point x="480" y="410" type="curve" smooth="yes"/>
      <point x="490" y="419"/>
      <point x="502" y="430"/>
      <point x="508" y="436" type="curve" smooth="yes"/>
      <point x="513" y="441"/>
      <point x="514" y="449"/>
      <point x="514" y="452" type="curve" smooth="yes"/>
      <point x="514" y="476"/>
      <point x="480" y="514"/>
      <point x="452" y="514" type="curve" smooth="yes"/>
      <point x="439" y="514"/>
      <point x="429" y="508"/>
      <point x="419" y="498" type="curve" smooth="yes"/>
      <point x="292" y="373"/>
      <point x="183" y="216"/>
      <point x="121" y="80" type="curve" smooth="yes"/>
      <point x="110" y="56"/>
      <point x="98" y="29"/>
      <point x="98" y="20" type="curve" smooth="yes"/>
      <point x="98" y="3"/>
      <point x="117" y="-8"/>
    </contour>
  </outline>
</glyph>
<glyph name="eight" format="2">
  <advance width="484"/>
  <unicode hex="0038"/>
  <outline>
    <contour>
      <point x="204" y="-8" type="curve" smooth="yes"/>
      <point x="332" y="-8"/>
      <point x="424" y="73"/>
      <point x="424" y="173" type="curve" smooth="yes"/>
      <point x="424" y="218"/>
      <point x="403" y="255"/>
      <point x="363" y="279" type="curve"/>
      <point x="421" y="299"/>
      <point x="469" y="344"/>
      <point x="469" y="418" type="curve" smooth="yes"/>
      <point x="469" y="482"/>
      <point x="399" y="538"/>
      <point x="304" y="538" type="curve" smooth="yes"/>
      <point x="185" y="538"/>
      <point x="110" y="472"/>
      <point x="110" y="390" type="curve" smooth="yes"/>
      <point x="110" y="346"/>
      <point x="132" y="315"/>
      <point x="161" y="295" type="curve"/>
      <point x="88" y="278"/>
      <point x="25" y="215"/>
      <point x="25" y="134" type="curve" smooth="yes"/>
      <point x="25" y="51"/>
      <point x="114" y="-8"/>
    </contour>
    <contour>
      <point x="345" y="395" type="curve" smooth="yes"/>
      <point x="345" y="359"/>
      <point x="323" y="334"/>
      <point x="280" y="334" type="curve" smooth="yes"/>
      <point x="247" y="334"/>
      <point x="236" y="355"/>
      <point x="236" y="377" type="curve" smooth="yes"/>
      <point x="236" y="412"/>
      <point x="261" y="438"/>
      <point x="296" y="438" type="curve" smooth="yes"/>
      <point x="326" y="438"/>
      <point x="345" y="421"/>
    </contour>
    <contour>
      <point x="299" y="179" type="curve" smooth="yes"/>
      <point x="299" y="134"/>
      <point x="267" y="97"/>
      <point x="215" y="97" type="curve" smooth="yes"/>
      <point x="179" y="97"/>
      <point x="154" y="125"/>
      <point x="154" y="159" type="curve" smooth="yes"/>
      <point x="154" y="201"/>
      <point x="186" y="240"/>
      <point x="235" y="240" type="curve" smooth="yes"/>
      <point x="281" y="240"/>
      <point x="299" y="209"/>
    </contour>
  </outline>
</glyph>
<glyph name="nine" format="2">
  <advance width="484"/>
  <unicode hex="0039"/>
  <outline>
    <contour>
      <point x="465" y="273"/>
      <point x="439" y="150"/>
      <point x="371" y="71" type="curve" smooth="yes"/>
      <point x="323" y="16"/>
      <point x="266" y="-8"/>
      <point x="189" y="-8" type="curve" smooth="yes"/>
      <point x="80" y="-8"/>
      <point x="13" y="59"/>
      <point x="13" y="96" type="curve" smooth="yes"/>
      <point x="13" y="121"/>
      <point x="71" y="165"/>
      <point x="92" y="165" type="curve" smooth="yes"/>
      <point x="104" y="165"/>
      <point x="112" y="156"/>
      <point x="121" y="144" type="curve" smooth="yes"/>
      <point x="133" y="128"/>
      <point x="166" y="106"/>
      <point x="203" y="106" type="curve" smooth="yes"/>
      <point x="258" y="106"/>
      <point x="312" y="163"/>
      <point x="321" y="216" type="curve"/>
      <point x="310" y="198"/>
      <point x="268" y="183"/>
      <point x="229" y="183" type="curve" smooth="yes"/>
      <point x="150" y="183"/>
      <point x="75" y="248"/>
      <point x="75" y="331" type="curve" smooth="yes"/>
      <point x="75" y="442"/>
      <point x="149" y="538"/>
      <point x="293" y="538" type="curve" smooth="yes"/>
      <point x="405" y="538"/>
      <point x="465" y="454"/>
      <point x="465" y="352" type="curve" smooth="yes"/>
    </contour>
    <contour>
      <point x="300" y="277"/>
      <point x="339" y="322"/>
      <point x="339" y="365" type="curve" smooth="yes"/>
      <point x="339" y="402"/>
      <point x="316" y="424"/>
      <point x="280" y="424" type="curve" smooth="yes"/>
      <point x="226" y="424"/>
      <point x="200" y="371"/>
      <point x="200" y="336" type="curve" smooth="yes"/>
      <point x="200" y="301"/>
      <point x="228" y="277"/>
      <point x="257" y="277" type="curve" smooth="yes"/>
    </contour>
  </outline>
</glyph>
<glyph name="G" format="2">
  <advance width="605"/>
  <unicode hex="0047"/>
  <anchor x="401" y="632" name="aboveUC"/>
  <anchor x="326" y="-20" name="belowLC"/>
  <outline>
    <contour>
      <point x="46" y="253" type="curve" smooth="yes"/>
      <point x="46" y="85"/>
      <point x="151" y="-14"/>
      <point x="326" y="-14" type="curve" smooth="yes"/>
      <point x="398" y="-14"/>
      <point x="448" y="0"/>
      <point x="504" y="23" type="curve"/>
      <point x="556" y="299" type="line"/>
      <point x="436" y="299" type="line"/>
      <point x="425" y="227"/>
      <point x="414" y="152"/>
      <point x="401" y="80" type="curve" smooth="yes"/>
      <point x="390" y="15" type="line"/>
      <point x="452" y="54" type="line"/>
      <point x="415" y="41"/>
      <point x="387" y="33"/>
      <point x="351" y="33" type="curve" smooth="yes"/>
      <point x="245" y="33"/>
      <point x="169" y="114"/>
      <point x="169" y="250" type="curve" smooth="yes"/>
      <point x="169" y="419"/>
      <point x="265" y="575"/>
      <point x="414" y="575" type="curve" smooth="yes"/>
      <point x="460" y="575"/>
      <point x="506" y="562"/>
      <point x="543" y="532" type="curve"/>
      <point x="494" y="576" type="line"/>
      <point x="498" y="437" type="line"/>
      <point x="562" y="437" type="line"/>
      <point x="583" y="574" type="line"/>
      <point x="527" y="610"/>
      <point x="471" y="624"/>
      <point x="404" y="624" type="curve" smooth="yes"/>
      <point x="202" y="624"/>
      <point x="46" y="464"/>
    </contour>
    <contour>
      <point x="342" y="254" type="line"/>
      <point x="451" y="240" type="line"/>
      <point x="495" y="240" type="line"/>
      <point x="609" y="254" type="line"/>
      <point x="617" y="299" type="line"/>
      <point x="350" y="299" type="line"/>
    </contour>
  </outline>
</glyph>
<glyph name="K" format="2">
  <advance width="620"/>
  <unicode hex="004B"/>
  <anchor x="412" y="632" name="aboveUC"/>
  <anchor x="306" y="-20" name="belowLC"/>
  <outline>
    <contour>
      <point x="2" y="0" type="line"/>
      <point x="261" y="0" type="line"/>
      <point x="270" y="45" type="line"/>
      <point x="159" y="58" type="line"/>
      <point x="137" y="58" type="line"/>
      <point x="11" y="45" type="line"/>
    </contour>
    <contour>
      <point x="74" y="0" type="line"/>
      <point x="194" y="0" type="line"/>
      <point x="209" y="94"/>
      <point x="226" y="190"/>
      <point x="244" y="285" type="curve" smooth="yes"/>
      <point x="305" y="609" type="line"/>
      <point x="185" y="609" type="line"/>
      <point x="170" y="514"/>
      <point x="153" y="418"/>
      <point x="135" y="323" type="curve" smooth="yes"/>
    </contour>
    <contour>
      <point x="103" y="563" type="line"/>
      <point x="223" y="550" type="line"/>
      <point x="245" y="550" type="line"/>
      <point x="367" y="563" type="line"/>
      <point x="376" y="609" type="line"/>
      <point x="112" y="609" type="line"/>
    </contour>
    <contour>
      <point x="164" y="172" type="line"/>
      <point x="631" y="609" type="line"/>
      <point x="568" y="609" type="line"/>
      <point x="173" y="230" type="line"/>
    </contour>
    <contour>
      <point x="444" y="0" type="line"/>
      <point x="573" y="0" type="line"/>
      <point x="369" y="389" type="line"/>
      <point x="288" y="308" type="line"/>
    </contour>
    <contour>
      <point x="356" y="0" type="line"/>
      <point x="602" y="0" type="line"/>
      <point x="610" y="45" type="line"/>
      <point x="500" y="58" type="line"/>
      <point x="480" y="58" type="line"/>
      <point x="363" y="45" type="line"/>
    </contour>
    <contour>
      <point x="455" y="563" type="line"/>
      <point x="530" y="550" type="line"/>
      <point x="553" y="550" type="line"/>
      <point x="659" y="563" type="line"/>
      <point x="667" y="609" type="line"/>
      <point x="464" y="609" type="line"/>
    </contour>
  </outline>
</glyph>
<glyph name="bracketleft" format="2">
  <advance width="320"/>
  <unicode hex="005B"/>
  <outline>
    <contour>
      <point x="134" y="667" type="line"/>
      <point x="-22" y="-130" type="line"/>
      <point x="202" y="-130" type="line"/>
      <point x="218" y="-50" type="line"/>
      <point x="95" y="-50" type="line"/>
      <point x="219" y="587" type="line"/>
      <point x="342" y="587" type="line"/>
      <point x="358" y="667" type="line"/>
    </contour>
  </outline>
</glyph>
<glyph name="bracketright" format="2">
  <advance width="293"/>
  <unicode hex="005D"/>
  <outline>
    <contour>
      <point x="337" y="617" type="line"/>
      <point x="137" y="-129" type="line"/>
      <point x="-55" y="-129" type="line"/>
      <point x="-39" y="-71" type="line"/>
      <point x="80" y="-69" type="line"/>
      <point x="248" y="559" type="line"/>
      <point x="129" y="559" type="line"/>
      <point x="145" y="617" type="line"/>
    </contour>
  </outline>
</glyph>
<glyph name="grave" format="2">
  <advance width="368"/>
  <unicode hex="0060"/>
  <anchor x="322" y="471" name="_aboveLC"/>
  <anchor x="368" y="694" name="aboveLC"/>
  <outline>
    <contour>
      <point x="341" y="509" type="line"/>
      <point x="323" y="558"/>
      <point x="306" y="607"/>
      <point x="287" y="655" type="curve" smooth="yes"/>
      <point x="272" y="698"/>
      <point x="251" y="713"/>
      <point x="226" y="713" type="curve" smooth="yes"/>
      <point x="202" y="713"/>
      <point x="178" y="695"/>
      <point x="178" y="668" type="curve" smooth="yes"/>
      <point x="178" y="644"/>
      <point x="190" y="624"/>
      <point x="213" y="600" type="curve" smooth="yes"/>
      <point x="247" y="564"/>
      <point x="282" y="529"/>
      <point x="316" y="494" type="curve"/>
    </contour>
  </outline>
</glyph>
<glyph name="b" format="2">
  <advance width="481"/>
  <unicode hex="0062"/>
  <anchor x="225" y="667" name="aboveLC"/>
  <anchor x="190" y="-20" name="belowLC"/>
  <outline>
    <contour>
      <point x="166" y="-12" type="curve" smooth="yes"/>
      <point x="321" y="-12"/>
      <point x="485" y="162"/>
      <point x="485" y="333" type="curve" smooth="yes"/>
      <point x="485" y="421"/>
      <point x="447" y="455"/>
      <point x="393" y="455" type="curve" smooth="yes"/>
      <point x="329" y="455"/>
      <point x="244" y="395"/>
      <point x="191" y="304" type="curve"/>
      <point x="199" y="289" type="line"/>
      <point x="247" y="341"/>
      <point x="288" y="372"/>
      <point x="325" y="372" type="curve" smooth="yes"/>
      <point x="357" y="372"/>
      <point x="377" y="345"/>
      <point x="377" y="293" type="curve" smooth="yes"/>
      <point x="377" y="226"/>
      <point x="349" y="146"/>
      <point x="311" y="103" type="curve" smooth="yes"/>
      <point x="281" y="66"/>
      <point x="251" y="50"/>
      <point x="219" y="50" type="curve" smooth="yes"/>
      <point x="191" y="50"/>
      <point x="175" y="69"/>
      <point x="175" y="98" type="curve" smooth="yes"/>
      <point x="175" y="126"/>
      <point x="182" y="154"/>
      <point x="194" y="214" type="curve" smooth="yes"/>
      <point x="218" y="322" type="line"/>
      <point x="218" y="333" type="line"/>
      <point x="287" y="658" type="line"/>
      <point x="275" y="668" type="line"/>
      <point x="93" y="619" type="line"/>
      <point x="89" y="586" type="line"/>
      <point x="201" y="572" type="line"/>
      <point x="165" y="596" type="line"/>
      <point x="92" y="233" type="line" smooth="yes"/>
      <point x="81" y="177"/>
      <point x="69" y="124"/>
      <point x="69" y="80" type="curve" smooth="yes"/>
      <point x="69" y="18"/>
      <point x="109" y="-12"/>
    </contour>
  </outline>
</glyph>
<glyph name="d" format="2">
  <advance width="510"/>
  <unicode hex="0064"/>
  <anchor x="459" y="667" name="aboveLC"/>
  <anchor x="247" y="-20" name="belowLC"/>
  <outline>
    <contour>
      <point x="134" y="-12" type="curve" smooth="yes"/>
      <point x="197" y="-12"/>
      <point x="278" y="48"/>
      <point x="333" y="131" type="curve"/>
      <point x="328" y="157" type="line"/>
      <point x="277" y="96"/>
      <point x="240" y="69"/>
      <point x="206" y="69" type="curve" smooth="yes"/>
      <point x="174" y="69"/>
      <point x="152" y="94"/>
      <point x="152" y="154" type="curve" smooth="yes"/>
      <point x="152" y="220"/>
      <point x="181" y="307"/>
      <point x="223" y="349" type="curve" smooth="yes"/>
      <point x="244" y="372"/>
      <point x="276" y="389"/>
      <point x="304" y="389" type="curve" smooth="yes"/>
      <point x="333" y="389"/>
      <point x="354" y="379"/>
      <point x="376" y="356" type="curve"/>
      <point x="430" y="408" type="line"/>
      <point x="402" y="440"/>
      <point x="375" y="455"/>
      <point x="341" y="455" type="curve" smooth="yes"/>
      <point x="208" y="455"/>
      <point x="43" y="270"/>
      <point x="43" y="112" type="curve" smooth="yes"/>
      <point x="43" y="20"/>
      <point x="86" y="-12"/>
    </contour>
    <contour>
      <point x="412" y="126" type="curve" smooth="yes"/>
      <point x="523" y="658" type="line"/>
      <point x="510" y="668" type="line"/>
      <point x="330" y="619" type="line"/>
      <point x="325" y="586" type="line"/>
      <point x="437" y="572" type="line"/>
      <point x="408" y="602" type="line"/>
      <point x="371" y="421" type="line"/>
      <point x="362" y="396" type="line"/>
      <point x="306" y="126" type="line" smooth="yes"/>
      <point x="299" y="94"/>
      <point x="298" y="70"/>
      <point x="298" y="52" type="curve" smooth="yes"/>
      <point x="298" y="12"/>
      <point x="322" y="-12"/>
      <point x="360" y="-12" type="curve" smooth="yes"/>
      <point x="426" y="-12"/>
      <point x="489" y="44"/>
      <point x="525" y="104" type="curve"/>
      <point x="499" y="123" type="line"/>
      <point x="470" y="85"/>
      <point x="441" y="62"/>
      <point x="424" y="62" type="curve" smooth="yes"/>
      <point x="414" y="62"/>
      <point x="405" y="69"/>
      <point x="405" y="82" type="curve" smooth="yes"/>
      <point x="405" y="92"/>
      <point x="408" y="105"/>
    </contour>
  </outline>
</glyph>
<glyph name="k" format="2">
  <advance width="467"/>
  <unicode hex="006B"/>
  <anchor x="230" y="667" name="aboveLC"/>
  <anchor x="229" y="-20" name="belowLC"/>
  <outline>
    <contour>
      <point x="43" y="1" type="line"/>
      <point x="54" y="-7" type="line"/>
      <point x="152" y="0" type="line"/>
      <point x="163" y="65"/>
      <point x="174" y="122"/>
      <point x="190" y="195" type="curve" smooth="yes"/>
      <point x="285" y="658" type="line"/>
      <point x="276" y="668" type="line"/>
      <point x="93" y="619" type="line"/>
      <point x="89" y="586" type="line"/>
      <point x="203" y="572" type="line"/>
      <point x="163" y="603" type="line"/>
      <point x="154" y="538"/>
      <point x="140" y="472"/>
      <point x="127" y="408" type="curve" smooth="yes"/>
    </contour>
    <contour>
      <point x="468" y="0" type="curve"/>
      <point x="473" y="30" type="line"/>
      <point x="439" y="34" type="line" smooth="yes"/>
      <point x="414" y="36"/>
      <point x="401" y="46"/>
      <point x="384" y="84" type="curve" smooth="yes"/>
      <point x="356" y="147" type="line" smooth="yes"/>
      <point x="334" y="199"/>
      <point x="298" y="230"/>
      <point x="240" y="238" type="curve" smooth="yes"/>
      <point x="197" y="242" type="line"/>
      <point x="194" y="236" type="line"/>
      <point x="413" y="328" type="line" smooth="yes"/>
      <point x="463" y="346"/>
      <point x="484" y="364"/>
      <point x="484" y="393" type="curve" smooth="yes"/>
      <point x="484" y="422"/>
      <point x="463" y="446"/>
      <point x="433" y="449" type="curve"/>
      <point x="177" y="241" type="line"/>
      <point x="178" y="225" type="line"/>
      <point x="191" y="221" type="line" smooth="yes"/>
      <point x="218" y="212"/>
      <point x="228" y="197"/>
      <point x="246" y="148" type="curve" smooth="yes"/>
      <point x="275" y="70" type="line" smooth="yes"/>
      <point x="299" y="1"/>
      <point x="336" y="-12"/>
      <point x="389" y="-12" type="curve" smooth="yes"/>
      <point x="416" y="-12"/>
      <point x="441" y="-9"/>
    </contour>
  </outline>
</glyph>
<glyph name="p" format="2">
  <advance width="494"/>
  <unicode hex="0070"/>
  <anchor x="310" y="471" name="aboveLC"/>
  <anchor x="68" y="-226" name="belowLC"/>
  <outline>
    <contour>
      <point x="11" y="-213" type="line"/>
      <point x="121" y="-213" type="line"/>
      <point x="132" y="-149"/>
      <point x="143" y="-86"/>
      <point x="164" y="15" type="curve"/>
      <point x="169" y="32" type="line"/>
      <point x="254" y="443" type="line"/>
      <point x="239" y="455" type="line"/>
      <point x="62" y="405" type="line"/>
      <point x="57" y="373" type="line"/>
      <point x="172" y="359" type="line"/>
      <point x="135" y="380" type="line"/>
    </contour>
    <contour>
      <point x="111" y="33" type="line"/>
      <point x="139" y="0"/>
      <point x="169" y="-12"/>
      <point x="205" y="-12" type="curve" smooth="yes"/>
      <point x="343" y="-12"/>
      <point x="498" y="167"/>
      <point x="498" y="333" type="curve" smooth="yes"/>
      <point x="498" y="425"/>
      <point x="457" y="455"/>
      <point x="406" y="455" type="curve" smooth="yes"/>
      <point x="342" y="455"/>
      <point x="254" y="395"/>
      <point x="201" y="305" type="curve"/>
      <point x="208" y="289" type="line"/>
      <point x="253" y="339"/>
      <point x="299" y="372"/>
      <point x="334" y="372" type="curve" smooth="yes"/>
      <point x="370" y="372"/>
      <point x="389" y="348"/>
      <point x="389" y="291" type="curve" smooth="yes"/>
      <point x="389" y="233"/>
      <point x="368" y="163"/>
      <point x="337" y="119" type="curve" smooth="yes"/>
      <point x="308" y="74"/>
      <point x="275" y="52"/>
      <point x="235" y="52" type="curve" smooth="yes"/>
      <point x="204" y="52"/>
      <point x="175" y="73"/>
      <point x="149" y="109" type="curve"/>
    </contour>
    <contour>
      <point x="-50" y="-213" type="line"/>
      <point x="195" y="-213" type="line"/>
      <point x="203" y="-179" type="line"/>
      <point x="91" y="-161" type="line"/>
      <point x="60" y="-161" type="line"/>
      <point x="-44" y="-179" type="line"/>
    </contour>
  </outline>
</glyph>
<glyph name="w" format="2">
  <advance width="709"/>
  <unicode hex="0077"/>
  <anchor x="448" y="471" name="aboveLC"/>
  <anchor x="322" y="-20" name="belowLC"/>
  <outline>
    <contour>
      <point x="161" y="0" type="curve"/>
      <point x="171" y="-7" type="line"/>
      <point x="228" y="-1" type="line"/>
      <point x="300" y="99"/>
      <point x="369" y="233"/>
      <point x="413" y="322" type="curve"/>
      <point x="384" y="301" type="line"/>
      <point x="391" y="252"/>
      <point x="405" y="65"/>
      <point x="413" y="0" type="curve"/>
      <point x="422" y="-7" type="line"/>
      <point x="473" y="-1" type="line"/>
      <point x="566" y="94"/>
      <point x="642" y="198"/>
      <point x="687" y="280" type="curve" smooth="yes"/>
      <point x="723" y="347"/>
      <point x="729" y="374"/>
      <point x="729" y="398" type="curve" smooth="yes"/>
      <point x="729" y="422"/>
      <point x="726" y="433"/>
      <point x="719" y="444" type="curve"/>
      <point x="711" y="450"/>
      <point x="698" y="456"/>
      <point x="682" y="457" type="curve" smooth="yes"/>
      <point x="644" y="457"/>
      <point x="612" y="434"/>
      <point x="612" y="383" type="curve" smooth="yes"/>
      <point x="612" y="366"/>
      <point x="620" y="342"/>
      <point x="626" y="322" type="curve" smooth="yes"/>
      <point x="648" y="249" type="line"/>
      <point x="659" y="337" type="line"/>
      <point x="654" y="327"/>
      <point x="650" y="317"/>
      <point x="644" y="306" type="curve" smooth="yes"/>
      <point x="598" y="222"/>
      <point x="555" y="156"/>
      <point x="496" y="80" type="curve"/>
      <point x="511" y="72" type="line"/>
      <point x="504" y="135"/>
      <point x="489" y="373"/>
      <point x="480" y="437" type="curve"/>
      <point x="415" y="437" type="line"/>
      <point x="358" y="308"/>
      <point x="297" y="190"/>
      <point x="232" y="82" type="curve"/>
      <point x="254" y="77" type="line"/>
      <point x="252" y="178"/>
      <point x="245" y="291"/>
      <point x="234" y="377" type="curve" smooth="yes"/>
      <point x="228" y="430"/>
      <point x="208" y="455"/>
      <point x="164" y="455" type="curve" smooth="yes"/>
      <point x="119" y="455"/>
      <point x="77" y="418"/>
      <point x="34" y="347" type="curve"/>
      <point x="56" y="327" type="line"/>
      <point x="77" y="356"/>
      <point x="92" y="369"/>
      <point x="105" y="369" type="curve" smooth="yes"/>
      <point x="117" y="369"/>
      <point x="126" y="366"/>
      <point x="128" y="336" type="curve" smooth="yes"/>
      <point x="143" y="236"/>
      <point x="154" y="129"/>
    </contour>
  </outline>
</glyph>
<glyph name="braceleft" format="2">
  <advance width="329"/>
  <unicode hex="007B"/>
  <outline>
    <contour>
      <point x="50" y="232" type="line"/>
      <point x="115" y="224"/>
      <point x="134" y="201"/>
      <point x="134" y="170" type="curve" smooth="yes"/>
      <point x="134" y="101"/>
      <point x="62" y="26"/>
      <point x="62" y="-57" type="curve" smooth="yes"/>
      <point x="62" y="-117"/>
      <point x="116" y="-146"/>
      <point x="201" y="-146" type="curve" smooth="yes"/>
      <point x="243" y="-146" type="line"/>
      <point x="252" y="-102" type="line"/>
      <point x="221" y="-99" type="line" smooth="yes"/>
      <point x="182" y="-95"/>
      <point x="161" y="-80"/>
      <point x="161" y="-47" type="curve" smooth="yes"/>
      <point x="161" y="7"/>
      <point x="209" y="108"/>
      <point x="209" y="169" type="curve" smooth="yes"/>
      <point x="209" y="222"/>
      <point x="173" y="258"/>
      <point x="95" y="262" type="curve"/>
      <point x="92" y="249" type="line"/>
      <point x="195" y="253"/>
      <point x="256" y="315"/>
      <point x="256" y="400" type="curve" smooth="yes"/>
      <point x="256" y="427"/>
      <point x="253" y="471"/>
      <point x="253" y="502" type="curve" smooth="yes"/>
      <point x="253" y="572"/>
      <point x="278" y="607"/>
      <point x="351" y="611" type="curve" smooth="yes"/>
      <point x="374" y="613" type="line"/>
      <point x="382" y="657" type="line"/>
      <point x="351" y="657" type="line" smooth="yes"/>
      <point x="230" y="657"/>
      <point x="156" y="609"/>
      <point x="156" y="507" type="curve" smooth="yes"/>
      <point x="156" y="462"/>
      <point x="173" y="421"/>
      <point x="173" y="384" type="curve" smooth="yes"/>
      <point x="173" y="329"/>
      <point x="149" y="290"/>
      <point x="60" y="278" type="curve"/>
    </contour>
  </outline>
</glyph>
<glyph name="bar" format="2">
  <advance width="242"/>
  <unicode hex="007C"/>
  <outline>
    <contour>
      <point x="98" y="-230" type="line"/>
      <point x="173" y="-230" type="line"/>
      <point x="173" y="690" type="line"/>
      <point x="98" y="690" type="line"/>
    </contour>
  </outline>
</glyph>
<glyph name="currency" format="2">
  <advance width="490"/>
  <unicode hex="00A4"/>
  <outline>
    <contour>
      <point x="382" y="390" type="line"/>
      <point x="431" y="416" type="line" smooth="yes"/>
      <point x="470" y="438"/>
      <point x="493" y="456"/>
      <point x="493" y="480" type="curve" smooth="yes"/>
      <point x="493" y="500"/>
      <point x="475" y="517"/>
      <point x="455" y="517" type="curve" smooth="yes"/>
      <point x="431" y="517"/>
      <point x="413" y="494"/>
      <point x="391" y="456" type="curve" smooth="yes"/>
      <point x="365" y="408" type="line"/>
    </contour>
    <contour>
      <point x="180" y="299" type="curve" smooth="yes"/>
      <point x="180" y="358"/>
      <point x="223" y="398"/>
      <point x="274" y="398" type="curve" smooth="yes"/>
      <point x="326" y="398"/>
      <point x="368" y="358"/>
      <point x="368" y="299" type="curve" smooth="yes"/>
      <point x="368" y="240"/>
      <point x="326" y="200"/>
      <point x="274" y="200" type="curve" smooth="yes"/>
      <point x="223" y="200"/>
      <point x="180" y="240"/>
    </contour>
    <contour>
      <point x="115" y="299" type="curve" smooth="yes"/>
      <point x="115" y="205"/>
      <point x="188" y="141"/>
      <point x="274" y="141" type="curve" smooth="yes"/>
      <point x="360" y="141"/>
      <point x="433" y="206"/>
      <point x="433" y="299" type="curve" smooth="yes"/>
      <point x="433" y="394"/>
      <point x="360" y="457"/>
      <point x="274" y="457" type="curve" smooth="yes"/>
      <point x="188" y="457"/>
      <point x="115" y="394"/>
    </contour>
    <contour>
      <point x="184" y="408" type="line"/>
      <point x="157" y="456" type="line" smooth="yes"/>
      <point x="136" y="494"/>
      <point x="118" y="517"/>
      <point x="94" y="517" type="curve" smooth="yes"/>
      <point x="73" y="517"/>
      <point x="56" y="500"/>
      <point x="56" y="480" type="curve" smooth="yes"/>
      <point x="56" y="456"/>
      <point x="80" y="437"/>
      <point x="117" y="416" type="curve" smooth="yes"/>
      <point x="165" y="390" type="line"/>
    </contour>
    <contour>
      <point x="166" y="208" type="line"/>
      <point x="117" y="183" type="line" smooth="yes"/>
      <point x="80" y="161"/>
      <point x="56" y="143"/>
      <point x="56" y="119" type="curve" smooth="yes"/>
      <point x="56" y="98"/>
      <point x="73" y="80"/>
      <point x="94" y="80" type="curve" smooth="yes"/>
      <point x="118" y="80"/>
      <point x="136" y="104"/>
      <point x="157" y="142" type="curve" smooth="yes"/>
      <point x="184" y="190" type="line"/>
    </contour>
    <contour>
      <point x="365" y="191" type="line"/>
      <point x="391" y="142" type="line" smooth="yes"/>
      <point x="414" y="104"/>
      <point x="431" y="80"/>
      <point x="455" y="80" type="curve" smooth="yes"/>
      <point x="475" y="80"/>
      <point x="493" y="98"/>
      <point x="493" y="119" type="curve" smooth="yes"/>
      <point x="493" y="143"/>
      <point x="470" y="161"/>
      <point x="431" y="183" type="curve" smooth="yes"/>
      <point x="383" y="209" type="line"/>
    </contour>
  </outline>
</glyph>
<glyph name="section" format="2">
  <advance width="451"/>
  <unicode hex="00A7"/>
  <outline>
    <contour>
      <point x="167" y="-114" type="curve" smooth="yes"/>
      <point x="282" y="-114"/>
      <point x="345" y="-56"/>
      <point x="345" y="18" type="curve" smooth="yes"/>
      <point x="345" y="73"/>
      <point x="322" y="99"/>
      <point x="266" y="143" type="curve" smooth="yes"/>
      <point x="224" y="176" type="line" smooth="yes"/>
      <point x="178" y="213"/>
      <point x="155" y="238"/>
      <point x="157" y="275" type="curve" smooth="yes"/>
      <point x="157" y="319"/>
      <point x="184" y="357"/>
      <point x="265" y="364" type="curve"/>
      <point x="266" y="391" type="line"/>
      <point x="130" y="391"/>
      <point x="63" y="319"/>
      <point x="63" y="241" type="curve" smooth="yes"/>
      <point x="63" y="183"/>
      <point x="93" y="149"/>
      <point x="142" y="109" type="curve" smooth="yes"/>
      <point x="183" y="78" type="line" smooth="yes"/>
      <point x="229" y="42"/>
      <point x="244" y="20"/>
      <point x="244" y="-7" type="curve" smooth="yes"/>
      <point x="244" y="-49"/>
      <point x="213" y="-79"/>
      <point x="159" y="-79" type="curve" smooth="yes"/>
      <point x="141" y="-79"/>
      <point x="127" y="-78"/>
      <point x="107" y="-73" type="curve"/>
      <point x="155" y="-98" type="line"/>
      <point x="140" y="-33" type="line" smooth="yes"/>
      <point x="133" y="2"/>
      <point x="113" y="18"/>
      <point x="83" y="18" type="curve" smooth="yes"/>
      <point x="58" y="18"/>
      <point x="43" y="2"/>
      <point x="37" y="-22" type="curve"/>
      <point x="46" y="-79"/>
      <point x="93" y="-114"/>
    </contour>
    <contour>
      <point x="319" y="626" type="curve" smooth="yes"/>
      <point x="218" y="626"/>
      <point x="159" y="562"/>
      <point x="159" y="486" type="curve" smooth="yes"/>
      <point x="159" y="430"/>
      <point x="195" y="397"/>
      <point x="233" y="367" type="curve" smooth="yes"/>
      <point x="285" y="326" type="line" smooth="yes"/>
      <point x="330" y="290"/>
      <point x="344" y="267"/>
      <point x="344" y="235" type="curve" smooth="yes"/>
      <point x="343" y="193"/>
      <point x="306" y="161"/>
      <point x="230" y="154" type="curve"/>
      <point x="230" y="126" type="line"/>
      <point x="369" y="126"/>
      <point x="440" y="191"/>
      <point x="440" y="270" type="curve" smooth="yes"/>
      <point x="440" y="322"/>
      <point x="420" y="351"/>
      <point x="369" y="391" type="curve" smooth="yes"/>
      <point x="330" y="423" type="line" smooth="yes"/>
      <point x="282" y="459"/>
      <point x="256" y="481"/>
      <point x="256" y="519" type="curve" smooth="yes"/>
      <point x="256" y="555"/>
      <point x="279" y="590"/>
      <point x="333" y="590" type="curve" smooth="yes"/>
      <point x="347" y="590"/>
      <point x="360" y="588"/>
      <point x="372" y="586" type="curve"/>
      <point x="326" y="609" type="line"/>
      <point x="345" y="552" type="line" smooth="yes"/>
      <point x="357" y="517"/>
      <point x="380" y="500"/>
      <point x="403" y="500" type="curve" smooth="yes"/>
      <point x="428" y="500"/>
      <point x="445" y="515"/>
      <point x="449" y="538" type="curve"/>
      <point x="436" y="595"/>
      <point x="396" y="626"/>
    </contour>
  </outline>
</glyph>
<glyph name="logicalnot" format="2">
  <advance width="495"/>
  <unicode hex="00AC"/>
  <outline>
    <contour>
      <point x="53" y="299" type="line"/>
      <point x="425" y="299" type="line"/>
      <point x="399" y="326" type="line"/>
      <point x="399" y="144" type="line"/>
      <point x="468" y="144" type="line"/>
      <point x="468" y="365" type="line"/>
      <point x="53" y="365" type="line"/>
    </contour>
  </outline>
</glyph>
<glyph name="paragraph" format="2">
  <advance width="392"/>
  <unicode hex="00B6"/>
  <outline>
    <contour>
      <point x="474" y="580" type="line"/>
      <point x="463" y="540" type="line"/>
      <point x="436" y="541" type="line"/>
      <point x="263" y="-107" type="line"/>
      <point x="215" y="-107" type="line"/>
      <point x="388" y="540" type="line"/>
      <point x="330" y="540" type="line"/>
      <point x="157" y="-107" type="line"/>
      <point x="109" y="-107" type="line"/>
      <point x="208" y="259" type="line"/>
      <point x="125" y="261"/>
      <point x="71" y="308"/>
      <point x="71" y="386" type="curve" smooth="yes"/>
      <point x="71" y="402"/>
      <point x="73" y="420"/>
      <point x="78" y="439" type="curve" smooth="yes"/>
      <point x="108" y="550"/>
      <point x="193" y="580"/>
      <point x="294" y="580" type="curve" smooth="yes"/>
    </contour>
  </outline>
</glyph>
<glyph name="cedilla" format="2">
  <advance width="368"/>
  <unicode hex="00B8"/>
  <anchor x="138" y="0" name="_baseLC"/>
  <outline>
    <contour>
      <point x="87" y="-81" type="line"/>
      <point x="127" y="-90"/>
      <point x="151" y="-104"/>
      <point x="151" y="-134" type="curve" smooth="yes"/>
      <point x="151" y="-159"/>
      <point x="131" y="-173"/>
      <point x="102" y="-173" type="curve" smooth="yes"/>
      <point x="82" y="-173"/>
      <point x="64" y="-169"/>
      <point x="46" y="-161" type="curve"/>
      <point x="31" y="-191" type="line"/>
      <point x="50" y="-203"/>
      <point x="81" y="-212"/>
      <point x="115" y="-212" type="curve" smooth="yes"/>
      <point x="181" y="-212"/>
      <point x="217" y="-179"/>
      <point x="217" y="-139" type="curve" smooth="yes"/>
      <point x="217" y="-96"/>
      <point x="185" y="-74"/>
      <point x="116" y="-54" type="curve"/>
      <point x="125" y="-75" type="line"/>
      <point x="161" y="0" type="line"/>
      <point x="127" y="0" type="line"/>
    </contour>
  </outline>
</glyph>
<glyph name="guillemotright" format="2">
  <advance width="541"/>
  <unicode hex="00BB"/>
  <outline>
    <contour>
      <point x="327" y="429" type="line"/>
      <point x="293" y="400" type="line"/>
      <point x="439" y="204" type="line"/>
      <point x="449" y="260" type="line"/>
      <point x="246" y="66" type="line"/>
      <point x="271" y="34" type="line"/>
      <point x="496" y="204" type="line"/>
      <point x="507" y="260" type="line"/>
    </contour>
    <contour>
      <point x="125" y="429" type="line"/>
      <point x="92" y="400" type="line"/>
      <point x="237" y="204" type="line"/>
      <point x="247" y="260" type="line"/>
      <point x="44" y="66" type="line"/>
      <point x="69" y="34" type="line"/>
      <point x="295" y="204" type="line"/>
      <point x="305" y="260" type="line"/>
    </contour>
  </outline>
</glyph>
<glyph name="onequarter" format="2">
  <advance width="800"/>
  <unicode hex="00BC"/>
  <outline>
    <contour>
      <point x="236" y="-17" type="line"/>
      <point x="686" y="574" type="line"/>
      <point x="647" y="603" type="line"/>
      <point x="198" y="11" type="line"/>
    </contour>
    <contour>
      <point x="303" y="229" type="line"/>
      <point x="308" y="257" type="line"/>
      <point x="218" y="268" type="line"/>
      <point x="174" y="268" type="line"/>
      <point x="82" y="257" type="line"/>
      <point x="77" y="229" type="line"/>
    </contour>
    <contour>
      <point x="230" y="229" type="line"/>
      <point x="288" y="512" type="line"/>
      <point x="308" y="593" type="line"/>
      <point x="301" y="598" type="line"/>
      <point x="148" y="565" type="line"/>
      <point x="141" y="539" type="line"/>
      <point x="223" y="541" type="line"/>
      <point x="209" y="559" type="line"/>
      <point x="143" y="229" type="line"/>
    </contour>
    <contour>
      <point x="753" y="80" type="line"/>
      <point x="762" y="134" type="line"/>
      <point x="498" y="134" type="line"/>
      <point x="502" y="124" type="line"/>
      <point x="677" y="310" type="line"/>
      <point x="663" y="310" type="line"/>
      <point x="598" y="-10" type="line"/>
      <point x="676" y="-10" type="line"/>
      <point x="750" y="363" type="line"/>
      <point x="685" y="363" type="line"/>
      <point x="472" y="136" type="line"/>
      <point x="462" y="80" type="line"/>
    </contour>
  </outline>
</glyph>
<glyph name="threequarters" format="2">
  <advance width="800"/>
  <unicode hex="00BE"/>
  <outline>
    <contour>
      <point x="241" y="-17" type="line"/>
      <point x="690" y="574" type="line"/>
      <point x="653" y="603" type="line"/>
      <point x="203" y="11" type="line"/>
    </contour>
    <contour>
      <point x="177" y="220" type="curve" smooth="yes"/>
      <point x="269" y="220"/>
      <point x="332" y="263"/>
      <point x="332" y="328" type="curve" smooth="yes"/>
      <point x="332" y="381"/>
      <point x="298" y="409"/>
      <point x="217" y="417" type="curve"/>
      <point x="215" y="408" type="line"/>
      <point x="306" y="419"/>
      <point x="346" y="463"/>
      <point x="346" y="513" type="curve" smooth="yes"/>
      <point x="346" y="560"/>
      <point x="316" y="598"/>
      <point x="234" y="598" type="curve" smooth="yes"/>
      <point x="166" y="598"/>
      <point x="117" y="566"/>
      <point x="113" y="506" type="curve"/>
      <point x="119" y="495"/>
      <point x="131" y="488"/>
      <point x="144" y="488" type="curve" smooth="yes"/>
      <point x="164" y="488"/>
      <point x="181" y="499"/>
      <point x="184" y="528" type="curve" smooth="yes"/>
      <point x="194" y="582" type="line"/>
      <point x="161" y="556" type="line"/>
      <point x="179" y="563"/>
      <point x="198" y="566"/>
      <point x="211" y="566" type="curve" smooth="yes"/>
      <point x="245" y="566"/>
      <point x="266" y="549"/>
      <point x="266" y="507" type="curve" smooth="yes"/>
      <point x="266" y="452"/>
      <point x="230" y="426"/>
      <point x="166" y="426" type="curve"/>
      <point x="160" y="394" type="line"/>
      <point x="216" y="394"/>
      <point x="241" y="375"/>
      <point x="241" y="332" type="curve" smooth="yes"/>
      <point x="241" y="277"/>
      <point x="199" y="253"/>
      <point x="161" y="253" type="curve" smooth="yes"/>
      <point x="137" y="253"/>
      <point x="122" y="256"/>
      <point x="107" y="264" type="curve"/>
      <point x="141" y="238" type="line"/>
      <point x="138" y="292" type="line" smooth="yes"/>
      <point x="136" y="331"/>
      <point x="123" y="341"/>
      <point x="102" y="341" type="curve" smooth="yes"/>
      <point x="88" y="341"/>
      <point x="75" y="333"/>
      <point x="67" y="317" type="curve"/>
      <point x="68" y="253"/>
      <point x="107" y="220"/>
    </contour>
    <contour>
      <point x="753" y="80" type="line"/>
      <point x="762" y="134" type="line"/>
      <point x="498" y="134" type="line"/>
      <point x="502" y="124" type="line"/>
      <point x="677" y="310" type="line"/>
      <point x="663" y="310" type="line"/>
      <point x="598" y="-10" type="line"/>
      <point x="676" y="-10" type="line"/>
      <point x="750" y="363" type="line"/>
      <point x="685" y="363" type="line"/>
      <point x="472" y="136" type="line"/>
      <point x="462" y="80" type="line"/>
    </contour>
  </outline>
</glyph>
<glyph name="Atilde" format="2">
  <advance width="629"/>
  <unicode hex="00C3"/>
  <anchor x="427" y="800" name="aboveUC"/>
  <anchor x="250" y="-20" name="belowLC"/>
  <anchor x="486" y="0" name="ogonek"/>
  <outline>
    <contour>
      <point x="-26" y="0" type="line"/>
      <point x="180" y="0" type="line"/>
      <point x="189" y="45" type="line"/>
      <point x="102" y="58" type="line"/>
      <point x="79" y="58" type="line"/>
      <point x="-17" y="45" type="line"/>
    </contour>
    <contour>
      <point x="30" y="0" type="line"/>
      <point x="83" y="0" type="line"/>
      <point x="363" y="542" type="line"/>
      <point x="337" y="520" type="line"/>
      <point x="411" y="0" type="line"/>
      <point x="529" y="0" type="line"/>
      <point x="434" y="609" type="line"/>
      <point x="356" y="609" type="line"/>
    </contour>
    <contour>
      <point x="170" y="197" type="line"/>
      <point x="438" y="197" type="line"/>
      <point x="439" y="246" type="line"/>
      <point x="188" y="246" type="line"/>
    </contour>
    <contour>
      <point x="317" y="0" type="line"/>
      <point x="587" y="0" type="line"/>
      <point x="596" y="45" type="line"/>
      <point x="477" y="58" type="line"/>
      <point x="454" y="58" type="line"/>
      <point x="326" y="45" type="line"/>
    </contour>
    <contour>
      <point x="233" y="667" type="curve"/>
      <point x="265" y="655" type="line"/>
      <point x="287" y="704"/>
      <point x="308" y="722"/>
      <point x="335" y="722" type="curve" smooth="yes"/>
      <point x="363" y="722"/>
      <point x="379" y="701"/>
      <point x="397" y="685" type="curve" smooth="yes"/>
      <point x="414" y="669"/>
      <point x="436" y="655"/>
      <point x="468" y="655" type="curve" smooth="yes"/>
      <point x="523" y="655"/>
      <point x="563" y="690"/>
      <point x="588" y="777" type="curve"/>
      <point x="556" y="790" type="line"/>
      <point x="534" y="739"/>
      <point x="514" y="722"/>
      <point x="486" y="722" type="curve" smooth="yes"/>
      <point x="461" y="722"/>
      <point x="446" y="743"/>
      <point x="427" y="759" type="curve" smooth="yes"/>
      <point x="409" y="775"/>
      <point x="391" y="790"/>
      <point x="355" y="790" type="curve" smooth="yes"/>
      <point x="302" y="790"/>
      <point x="258" y="751"/>
    </contour>
  </outline>
</glyph>
<glyph name="Ccedilla" format="2">
  <advance width="550"/>
  <unicode hex="00C7"/>
  <anchor x="399" y="632" name="aboveUC"/>
  <anchor x="316" y="0" name="baseLC"/>
  <anchor x="302" y="-20" name="belowLC"/>
  <outline>
    <contour>
      <point x="313" y="-15" type="curve" smooth="yes"/>
      <point x="392" y="-15"/>
      <point x="449" y="4"/>
      <point x="495" y="27" type="curve"/>
      <point x="520" y="166" type="line"/>
      <point x="455" y="166" type="line"/>
      <point x="404" y="23" type="line"/>
      <point x="468" y="70" type="line"/>
      <point x="428" y="49"/>
      <point x="387" y="34"/>
      <point x="345" y="34" type="curve" smooth="yes"/>
      <point x="239" y="34"/>
      <point x="169" y="118"/>
      <point x="169" y="251" type="curve" smooth="yes"/>
      <point x="169" y="424"/>
      <point x="267" y="574"/>
      <point x="407" y="574" type="curve" smooth="yes"/>
      <point x="452" y="574"/>
      <point x="494" y="558"/>
      <point x="529" y="524" type="curve"/>
      <point x="486" y="574" type="line"/>
      <point x="488" y="440" type="line"/>
      <point x="552" y="440" type="line"/>
      <point x="574" y="576" type="line"/>
      <point x="515" y="610"/>
      <point x="463" y="624"/>
      <point x="403" y="624" type="curve" smooth="yes"/>
      <point x="196" y="624"/>
      <point x="46" y="458"/>
      <point x="46" y="253" type="curve" smooth="yes"/>
      <point x="46" y="83"/>
      <point x="153" y="-15"/>
    </contour>
    <contour>
      <point x="257" y="-81" type="line"/>
      <point x="298" y="-90"/>
      <point x="322" y="-104"/>
      <point x="322" y="-134" type="curve" smooth="yes"/>
      <point x="322" y="-159"/>
      <point x="301" y="-173"/>
      <point x="272" y="-173" type="curve" smooth="yes"/>
      <point x="253" y="-173"/>
      <point x="234" y="-169"/>
      <point x="216" y="-161" type="curve"/>
      <point x="201" y="-191" type="line"/>
      <point x="220" y="-203"/>
      <point x="252" y="-212"/>
      <point x="285" y="-212" type="curve" smooth="yes"/>
      <point x="351" y="-212"/>
      <point x="388" y="-179"/>
      <point x="388" y="-139" type="curve" smooth="yes"/>
      <point x="388" y="-96"/>
      <point x="356" y="-74"/>
      <point x="287" y="-54" type="curve"/>
      <point x="296" y="-75" type="line"/>
      <point x="333" y="0" type="line"/>
      <point x="299" y="0" type="line"/>
    </contour>
  </outline>
</glyph>
<glyph name="Eacute" format="2">
  <advance width="540"/>
  <unicode hex="00C9"/>
  <anchor x="433" y="802" name="aboveUC"/>
  <anchor x="268" y="-20" name="belowLC"/>
  <anchor x="391" y="0" name="ogonek"/>
  <outline>
    <contour>
      <point x="4" y="0" type="line"/>
      <point x="135" y="0" type="line"/>
      <point x="146" y="58" type="line"/>
      <point x="136" y="58" type="line"/>
      <point x="12" y="45" type="line"/>
    </contour>
    <contour>
      <point x="78" y="0" type="line"/>
      <point x="197" y="0" type="line"/>
      <point x="213" y="94"/>
      <point x="230" y="190"/>
      <point x="247" y="285" type="curve" smooth="yes"/>
      <point x="309" y="609" type="line"/>
      <point x="188" y="609" type="line"/>
      <point x="173" y="514"/>
      <point x="157" y="418"/>
      <point x="138" y="323" type="curve" smooth="yes"/>
    </contour>
    <contour>
      <point x="103" y="563" type="line"/>
      <point x="224" y="550" type="line"/>
      <point x="238" y="550" type="line"/>
      <point x="249" y="609" type="line"/>
      <point x="113" y="609" type="line"/>
    </contour>
    <contour>
      <point x="135" y="0" type="line"/>
      <point x="475" y="0" type="line"/>
      <point x="512" y="160" type="line"/>
      <point x="448" y="160" type="line"/>
      <point x="391" y="0" type="line"/>
      <point x="458" y="49" type="line"/>
      <point x="144" y="49" type="line"/>
    </contour>
    <contour>
      <point x="190" y="287" type="line"/>
      <point x="391" y="287" type="line"/>
      <point x="400" y="336" type="line"/>
      <point x="200" y="336" type="line"/>
    </contour>
    <contour>
      <point x="239" y="558" type="line"/>
      <point x="513" y="558" type="line"/>
      <point x="468" y="609" type="line"/>
      <point x="466" y="448" type="line"/>
      <point x="529" y="448" type="line"/>
      <point x="552" y="609" type="line"/>
      <point x="249" y="609" type="line"/>
    </contour>
    <contour>
      <point x="363" y="210" type="line"/>
      <point x="409" y="210" type="line"/>
      <point x="448" y="415" type="line"/>
      <point x="402" y="415" type="line"/>
      <point x="370" y="324" type="line"/>
      <point x="367" y="307" type="line"/>
    </contour>
    <contour>
      <point x="322" y="673" type="curve"/>
      <point x="339" y="646" type="line"/>
      <point x="388" y="666"/>
      <point x="437" y="684"/>
      <point x="485" y="704" type="curve" smooth="yes"/>
      <point x="531" y="723"/>
      <point x="540" y="743"/>
      <point x="540" y="761" type="curve" smooth="yes"/>
      <point x="540" y="783"/>
      <point x="523" y="802"/>
      <point x="497" y="802" type="curve" smooth="yes"/>
      <point x="473" y="802"/>
      <point x="459" y="794"/>
      <point x="427" y="768" type="curve" smooth="yes"/>
      <point x="391" y="737"/>
      <point x="357" y="705"/>
    </contour>
  </outline>
</glyph>
<glyph name="Edieresis" format="2">
  <advance width="540"/>
  <unicode hex="00CB"/>
  <anchor x="394" y="790" name="aboveUC"/>
  <anchor x="268" y="-20" name="belowLC"/>
  <anchor x="391" y="0" name="ogonek"/>
  <outline>
    <contour>
      <point x="4" y="0" type="line"/>
      <point x="135" y="0" type="line"/>
      <point x="146" y="58" type="line"/>
      <point x="136" y="58" type="line"/>
      <point x="12" y="45" type="line"/>
    </contour>
    <contour>
      <point x="78" y="0" type="line"/>
      <point x="197" y="0" type="line"/>
      <point x="213" y="94"/>
      <point x="230" y="190"/>
      <point x="247" y="285" type="curve" smooth="yes"/>
      <point x="309" y="609" type="line"/>
      <point x="188" y="609" type="line"/>
      <point x="173" y="514"/>
      <point x="157" y="418"/>
      <point x="138" y="323" type="curve" smooth="yes"/>
    </contour>
    <contour>
      <point x="103" y="563" type="line"/>
      <point x="224" y="550" type="line"/>
      <point x="238" y="550" type="line"/>
      <point x="249" y="609" type="line"/>
      <point x="113" y="609" type="line"/>
    </contour>
    <contour>
      <point x="135" y="0" type="line"/>
      <point x="475" y="0" type="line"/>
      <point x="512" y="160" type="line"/>
      <point x="448" y="160" type="line"/>
      <point x="391" y="0" type="line"/>
      <point x="458" y="49" type="line"/>
      <point x="144" y="49" type="line"/>
    </contour>
    <contour>
      <point x="190" y="287" type="line"/>
      <point x="391" y="287" type="line"/>
      <point x="400" y="336" type="line"/>
      <point x="200" y="336" type="line"/>
    </contour>
    <contour>
      <point x="239" y="558" type="line"/>
      <point x="513" y="558" type="line"/>
      <point x="468" y="609" type="line"/>
      <point x="466" y="448" type="line"/>
      <point x="529" y="448" type="line"/>
      <point x="552" y="609" type="line"/>
      <point x="249" y="609" type="line"/>
    </contour>
    <contour>
      <point x="363" y="210" type="line"/>
      <point x="409" y="210" type="line"/>
      <point x="448" y="415" type="line"/>
      <point x="402" y="415" type="line"/>
      <point x="370" y="324" type="line"/>
      <point x="367" y="307" type="line"/>
    </contour>
    <contour>
      <point x="266" y="668" type="curve" smooth="yes"/>
      <point x="299" y="668"/>
      <point x="327" y="693"/>
      <point x="327" y="733" type="curve" smooth="yes"/>
      <point x="327" y="760"/>
      <point x="306" y="781"/>
      <point x="276" y="781" type="curve" smooth="yes"/>
      <point x="247" y="781"/>
      <point x="216" y="758"/>
      <point x="216" y="718" type="curve" smooth="yes"/>
      <point x="216" y="687"/>
      <point x="241" y="668"/>
    </contour>
    <contour>
      <point x="475" y="668" type="curve" smooth="yes"/>
      <point x="507" y="668"/>
      <point x="537" y="693"/>
      <point x="537" y="733" type="curve" smooth="yes"/>
      <point x="537" y="760"/>
      <point x="515" y="781"/>
      <point x="486" y="781" type="curve" smooth="yes"/>
      <point x="456" y="781"/>
      <point x="425" y="758"/>
      <point x="425" y="718" type="curve" smooth="yes"/>
      <point x="425" y="687"/>
      <point x="450" y="668"/>
    </contour>
  </outline>
</glyph>
<glyph name="Igrave" format="2">
  <advance width="340"/>
  <unicode hex="00CC"/>
  <anchor x="303" y="808" name="aboveUC"/>
  <anchor x="136" y="-20" name="belowLC"/>
  <anchor x="177" y="0" name="ogonek"/>
  <outline>
    <contour>
      <point x="4" y="0" type="line"/>
      <point x="274" y="0" type="line"/>
      <point x="282" y="45" type="line"/>
      <point x="163" y="58" type="line"/>
      <point x="140" y="58" type="line"/>
      <point x="12" y="45" type="line"/>
    </contour>
    <contour>
      <point x="78" y="0" type="line"/>
      <point x="197" y="0" type="line"/>
      <point x="213" y="94"/>
      <point x="230" y="190"/>
      <point x="247" y="285" type="curve" smooth="yes"/>
      <point x="309" y="609" type="line"/>
      <point x="188" y="609" type="line"/>
      <point x="173" y="514"/>
      <point x="157" y="418"/>
      <point x="138" y="323" type="curve" smooth="yes"/>
    </contour>
    <contour>
      <point x="103" y="563" type="line"/>
      <point x="227" y="550" type="line"/>
      <point x="250" y="550" type="line"/>
      <point x="373" y="563" type="line"/>
      <point x="382" y="609" type="line"/>
      <point x="113" y="609" type="line"/>
    </contour>
    <contour>
      <point x="311" y="678" type="line"/>
      <point x="280" y="711"/>
      <point x="247" y="743"/>
      <point x="216" y="772" type="curve" smooth="yes"/>
      <point x="187" y="799"/>
      <point x="172" y="808"/>
      <point x="151" y="808" type="curve" smooth="yes"/>
      <point x="126" y="808"/>
      <point x="108" y="789"/>
      <point x="108" y="767" type="curve" smooth="yes"/>
      <point x="108" y="750"/>
      <point x="117" y="729"/>
      <point x="159" y="710" type="curve" smooth="yes"/>
      <point x="202" y="689"/>
      <point x="248" y="669"/>
      <point x="292" y="651" type="curve"/>
    </contour>
  </outline>
</glyph>
<glyph name="Idieresis" format="2">
  <advance width="340"/>
  <unicode hex="00CF"/>
  <anchor x="249" y="632" name="aboveUC"/>
  <anchor x="136" y="-20" name="belowLC"/>
  <anchor x="177" y="0" name="ogonek"/>
  <outline>
    <contour>
      <point x="177" y="668" type="curve" smooth="yes"/>
      <point x="208" y="668"/>
      <point x="238" y="693"/>
      <point x="238" y="733" type="curve" smooth="yes"/>
      <point x="238" y="760"/>
      <point x="216" y="781"/>
      <point x="187" y="781" type="curve" smooth="yes"/>
      <point x="157" y="781"/>
      <point x="126" y="758"/>
      <point x="126" y="718" type="curve" smooth="yes"/>
      <point x="126" y="687"/>
      <point x="151" y="668"/>
    </contour>
    <contour>
      <point x="346" y="668" type="curve" smooth="yes"/>
      <point x="378" y="668"/>
      <point x="407" y="693"/>
      <point x="407" y="733" type="curve" smooth="yes"/>
      <point x="407" y="760"/>
      <point x="386" y="781"/>
      <point x="356" y="781" type="curve" smooth="yes"/>
      <point x="327" y="781"/>
      <point x="296" y="758"/>
      <point x="296" y="718" type="curve" smooth="yes"/>
      <point x="296" y="687"/>
      <point x="322" y="668"/>
    </contour>
    <contour>
      <point x="4" y="0" type="line"/>
      <point x="274" y="0" type="line"/>
      <point x="282" y="45" type="line"/>
      <point x="163" y="58" type="line"/>
      <point x="140" y="58" type="line"/>
      <point x="12" y="45" type="line"/>
    </contour>
    <contour>
      <point x="78" y="0" type="line"/>
      <point x="197" y="0" type="line"/>
      <point x="213" y="94"/>
      <point x="230" y="190"/>
      <point x="247" y="285" type="curve" smooth="yes"/>
      <point x="309" y="609" type="line"/>
      <point x="188" y="609" type="line"/>
      <point x="173" y="514"/>
      <point x="157" y="418"/>
      <point x="138" y="323" type="curve" smooth="yes"/>
    </contour>
    <contour>
      <point x="103" y="563" type="line"/>
      <point x="227" y="550" type="line"/>
      <point x="250" y="550" type="line"/>
      <point x="373" y="563" type="line"/>
      <point x="382" y="609" type="line"/>
      <point x="113" y="609" type="line"/>
    </contour>
  </outline>
</glyph>
<glyph name="Eth" format="2">
  <advance width="637"/>
  <unicode hex="00D0"/>
  <anchor x="370" y="632" name="aboveUC"/>
  <anchor x="265" y="-20" name="belowLC"/>
  <outline>
    <contour>
      <point x="371" y="287" type="line"/>
      <point x="380" y="336" type="line"/>
      <point x="56" y="336" type="line"/>
      <point x="46" y="287" type="line"/>
    </contour>
    <contour>
      <point x="4" y="0" type="line"/>
      <point x="136" y="0" type="line"/>
      <point x="147" y="58" type="line"/>
      <point x="132" y="58" type="line"/>
      <point x="12" y="45" type="line"/>
    </contour>
    <contour>
      <point x="78" y="0" type="line"/>
      <point x="197" y="0" type="line"/>
      <point x="213" y="94"/>
      <point x="230" y="190"/>
      <point x="247" y="285" type="curve" smooth="yes"/>
      <point x="309" y="609" type="line"/>
      <point x="188" y="609" type="line"/>
      <point x="173" y="514"/>
      <point x="157" y="418"/>
      <point x="138" y="323" type="curve" smooth="yes"/>
    </contour>
    <contour>
      <point x="103" y="563" type="line"/>
      <point x="227" y="550" type="line"/>
      <point x="239" y="550" type="line"/>
      <point x="251" y="609" type="line"/>
      <point x="113" y="609" type="line"/>
    </contour>
    <contour>
      <point x="139" y="0" type="line"/>
      <point x="264" y="0" type="line" smooth="yes"/>
      <point x="463" y="0"/>
      <point x="632" y="127"/>
      <point x="633" y="353" type="curve" smooth="yes"/>
      <point x="633" y="502"/>
      <point x="535" y="609"/>
      <point x="361" y="609" type="curve" smooth="yes"/>
      <point x="255" y="609" type="line"/>
      <point x="246" y="560" type="line"/>
      <point x="321" y="560" type="line" smooth="yes"/>
      <point x="443" y="560"/>
      <point x="509" y="488"/>
      <point x="509" y="359" type="curve" smooth="yes"/>
      <point x="508" y="196"/>
      <point x="420" y="47"/>
      <point x="262" y="47" type="curve" smooth="yes"/>
      <point x="149" y="47" type="line"/>
    </contour>
  </outline>
</glyph>
<glyph name="Ntilde" format="2">
  <advance width="653"/>
  <unicode hex="00D1"/>
  <anchor x="453" y="800" name="aboveUC"/>
  <anchor x="316" y="-20" name="belowLC"/>
  <outline>
    <contour>
      <point x="-2" y="0" type="line"/>
      <point x="223" y="0" type="line"/>
      <point x="231" y="45" type="line"/>
      <point x="122" y="58" type="line"/>
      <point x="100" y="58" type="line"/>
      <point x="6" y="45" type="line"/>
    </contour>
    <contour>
      <point x="71" y="0" type="line"/>
      <point x="124" y="0" type="line"/>
      <point x="234" y="583" type="line"/>
      <point x="187" y="609" type="line"/>
    </contour>
    <contour>
      <point x="468" y="-4" type="line"/>
      <point x="526" y="-4" type="line"/>
      <point x="543" y="103" type="line"/>
      <point x="273" y="609" type="line"/>
      <point x="104" y="609" type="line"/>
      <point x="95" y="563" type="line"/>
      <point x="202" y="552" type="line"/>
      <point x="156" y="577" type="line"/>
    </contour>
    <contour>
      <point x="476" y="563" type="line"/>
      <point x="593" y="550" type="line"/>
      <point x="615" y="550" type="line"/>
      <point x="704" y="563" type="line"/>
      <point x="713" y="609" type="line"/>
      <point x="485" y="609" type="line"/>
    </contour>
    <contour>
      <point x="526" y="-4" type="line"/>
      <point x="640" y="609" type="line"/>
      <point x="587" y="609" type="line"/>
      <point x="484" y="52" type="line"/>
    </contour>
    <contour>
      <point x="260" y="667" type="curve"/>
      <point x="292" y="655" type="line"/>
      <point x="313" y="704"/>
      <point x="334" y="722"/>
      <point x="362" y="722" type="curve" smooth="yes"/>
      <point x="389" y="722"/>
      <point x="405" y="701"/>
      <point x="423" y="685" type="curve" smooth="yes"/>
      <point x="441" y="669"/>
      <point x="461" y="655"/>
      <point x="494" y="655" type="curve" smooth="yes"/>
      <point x="549" y="655"/>
      <point x="589" y="690"/>
      <point x="615" y="777" type="curve"/>
      <point x="583" y="790" type="line"/>
      <point x="561" y="739"/>
      <point x="540" y="722"/>
      <point x="513" y="722" type="curve" smooth="yes"/>
      <point x="487" y="722"/>
      <point x="472" y="743"/>
      <point x="454" y="759" type="curve" smooth="yes"/>
      <point x="436" y="775"/>
      <point x="417" y="790"/>
      <point x="381" y="790" type="curve" smooth="yes"/>
      <point x="329" y="790"/>
      <point x="285" y="751"/>
    </contour>
  </outline>
</glyph>
<glyph name="atilde" format="2">
  <advance width="507"/>
  <unicode hex="00E3"/>
  <anchor x="377" y="674" name="aboveLC"/>
  <anchor x="232" y="-20" name="belowLC"/>
  <anchor x="401" y="0" name="ogonek"/>
  <outline>
    <contour>
      <point x="136" y="-12" type="curve" smooth="yes"/>
      <point x="198" y="-12"/>
      <point x="276" y="49"/>
      <point x="333" y="131" type="curve"/>
      <point x="327" y="157" type="line"/>
      <point x="276" y="97"/>
      <point x="237" y="69"/>
      <point x="205" y="69" type="curve" smooth="yes"/>
      <point x="172" y="69"/>
      <point x="152" y="94"/>
      <point x="152" y="151" type="curve" smooth="yes"/>
      <point x="152" y="222"/>
      <point x="184" y="308"/>
      <point x="227" y="350" type="curve" smooth="yes"/>
      <point x="253" y="376"/>
      <point x="281" y="389"/>
      <point x="305" y="389" type="curve" smooth="yes"/>
      <point x="333" y="389"/>
      <point x="359" y="375"/>
      <point x="381" y="358" type="curve"/>
      <point x="434" y="396" type="line"/>
      <point x="408" y="431"/>
      <point x="380" y="455"/>
      <point x="343" y="455" type="curve" smooth="yes"/>
      <point x="214" y="455"/>
      <point x="42" y="270"/>
      <point x="42" y="107" type="curve" smooth="yes"/>
      <point x="42" y="20"/>
      <point x="87" y="-12"/>
    </contour>
    <contour>
      <point x="360" y="-12" type="curve" smooth="yes"/>
      <point x="426" y="-12"/>
      <point x="486" y="49"/>
      <point x="521" y="105" type="curve"/>
      <point x="495" y="124" type="line"/>
      <point x="465" y="86"/>
      <point x="439" y="62"/>
      <point x="420" y="62" type="curve" smooth="yes"/>
      <point x="409" y="62"/>
      <point x="402" y="69"/>
      <point x="402" y="82" type="curve" smooth="yes"/>
      <point x="402" y="92"/>
      <point x="404" y="107"/>
      <point x="409" y="126" type="curve" smooth="yes"/>
      <point x="483" y="448" type="line"/>
      <point x="467" y="460" type="line"/>
      <point x="362" y="402" type="line"/>
      <point x="304" y="133" type="line" smooth="yes"/>
      <point x="298" y="104"/>
      <point x="295" y="83"/>
      <point x="295" y="58" type="curve" smooth="yes"/>
      <point x="295" y="10"/>
      <point x="322" y="-12"/>
    </contour>
    <contour>
      <point x="191" y="540" type="curve"/>
      <point x="221" y="527" type="line"/>
      <point x="237" y="572"/>
      <point x="259" y="595"/>
      <point x="284" y="595" type="curve" smooth="yes"/>
      <point x="311" y="595"/>
      <point x="330" y="575"/>
      <point x="346" y="556" type="curve" smooth="yes"/>
      <point x="364" y="541"/>
      <point x="384" y="527"/>
      <point x="417" y="527" type="curve" smooth="yes"/>
      <point x="467" y="527"/>
      <point x="507" y="563"/>
      <point x="528" y="651" type="curve"/>
      <point x="497" y="664" type="line"/>
      <point x="482" y="619"/>
      <point x="460" y="597"/>
      <point x="437" y="597" type="curve" smooth="yes"/>
      <point x="410" y="597"/>
      <point x="393" y="616"/>
      <point x="375" y="633" type="curve" smooth="yes"/>
      <point x="357" y="649"/>
      <point x="339" y="664"/>
      <point x="303" y="664" type="curve" smooth="yes"/>
      <point x="255" y="664"/>
      <point x="210" y="623"/>
    </contour>
  </outline>
</glyph>
<glyph name="igrave" format="2">
  <advance width="288"/>
  <unicode hex="00EC"/>
  <anchor x="256" y="694" name="aboveLC"/>
  <anchor x="133" y="-20" name="belowLC"/>
  <anchor x="175" y="0" name="ogonek"/>
  <outline>
    <contour>
      <point x="69" y="42" type="curve" smooth="yes"/>
      <point x="69" y="6"/>
      <point x="96" y="-12"/>
      <point x="132" y="-12" type="curve" smooth="yes"/>
      <point x="207" y="-12"/>
      <point x="261" y="46"/>
      <point x="299" y="104" type="curve"/>
      <point x="273" y="123" type="line"/>
      <point x="241" y="82"/>
      <point x="217" y="62"/>
      <point x="199" y="62" type="curve" smooth="yes"/>
      <point x="190" y="62"/>
      <point x="182" y="69"/>
      <point x="182" y="82" type="curve" smooth="yes"/>
      <point x="182" y="92"/>
      <point x="184" y="107"/>
      <point x="189" y="126" type="curve" smooth="yes"/>
      <point x="257" y="444" type="line"/>
      <point x="242" y="455" type="line"/>
      <point x="62" y="405" type="line"/>
      <point x="57" y="373" type="line"/>
      <point x="154" y="360" type="line"/>
      <point x="135" y="381" type="line"/>
      <point x="81" y="124" type="line" smooth="yes"/>
      <point x="75" y="92"/>
      <point x="69" y="63"/>
    </contour>
    <contour>
      <point x="229" y="509" type="line"/>
      <point x="210" y="558"/>
      <point x="194" y="607"/>
      <point x="175" y="655" type="curve" smooth="yes"/>
      <point x="160" y="698"/>
      <point x="138" y="713"/>
      <point x="114" y="713" type="curve" smooth="yes"/>
      <point x="90" y="713"/>
      <point x="66" y="695"/>
      <point x="66" y="668" type="curve" smooth="yes"/>
      <point x="66" y="644"/>
      <point x="78" y="624"/>
      <point x="101" y="600" type="curve" smooth="yes"/>
      <point x="135" y="564"/>
      <point x="170" y="529"/>
      <point x="204" y="494" type="curve"/>
    </contour>
  </outline>
</glyph>
<glyph name="odieresis" format="2">
  <advance width="474"/>
  <unicode hex="00F6"/>
  <anchor x="342" y="664" name="aboveLC"/>
  <anchor x="205" y="-20" name="belowLC"/>
  <anchor x="374" y="445" name="hornLC"/>
  <anchor x="276" y="0" name="ogonek"/>
  <outline>
    <contour>
      <point x="214" y="-12" type="curve" smooth="yes"/>
      <point x="358" y="-12"/>
      <point x="470" y="128"/>
      <point x="470" y="284" type="curve" smooth="yes"/>
      <point x="470" y="399"/>
      <point x="399" y="455"/>
      <point x="303" y="455" type="curve" smooth="yes"/>
      <point x="159" y="455"/>
      <point x="45" y="315"/>
      <point x="45" y="157" type="curve" smooth="yes"/>
      <point x="45" y="42"/>
      <point x="120" y="-12"/>
    </contour>
    <contour>
      <point x="225" y="32" type="curve" smooth="yes"/>
      <point x="186" y="32"/>
      <point x="157" y="60"/>
      <point x="157" y="146" type="curve" smooth="yes"/>
      <point x="157" y="275"/>
      <point x="214" y="409"/>
      <point x="292" y="409" type="curve" smooth="yes"/>
      <point x="331" y="409"/>
      <point x="358" y="380"/>
      <point x="358" y="297" type="curve" smooth="yes"/>
      <point x="358" y="170"/>
      <point x="304" y="32"/>
    </contour>
    <contour>
      <point x="227" y="556" type="curve" smooth="yes"/>
      <point x="260" y="556"/>
      <point x="291" y="582"/>
      <point x="291" y="623" type="curve" smooth="yes"/>
      <point x="291" y="654"/>
      <point x="267" y="674"/>
      <point x="238" y="674" type="curve" smooth="yes"/>
      <point x="206" y="674"/>
      <point x="173" y="649"/>
      <point x="173" y="609" type="curve" smooth="yes"/>
      <point x="173" y="575"/>
      <point x="198" y="556"/>
    </contour>
    <contour>
      <point x="421" y="556" type="curve" smooth="yes"/>
      <point x="455" y="556"/>
      <point x="485" y="582"/>
      <point x="485" y="623" type="curve" smooth="yes"/>
      <point x="485" y="654"/>
      <point x="462" y="674"/>
      <point x="432" y="674" type="curve" smooth="yes"/>
      <point x="401" y="674"/>
      <point x="368" y="649"/>
      <point x="368" y="609" type="curve" smooth="yes"/>
      <point x="368" y="575"/>
      <point x="393" y="556"/>
    </contour>
  </outline>
</glyph>
<glyph name="divide" format="2">
  <advance width="495"/>
  <unicode hex="00F7"/>
  <outline>
    <contour>
      <point x="263" y="65" type="curve" smooth="yes"/>
      <point x="298" y="65"/>
      <point x="325" y="90"/>
      <point x="325" y="124" type="curve" smooth="yes"/>
      <point x="325" y="159"/>
      <point x="298" y="184"/>
      <point x="263" y="184" type="curve" smooth="yes"/>
      <point x="229" y="184"/>
      <point x="201" y="159"/>
      <point x="201" y="124" type="curve" smooth="yes"/>
      <point x="201" y="90"/>
      <point x="229" y="65"/>
    </contour>
    <contour>
      <point x="263" y="414" type="curve" smooth="yes"/>
      <point x="298" y="414"/>
      <point x="325" y="439"/>
      <point x="325" y="474" type="curve" smooth="yes"/>
      <point x="325" y="509"/>
      <point x="298" y="533"/>
      <point x="263" y="533" type="curve" smooth="yes"/>
      <point x="229" y="533"/>
      <point x="201" y="509"/>
      <point x="201" y="474" type="curve" smooth="yes"/>
      <point x="201" y="439"/>
      <point x="229" y="414"/>
    </contour>
    <contour>
      <point x="471" y="266" type="line"/>
      <point x="471" y="332" type="line"/>
      <point x="56" y="332" type="line"/>
      <point x="56" y="266" type="line"/>
    </contour>
  </outline>
</glyph>
<glyph name="uni02CD" format="2">
  <advance width="550"/>
  <unicode hex="02CD"/>
  <outline>
    <contour>
      <point x="13" y="75" type="curve" smooth="yes"/>
      <point x="8" y="62"/>
      <point x="3" y="46"/>
      <point x="3" y="27" type="curve" smooth="yes"/>
      <point x="3" y="8"/>
      <point x="15" y="-2"/>
      <point x="33" y="-2" type="curve" smooth="yes"/>
      <point x="74" y="-2"/>
      <point x="141" y="0"/>
      <point x="223" y="0" type="curve" smooth="yes"/>
      <point x="258" y="0"/>
      <point x="351" y="-1"/>
      <point x="378" y="-1" type="curve" smooth="yes"/>
      <point x="402" y="-1"/>
      <point x="410" y="5"/>
      <point x="416" y="12" type="curve" smooth="yes"/>
      <point x="428" y="26"/>
      <point x="439" y="57"/>
      <point x="439" y="80" type="curve" smooth="yes"/>
      <point x="439" y="98"/>
      <point x="428" y="109"/>
      <point x="406" y="109" type="curve" smooth="yes"/>
      <point x="361" y="109"/>
      <point x="254" y="107"/>
      <point x="208" y="107" type="curve" smooth="yes"/>
      <point x="149" y="107"/>
      <point x="101" y="108"/>
      <point x="56" y="108" type="curve" smooth="yes"/>
      <point x="30" y="108"/>
      <point x="20" y="94"/>
    </contour>
  </outline>
</glyph>
<glyph name="colontriangularmod" format="2">
  <advance width="292"/>
  <unicode hex="02D0"/>
  <outline>
    <contour>
      <point x="107" y="445" type="line"/>
      <point x="158" y="306" type="line"/>
      <point x="168" y="306" type="line"/>
      <point x="277" y="445" type="line"/>
      <point x="275" y="455" type="line"/>
      <point x="115" y="455" type="line"/>
    </contour>
    <contour>
      <point x="15" y="9" type="line"/>
      <point x="18" y="0" type="line"/>
      <point x="178" y="0" type="line"/>
      <point x="185" y="9" type="line"/>
      <point x="135" y="148" type="line"/>
      <point x="124" y="148" type="line"/>
    </contour>
  </outline>
</glyph>
<glyph name="uni2010" format="2">
  <advance width="305"/>
  <unicode hex="2010"/>
  <outline>
    <contour>
      <point x="47" y="195" type="line"/>
      <point x="276" y="195" type="line"/>
      <point x="276" y="269" type="line"/>
      <point x="47" y="269" type="line"/>
    </contour>
  </outline>
</glyph>
<glyph name="dagger" format="2">
  <advance width="457"/>
  <unicode hex="2020"/>
  <outline>
    <contour>
      <point x="75" y="438" type="curve" smooth="yes"/>
      <point x="75" y="412"/>
      <point x="91" y="397"/>
      <point x="123" y="397" type="curve" smooth="yes"/>
      <point x="149" y="397"/>
      <point x="189" y="407"/>
      <point x="222" y="417" type="curve" smooth="yes"/>
      <point x="282" y="436" type="line"/>
      <point x="287" y="455" type="line"/>
      <point x="230" y="475" type="line" smooth="yes"/>
      <point x="202" y="484"/>
      <point x="165" y="495"/>
      <point x="139" y="495" type="curve" smooth="yes"/>
      <point x="103" y="495"/>
      <point x="75" y="475"/>
    </contour>
    <contour>
      <point x="172" y="-84" type="curve"/>
      <point x="202" y="-84" type="line"/>
      <point x="252" y="92"/>
      <point x="277" y="181"/>
      <point x="290" y="240" type="curve" smooth="yes"/>
      <point x="298" y="273"/>
      <point x="301" y="297"/>
      <point x="302" y="323" type="curve" smooth="yes"/>
      <point x="304" y="354"/>
      <point x="301" y="390"/>
      <point x="293" y="445" type="curve"/>
      <point x="274" y="445" type="line"/>
      <point x="221" y="345"/>
      <point x="209" y="291"/>
      <point x="202" y="210" type="curve" smooth="yes"/>
      <point x="198" y="165"/>
      <point x="188" y="69"/>
    </contour>
    <contour>
      <point x="323" y="659" type="curve" smooth="yes"/>
      <point x="294" y="659"/>
      <point x="269" y="637"/>
      <point x="266" y="601" type="curve" smooth="yes"/>
      <point x="263" y="572"/>
      <point x="265" y="541"/>
      <point x="267" y="506" type="curve" smooth="yes"/>
      <point x="274" y="445" type="line"/>
      <point x="293" y="445" type="line"/>
      <point x="323" y="506" type="line" smooth="yes"/>
      <point x="339" y="541"/>
      <point x="364" y="591"/>
      <point x="364" y="617" type="curve" smooth="yes"/>
      <point x="364" y="649"/>
      <point x="350" y="659"/>
    </contour>
    <contour>
      <point x="489" y="455" type="curve" smooth="yes"/>
      <point x="489" y="479"/>
      <point x="472" y="495"/>
      <point x="440" y="495" type="curve" smooth="yes"/>
      <point x="415" y="495"/>
      <point x="376" y="485"/>
      <point x="345" y="474" type="curve" smooth="yes"/>
      <point x="287" y="455" type="line"/>
      <point x="282" y="436" type="line"/>
      <point x="333" y="417" type="line" smooth="yes"/>
      <point x="361" y="406"/>
      <point x="397" y="396"/>
      <point x="424" y="396" type="curve" smooth="yes"/>
      <point x="463" y="396"/>
      <point x="489" y="418"/>
    </contour>
  </outline>
</glyph>
<glyph name="guilsinglright" format="2">
  <advance width="339"/>
  <unicode hex="203A"/>
  <outline>
    <contour>
      <point x="125" y="429" type="line"/>
      <point x="92" y="400" type="line"/>
      <point x="237" y="204" type="line"/>
      <point x="247" y="260" type="line"/>
      <point x="44" y="66" type="line"/>
      <point x="69" y="34" type="line"/>
      <point x="295" y="204" type="line"/>
      <point x="305" y="260" type="line"/>
    </contour>
  </outline>
</glyph>
<glyph name="integral" format="2">
  <advance width="357"/>
  <unicode hex="222B"/>
  <outline>
    <contour>
      <point x="146" y="248" type="curve" smooth="yes"/>
      <point x="138" y="138"/>
      <point x="128" y="65"/>
      <point x="115" y="-7" type="curve" smooth="yes"/>
      <point x="103" y="-79"/>
      <point x="74" y="-169"/>
      <point x="-4" y="-189" type="curve"/>
      <point x="33" y="-193" type="line"/>
      <point x="18" y="-149" type="line" smooth="yes"/>
      <point x="5" y="-113"/>
      <point x="-10" y="-105"/>
      <point x="-31" y="-105" type="curve" smooth="yes"/>
      <point x="-57" y="-105"/>
      <point x="-77" y="-126"/>
      <point x="-83" y="-159" type="curve"/>
      <point x="-78" y="-197"/>
      <point x="-48" y="-221"/>
      <point x="0" y="-221" type="curve" smooth="yes"/>
      <point x="85" y="-221"/>
      <point x="180" y="-135"/>
      <point x="213" y="41" type="curve" smooth="yes"/>
      <point x="224" y="102"/>
      <point x="237" y="171"/>
      <point x="243" y="258" type="curve" smooth="yes"/>
      <point x="256" y="402"/>
      <point x="262" y="450"/>
      <point x="268" y="489" type="curve" smooth="yes"/>
      <point x="284" y="577"/>
      <point x="311" y="652"/>
      <point x="389" y="671" type="curve"/>
      <point x="350" y="675" type="line"/>
      <point x="366" y="631" type="line" smooth="yes"/>
      <point x="379" y="596"/>
      <point x="394" y="587"/>
      <point x="416" y="587" type="curve" smooth="yes"/>
      <point x="442" y="587"/>
      <point x="461" y="607"/>
      <point x="468" y="641" type="curve"/>
      <point x="462" y="679"/>
      <point x="432" y="703"/>
      <point x="385" y="703" type="curve" smooth="yes"/>
      <point x="295" y="703"/>
      <point x="202" y="614"/>
      <point x="171" y="438" type="curve" smooth="yes"/>
      <point x="165" y="411"/>
      <point x="157" y="366"/>
    </contour>
  </outline>
</glyph>
<glyph name="approxequal" format="2">
  <advance width="495"/>
  <unicode hex="2248"/>
  <outline>
    <contour>
      <point x="286" y="223" type="curve" smooth="yes"/>
      <point x="248" y="255"/>
      <point x="217" y="272"/>
      <point x="183" y="272" type="curve" smooth="yes"/>
      <point x="117" y="272"/>
      <point x="74" y="230"/>
      <point x="71" y="130" type="curve"/>
      <point x="128" y="124" type="line"/>
      <point x="134" y="185"/>
      <point x="154" y="205"/>
      <point x="178" y="205" type="curve" smooth="yes"/>
      <point x="197" y="205"/>
      <point x="213" y="195"/>
      <point x="248" y="166" type="curve" smooth="yes"/>
      <point x="286" y="135"/>
      <point x="316" y="118"/>
      <point x="351" y="118" type="curve" smooth="yes"/>
      <point x="415" y="118"/>
      <point x="460" y="160"/>
      <point x="462" y="259" type="curve"/>
      <point x="405" y="266" type="line"/>
      <point x="400" y="204"/>
      <point x="379" y="184"/>
      <point x="356" y="184" type="curve" smooth="yes"/>
      <point x="336" y="184"/>
      <point x="321" y="194"/>
    </contour>
    <contour>
      <point x="286" y="444" type="curve" smooth="yes"/>
      <point x="248" y="476"/>
      <point x="217" y="493"/>
      <point x="183" y="493" type="curve" smooth="yes"/>
      <point x="117" y="493"/>
      <point x="74" y="451"/>
      <point x="71" y="351" type="curve"/>
      <point x="128" y="345" type="line"/>
      <point x="134" y="406"/>
      <point x="154" y="425"/>
      <point x="178" y="425" type="curve" smooth="yes"/>
      <point x="197" y="425"/>
      <point x="213" y="416"/>
      <point x="248" y="387" type="curve" smooth="yes"/>
      <point x="286" y="356"/>
      <point x="316" y="339"/>
      <point x="351" y="339" type="curve" smooth="yes"/>
      <point x="415" y="339"/>
      <point x="460" y="380"/>
      <point x="462" y="480" type="curve"/>
      <point x="405" y="487" type="line"/>
      <point x="400" y="425"/>
      <point x="379" y="405"/>
      <point x="356" y="405" type="curve" smooth="yes"/>
      <point x="336" y="405"/>
      <point x="321" y="414"/>
    </contour>
  </outline>
</glyph>
<glyph name="notequal" format="2">
  <advance width="495"/>
  <unicode hex="2260"/>
  <outline>
    <contour>
      <point x="139" y="37" type="line"/>
      <point x="422" y="538" type="line"/>
      <point x="382" y="560" type="line"/>
      <point x="100" y="59" type="line"/>
    </contour>
    <contour>
      <point x="471" y="171" type="line"/>
      <point x="471" y="237" type="line"/>
      <point x="56" y="237" type="line"/>
      <point x="56" y="171" type="line"/>
    </contour>
    <contour>
      <point x="471" y="361" type="line"/>
      <point x="471" y="426" type="line"/>
      <point x="56" y="426" type="line"/>
      <point x="56" y="361" type="line"/>
    </contour>
  </outline>
</glyph>
<glyph name="uniA4D0" format="2">
  <advance width="540"/>
  <unicode hex="A4D0"/>
  <outline>
    <contour>
      <point x="271" y="231" type="curve" smooth="yes"/>
      <point x="432" y="231"/>
      <point x="537" y="312"/>
      <point x="537" y="401" type="curve" smooth="yes"/>
      <point x="537" y="476"/>
      <point x="462" y="538"/>
      <point x="306" y="538" type="curve" smooth="yes"/>
      <point x="217" y="538"/>
      <point x="161" y="517"/>
      <point x="128" y="503" type="curve" smooth="yes"/>
      <point x="100" y="491"/>
      <point x="91" y="480"/>
      <point x="91" y="463" type="curve" smooth="yes"/>
      <point x="91" y="448"/>
      <point x="94" y="432"/>
      <point x="101" y="420" type="curve" smooth="yes"/>
      <point x="109" y="407"/>
      <point x="118" y="400"/>
      <point x="128" y="400" type="curve" smooth="yes"/>
      <point x="135" y="400"/>
      <point x="147" y="405"/>
      <point x="156" y="409" type="curve" smooth="yes"/>
      <point x="177" y="419"/>
      <point x="227" y="440"/>
      <point x="305" y="440" type="curve" smooth="yes"/>
      <point x="393" y="440"/>
      <point x="411" y="414"/>
      <point x="411" y="385" type="curve" smooth="yes"/>
      <point x="411" y="354"/>
      <point x="380" y="311"/>
      <point x="304" y="311" type="curve" smooth="yes"/>
      <point x="256" y="311"/>
      <point x="225" y="312"/>
      <point x="199" y="315" type="curve"/>
      <point x="178" y="235" type="line"/>
      <point x="198" y="232"/>
      <point x="233" y="231"/>
    </contour>
    <contour>
      <point x="118" y="22" type="curve" smooth="yes"/>
      <point x="148" y="22"/>
      <point x="165" y="30"/>
      <point x="171" y="47" type="curve" smooth="yes"/>
      <point x="177" y="63"/>
      <point x="182" y="79"/>
      <point x="191" y="104" type="curve" smooth="yes"/>
      <point x="216" y="177"/>
      <point x="243" y="257"/>
      <point x="274" y="348" type="curve" smooth="yes"/>
      <point x="283" y="374"/>
      <point x="289" y="388"/>
      <point x="294" y="402" type="curve" smooth="yes"/>
      <point x="297" y="410"/>
      <point x="301" y="421"/>
      <point x="301" y="428" type="curve" smooth="yes"/>
      <point x="301" y="437"/>
      <point x="289" y="456"/>
      <point x="250" y="456" type="curve" smooth="yes"/>
      <point x="214" y="456"/>
      <point x="196" y="443"/>
      <point x="189" y="436" type="curve" smooth="yes"/>
      <point x="183" y="430"/>
      <point x="176" y="411"/>
      <point x="172" y="398" type="curve" smooth="yes"/>
      <point x="167" y="382"/>
      <point x="158" y="359"/>
      <point x="151" y="338" type="curve" smooth="yes"/>
      <point x="143" y="313"/>
      <point x="114" y="229"/>
      <point x="82" y="140" type="curve" smooth="yes"/>
      <point x="69" y="104"/>
      <point x="64" y="89"/>
      <point x="54" y="61" type="curve" smooth="yes"/>
      <point x="52" y="56"/>
      <point x="51" y="49"/>
      <point x="51" y="42" type="curve" smooth="yes"/>
      <point x="51" y="35"/>
      <point x="58" y="22"/>
    </contour>
    <contour>
      <point x="236" y="223" type="curve" smooth="yes"/>
      <point x="341" y="223"/>
      <point x="365" y="187"/>
      <point x="365" y="154" type="curve" smooth="yes"/>
      <point x="365" y="121"/>
      <point x="331" y="88"/>
      <point x="217" y="88" type="curve" smooth="yes"/>
      <point x="141" y="88"/>
      <point x="93" y="99"/>
      <point x="70" y="108" type="curve" smooth="yes"/>
      <point x="52" y="115"/>
      <point x="38" y="120"/>
      <point x="31" y="120" type="curve" smooth="yes"/>
      <point x="17" y="120"/>
      <point x="8" y="114"/>
      <point x="-1" y="102" type="curve" smooth="yes"/>
      <point x="-11" y="89"/>
      <point x="-17" y="67"/>
      <point x="-17" y="50" type="curve" smooth="yes"/>
      <point x="-17" y="33"/>
      <point x="-13" y="22"/>
      <point x="10" y="14" type="curve" smooth="yes"/>
      <point x="54" y="-1"/>
      <point x="111" y="-10"/>
      <point x="208" y="-10" type="curve" smooth="yes"/>
      <point x="371" y="-10"/>
      <point x="491" y="38"/>
      <point x="491" y="153" type="curve" smooth="yes"/>
      <point x="491" y="230"/>
      <point x="383" y="300"/>
      <point x="242" y="300" type="curve" smooth="yes"/>
      <point x="223" y="300"/>
      <point x="199" y="300"/>
      <point x="185" y="300" type="curve"/>
      <point x="163" y="222" type="line"/>
      <point x="177" y="223"/>
      <point x="194" y="223"/>
    </contour>
  </outline>
</glyph>
<glyph name="uniA4D1" format="2">
  <advance width="506"/>
  <unicode hex="A4D1"/>
  <outline>
    <contour>
      <point x="269" y="182" type="curve" smooth="yes"/>
      <point x="419" y="182"/>
      <point x="530" y="270"/>
      <point x="530" y="387" type="curve" smooth="yes"/>
      <point x="530" y="472"/>
      <point x="444" y="538"/>
      <point x="300" y="538" type="curve" smooth="yes"/>
      <point x="214" y="538"/>
      <point x="155" y="517"/>
      <point x="122" y="503" type="curve" smooth="yes"/>
      <point x="94" y="491"/>
      <point x="85" y="480"/>
      <point x="85" y="463" type="curve" smooth="yes"/>
      <point x="85" y="448"/>
      <point x="88" y="432"/>
      <point x="95" y="420" type="curve" smooth="yes"/>
      <point x="103" y="407"/>
      <point x="112" y="400"/>
      <point x="122" y="400" type="curve" smooth="yes"/>
      <point x="129" y="400"/>
      <point x="141" y="405"/>
      <point x="150" y="409" type="curve" smooth="yes"/>
      <point x="171" y="419"/>
      <point x="221" y="440"/>
      <point x="299" y="440" type="curve" smooth="yes"/>
      <point x="349" y="440"/>
      <point x="407" y="419"/>
      <point x="407" y="372" type="curve" smooth="yes"/>
      <point x="407" y="323"/>
      <point x="353" y="280"/>
      <point x="278" y="280" type="curve" smooth="yes"/>
      <point x="247" y="280"/>
      <point x="178" y="282"/>
      <point x="158" y="286" type="curve"/>
      <point x="136" y="197" type="line"/>
      <point x="166" y="188"/>
      <point x="241" y="182"/>
    </contour>
    <contour>
      <point x="268" y="348" type="curve" smooth="yes"/>
      <point x="277" y="374"/>
      <point x="283" y="388"/>
      <point x="288" y="402" type="curve" smooth="yes"/>
      <point x="291" y="410"/>
      <point x="295" y="421"/>
      <point x="295" y="428" type="curve" smooth="yes"/>
      <point x="295" y="437"/>
      <point x="283" y="456"/>
      <point x="244" y="456" type="curve" smooth="yes"/>
      <point x="208" y="456"/>
      <point x="190" y="443"/>
      <point x="183" y="436" type="curve" smooth="yes"/>
      <point x="180" y="433"/>
      <point x="171" y="412"/>
      <point x="166" y="398" type="curve" smooth="yes"/>
      <point x="160" y="381"/>
      <point x="153" y="361"/>
      <point x="145" y="338" type="curve" smooth="yes"/>
      <point x="136" y="313"/>
      <point x="105" y="229"/>
      <point x="73" y="140" type="curve" smooth="yes"/>
      <point x="60" y="104"/>
      <point x="46" y="68"/>
      <point x="42" y="56" type="curve" smooth="yes"/>
      <point x="37" y="42"/>
      <point x="34" y="31"/>
      <point x="34" y="20" type="curve" smooth="yes"/>
      <point x="34" y="6"/>
      <point x="40" y="-9"/>
      <point x="84" y="-9" type="curve" smooth="yes"/>
      <point x="129" y="-9"/>
      <point x="153" y="3"/>
      <point x="159" y="23" type="curve" smooth="yes"/>
      <point x="162" y="33"/>
      <point x="173" y="66"/>
      <point x="185" y="104" type="curve" smooth="yes"/>
      <point x="208" y="176"/>
      <point x="234" y="251"/>
    </contour>
  </outline>
</glyph>
<glyph name="uniA4D4" format="2">
  <advance width="577"/>
  <unicode hex="A4D4"/>
  <outline>
    <contour>
      <point x="97" y="456" type="curve" smooth="yes"/>
      <point x="107" y="440"/>
      <point x="123" y="424"/>
      <point x="161" y="424" type="curve" smooth="yes"/>
      <point x="201" y="424"/>
      <point x="326" y="426"/>
      <point x="385" y="426" type="curve" smooth="yes"/>
      <point x="455" y="426"/>
      <point x="583" y="425"/>
      <point x="604" y="425" type="curve" smooth="yes"/>
      <point x="620" y="425"/>
      <point x="633" y="427"/>
      <point x="639" y="431" type="curve" smooth="yes"/>
      <point x="645" y="435"/>
      <point x="651" y="444"/>
      <point x="651" y="462" type="curve" smooth="yes"/>
      <point x="651" y="478"/>
      <point x="645" y="491"/>
      <point x="633" y="507" type="curve" smooth="yes"/>
      <point x="625" y="518"/>
      <point x="617" y="525"/>
      <point x="607" y="528" type="curve" smooth="yes"/>
      <point x="597" y="531"/>
      <point x="579" y="533"/>
      <point x="555" y="533" type="curve" smooth="yes"/>
      <point x="518" y="533"/>
      <point x="434" y="532"/>
      <point x="400" y="532" type="curve" smooth="yes"/>
      <point x="320" y="532"/>
      <point x="159" y="531"/>
      <point x="132" y="531" type="curve" smooth="yes"/>
      <point x="110" y="531"/>
      <point x="99" y="529"/>
      <point x="92" y="524" type="curve" smooth="yes"/>
      <point x="86" y="520"/>
      <point x="83" y="511"/>
      <point x="83" y="498" type="curve" smooth="yes"/>
      <point x="83" y="485"/>
      <point x="86" y="474"/>
    </contour>
    <contour>
      <point x="215" y="-9" type="curve" smooth="yes"/>
      <point x="260" y="-9"/>
      <point x="284" y="3"/>
      <point x="290" y="23" type="curve" smooth="yes"/>
      <point x="293" y="33"/>
      <point x="304" y="66"/>
      <point x="316" y="104" type="curve" smooth="yes"/>
      <point x="339" y="177"/>
      <point x="369" y="270"/>
      <point x="405" y="366" type="curve" smooth="yes"/>
      <point x="421" y="409"/>
      <point x="431" y="433"/>
      <point x="441" y="457" type="curve" smooth="yes"/>
      <point x="451" y="482"/>
      <point x="454" y="492"/>
      <point x="454" y="500" type="curve" smooth="yes"/>
      <point x="454" y="517"/>
      <point x="433" y="529"/>
      <point x="393" y="529" type="curve" smooth="yes"/>
      <point x="357" y="529"/>
      <point x="340" y="523"/>
      <point x="331" y="516" type="curve" smooth="yes"/>
      <point x="323" y="510"/>
      <point x="315" y="495"/>
      <point x="310" y="480" type="curve" smooth="yes"/>
      <point x="301" y="455"/>
      <point x="296" y="436"/>
      <point x="285" y="403" type="curve" smooth="yes"/>
      <point x="255" y="313"/>
      <point x="226" y="229"/>
      <point x="194" y="140" type="curve" smooth="yes"/>
      <point x="181" y="104"/>
      <point x="167" y="68"/>
      <point x="163" y="56" type="curve" smooth="yes"/>
      <point x="158" y="42"/>
      <point x="155" y="31"/>
      <point x="155" y="20" type="curve" smooth="yes"/>
      <point x="155" y="6"/>
      <point x="171" y="-9"/>
    </contour>
  </outline>
</glyph>
<glyph name="uniA4D5" format="2">
  <advance width="542"/>
  <unicode hex="A4D5"/>
  <outline>
    <contour>
      <point x="352" y="-4" type="curve" smooth="yes"/>
      <point x="389" y="-4"/>
      <point x="402" y="-6"/>
      <point x="440" y="-6" type="curve" smooth="yes"/>
      <point x="450" y="-6"/>
      <point x="460" y="0"/>
      <point x="460" y="14" type="curve" smooth="yes"/>
      <point x="460" y="28"/>
      <point x="455" y="38"/>
      <point x="450" y="46" type="curve" smooth="yes"/>
      <point x="445" y="54"/>
      <point x="436" y="58"/>
      <point x="421" y="60" type="curve" smooth="yes"/>
      <point x="395" y="63"/>
      <point x="376" y="64"/>
      <point x="326" y="64" type="curve" smooth="yes"/>
      <point x="283" y="64"/>
      <point x="69" y="60"/>
      <point x="42" y="60" type="curve" smooth="yes"/>
      <point x="26" y="60"/>
      <point x="9" y="61"/>
      <point x="-6" y="61" type="curve" smooth="yes"/>
      <point x="-18" y="61"/>
      <point x="-28" y="60"/>
      <point x="-34" y="56" type="curve" smooth="yes"/>
      <point x="-40" y="52"/>
      <point x="-44" y="43"/>
      <point x="-44" y="37" type="curve" smooth="yes"/>
      <point x="-44" y="7"/>
      <point x="-12" y="-8"/>
      <point x="25" y="-8" type="curve" smooth="yes"/>
      <point x="87" y="-8"/>
      <point x="288" y="-4"/>
    </contour>
    <contour>
      <point x="206" y="0" type="curve" smooth="yes"/>
      <point x="235" y="0"/>
      <point x="246" y="9"/>
      <point x="251" y="26" type="curve" smooth="yes"/>
      <point x="256" y="42"/>
      <point x="265" y="75"/>
      <point x="277" y="113" type="curve" smooth="yes"/>
      <point x="300" y="186"/>
      <point x="327" y="270"/>
      <point x="363" y="366" type="curve" smooth="yes"/>
      <point x="379" y="409"/>
      <point x="401" y="459"/>
      <point x="415" y="502" type="curve" smooth="yes"/>
      <point x="417" y="508"/>
      <point x="418" y="512"/>
      <point x="418" y="516" type="curve" smooth="yes"/>
      <point x="418" y="527"/>
      <point x="402" y="538"/>
      <point x="379" y="538" type="curve" smooth="yes"/>
      <point x="361" y="538"/>
      <point x="352" y="535"/>
      <point x="347" y="528" type="curve" smooth="yes"/>
      <point x="343" y="523"/>
      <point x="340" y="514"/>
      <point x="338" y="509" type="curve" smooth="yes"/>
      <point x="325" y="476"/>
      <point x="313" y="436"/>
      <point x="302" y="403" type="curve" smooth="yes"/>
      <point x="272" y="313"/>
      <point x="246" y="238"/>
      <point x="214" y="149" type="curve" smooth="yes"/>
      <point x="201" y="113"/>
      <point x="188" y="77"/>
      <point x="175" y="39" type="curve" smooth="yes"/>
      <point x="173" y="33"/>
      <point x="170" y="27"/>
      <point x="170" y="20" type="curve" smooth="yes"/>
      <point x="170" y="12"/>
      <point x="177" y="0"/>
    </contour>
  </outline>
</glyph>
<glyph name="uniA4D6" format="2">
  <advance width="510"/>
  <unicode hex="A4D6"/>
  <outline>
    <contour>
      <point x="344" y="538" type="curve" smooth="yes"/>
      <point x="167" y="538"/>
      <point x="50" y="330"/>
      <point x="50" y="161" type="curve" smooth="yes"/>
      <point x="50" y="58"/>
      <point x="107" y="-10"/>
      <point x="218" y="-10" type="curve" smooth="yes"/>
      <point x="328" y="-10"/>
      <point x="414" y="94"/>
      <point x="432" y="161" type="curve" smooth="yes"/>
      <point x="435" y="172"/>
      <point x="436" y="179"/>
      <point x="436" y="185" type="curve" smooth="yes"/>
      <point x="436" y="208"/>
      <point x="414" y="215"/>
      <point x="390" y="215" type="curve" smooth="yes"/>
      <point x="375" y="215"/>
      <point x="369" y="211"/>
      <point x="364" y="200" type="curve" smooth="yes"/>
      <point x="361" y="193"/>
      <point x="357" y="177"/>
      <point x="351" y="160" type="curve" smooth="yes"/>
      <point x="336" y="118"/>
      <point x="286" y="63"/>
      <point x="226" y="63" type="curve" smooth="yes"/>
      <point x="164" y="63"/>
      <point x="125" y="104"/>
      <point x="125" y="172" type="curve" smooth="yes"/>
      <point x="125" y="307"/>
      <point x="224" y="465"/>
      <point x="331" y="465" type="curve" smooth="yes"/>
      <point x="389" y="465"/>
      <point x="406" y="435"/>
      <point x="420" y="407" type="curve" smooth="yes"/>
      <point x="423" y="400"/>
      <point x="429" y="396"/>
      <point x="437" y="396" type="curve" smooth="yes"/>
      <point x="452" y="396"/>
      <point x="491" y="416"/>
      <point x="491" y="432" type="curve" smooth="yes"/>
      <point x="491" y="443"/>
      <point x="475" y="472"/>
      <point x="456" y="492" type="curve" smooth="yes"/>
      <point x="435" y="514"/>
      <point x="399" y="538"/>
    </contour>
    <contour>
      <point x="496" y="204" type="curve" smooth="yes"/>
      <point x="500" y="213"/>
      <point x="500" y="223"/>
      <point x="500" y="229" type="curve" smooth="yes"/>
      <point x="500" y="241"/>
      <point x="494" y="247"/>
      <point x="489" y="248" type="curve" smooth="yes"/>
      <point x="482" y="249"/>
      <point x="474" y="250"/>
      <point x="470" y="250" type="curve" smooth="yes"/>
      <point x="444" y="250"/>
      <point x="430" y="249"/>
      <point x="387" y="249" type="curve" smooth="yes"/>
      <point x="368" y="249"/>
      <point x="348" y="250"/>
      <point x="322" y="250" type="curve" smooth="yes"/>
      <point x="317" y="250"/>
      <point x="299" y="250"/>
      <point x="293" y="247" type="curve" smooth="yes"/>
      <point x="286" y="244"/>
      <point x="281" y="237"/>
      <point x="274" y="219" type="curve" smooth="yes"/>
      <point x="272" y="214"/>
      <point x="269" y="203"/>
      <point x="269" y="198" type="curve" smooth="yes"/>
      <point x="269" y="193"/>
      <point x="270" y="189"/>
      <point x="273" y="186" type="curve" smooth="yes"/>
      <point x="278" y="181"/>
      <point x="288" y="178"/>
      <point x="303" y="178" type="curve" smooth="yes"/>
      <point x="339" y="178"/>
      <point x="372" y="181"/>
      <point x="403" y="181" type="curve" smooth="yes"/>
      <point x="420" y="181"/>
      <point x="427" y="179"/>
      <point x="457" y="179" type="curve" smooth="yes"/>
      <point x="476" y="179"/>
      <point x="486" y="182"/>
    </contour>
  </outline>
</glyph>
<glyph name="uniA4D7" format="2">
  <advance width="557"/>
  <unicode hex="A4D7"/>
  <outline>
    <contour>
      <point x="91" y="-9" type="curve" smooth="yes"/>
      <point x="136" y="-9"/>
      <point x="160" y="3"/>
      <point x="166" y="23" type="curve" smooth="yes"/>
      <point x="169" y="33"/>
      <point x="180" y="66"/>
      <point x="192" y="104" type="curve" smooth="yes"/>
      <point x="215" y="177"/>
      <point x="245" y="270"/>
      <point x="281" y="366" type="curve" smooth="yes"/>
      <point x="297" y="409"/>
      <point x="308" y="436"/>
      <point x="318" y="460" type="curve" smooth="yes"/>
      <point x="328" y="485"/>
      <point x="331" y="495"/>
      <point x="331" y="503" type="curve" smooth="yes"/>
      <point x="331" y="520"/>
      <point x="310" y="532"/>
      <point x="270" y="532" type="curve" smooth="yes"/>
      <point x="234" y="532"/>
      <point x="217" y="526"/>
      <point x="208" y="519" type="curve" smooth="yes"/>
      <point x="200" y="513"/>
      <point x="192" y="498"/>
      <point x="187" y="483" type="curve" smooth="yes"/>
      <point x="178" y="458"/>
      <point x="172" y="436"/>
      <point x="161" y="403" type="curve" smooth="yes"/>
      <point x="131" y="313"/>
      <point x="102" y="229"/>
      <point x="70" y="140" type="curve" smooth="yes"/>
      <point x="57" y="104"/>
      <point x="43" y="68"/>
      <point x="39" y="56" type="curve" smooth="yes"/>
      <point x="34" y="42"/>
      <point x="31" y="31"/>
      <point x="31" y="20" type="curve" smooth="yes"/>
      <point x="31" y="6"/>
      <point x="47" y="-9"/>
    </contour>
    <contour>
      <point x="193" y="329" type="curve" smooth="yes"/>
      <point x="153" y="322"/>
      <point x="128" y="315"/>
      <point x="117" y="311" type="curve" smooth="yes"/>
      <point x="100" y="305"/>
      <point x="63" y="291"/>
      <point x="63" y="251" type="curve" smooth="yes"/>
      <point x="63" y="214"/>
      <point x="91" y="191"/>
      <point x="120" y="191" type="curve" smooth="yes"/>
      <point x="130" y="191"/>
      <point x="153" y="193"/>
      <point x="172" y="197" type="curve" smooth="yes"/>
      <point x="364" y="239"/>
      <point x="516" y="342"/>
      <point x="587" y="458" type="curve" smooth="yes"/>
      <point x="600" y="479"/>
      <point x="606" y="493"/>
      <point x="606" y="502" type="curve" smooth="yes"/>
      <point x="606" y="511"/>
      <point x="603" y="520"/>
      <point x="592" y="526" type="curve" smooth="yes"/>
      <point x="583" y="531"/>
      <point x="566" y="532"/>
      <point x="551" y="532" type="curve" smooth="yes"/>
      <point x="508" y="532"/>
      <point x="489" y="523"/>
      <point x="483" y="519" type="curve" smooth="yes"/>
      <point x="474" y="513"/>
      <point x="464" y="504"/>
      <point x="452" y="486" type="curve" smooth="yes"/>
      <point x="401" y="409"/>
      <point x="328" y="353"/>
    </contour>
    <contour>
      <point x="353" y="284" type="curve"/>
      <point x="238" y="248" type="line"/>
      <point x="290" y="188"/>
      <point x="329" y="119"/>
      <point x="349" y="60" type="curve" smooth="yes"/>
      <point x="360" y="27"/>
      <point x="367" y="15"/>
      <point x="372" y="8" type="curve" smooth="yes"/>
      <point x="379" y="-2"/>
      <point x="397" y="-9"/>
      <point x="424" y="-9" type="curve" smooth="yes"/>
      <point x="450" y="-9"/>
      <point x="489" y="2"/>
      <point x="489" y="26" type="curve" smooth="yes"/>
      <point x="489" y="37"/>
      <point x="485" y="54"/>
      <point x="480" y="68" type="curve" smooth="yes"/>
      <point x="458" y="131"/>
      <point x="404" y="228"/>
    </contour>
  </outline>
</glyph>
<glyph name="uniA4D8" format="2">
  <advance width="577"/>
  <unicode hex="A4D8"/>
  <outline>
    <contour>
      <point x="325" y="225" type="curve" smooth="yes"/>
      <point x="342" y="213"/>
      <point x="356" y="205"/>
      <point x="374" y="195" type="curve" smooth="yes"/>
      <point x="384" y="189"/>
      <point x="426" y="176"/>
      <point x="449" y="176" type="curve" smooth="yes"/>
      <point x="470" y="176"/>
      <point x="504" y="195"/>
      <point x="504" y="234" type="curve" smooth="yes"/>
      <point x="504" y="269"/>
      <point x="479" y="283"/>
      <point x="458" y="293" type="curve" smooth="yes"/>
      <point x="432" y="306"/>
      <point x="415" y="312"/>
      <point x="401" y="320" type="curve" smooth="yes"/>
      <point x="323" y="367"/>
      <point x="294" y="415"/>
      <point x="270" y="468" type="curve" smooth="yes"/>
      <point x="257" y="497"/>
      <point x="255" y="506"/>
      <point x="251" y="511" type="curve" smooth="yes"/>
      <point x="246" y="518"/>
      <point x="235" y="532"/>
      <point x="190" y="532" type="curve" smooth="yes"/>
      <point x="136" y="532"/>
      <point x="123" y="515"/>
      <point x="123" y="489" type="curve" smooth="yes"/>
      <point x="123" y="431"/>
      <point x="221" y="299"/>
    </contour>
    <contour>
      <point x="350" y="250" type="curve"/>
      <point x="265" y="315" type="line"/>
      <point x="154" y="259"/>
      <point x="74" y="170"/>
      <point x="32" y="114" type="curve" smooth="yes"/>
      <point x="-8" y="60"/>
      <point x="-20" y="32"/>
      <point x="-20" y="21" type="curve" smooth="yes"/>
      <point x="-20" y="7"/>
      <point x="-5" y="-9"/>
      <point x="40" y="-9" type="curve" smooth="yes"/>
      <point x="87" y="-9"/>
      <point x="111" y="2"/>
      <point x="119" y="13" type="curve" smooth="yes"/>
      <point x="126" y="22"/>
      <point x="135" y="36"/>
      <point x="149" y="60" type="curve" smooth="yes"/>
      <point x="190" y="128"/>
      <point x="250" y="192"/>
    </contour>
    <contour>
      <point x="326" y="-9" type="curve" smooth="yes"/>
      <point x="371" y="-9"/>
      <point x="395" y="3"/>
      <point x="401" y="23" type="curve" smooth="yes"/>
      <point x="404" y="33"/>
      <point x="415" y="66"/>
      <point x="427" y="104" type="curve" smooth="yes"/>
      <point x="450" y="177"/>
      <point x="480" y="270"/>
      <point x="516" y="366" type="curve" smooth="yes"/>
      <point x="532" y="409"/>
      <point x="543" y="436"/>
      <point x="553" y="460" type="curve" smooth="yes"/>
      <point x="563" y="485"/>
      <point x="566" y="495"/>
      <point x="566" y="503" type="curve" smooth="yes"/>
      <point x="566" y="520"/>
      <point x="545" y="532"/>
      <point x="505" y="532" type="curve" smooth="yes"/>
      <point x="469" y="532"/>
      <point x="452" y="526"/>
      <point x="443" y="519" type="curve" smooth="yes"/>
      <point x="435" y="513"/>
      <point x="427" y="498"/>
      <point x="422" y="483" type="curve" smooth="yes"/>
      <point x="413" y="458"/>
      <point x="407" y="436"/>
      <point x="396" y="403" type="curve" smooth="yes"/>
      <point x="366" y="313"/>
      <point x="337" y="229"/>
      <point x="305" y="140" type="curve" smooth="yes"/>
      <point x="292" y="104"/>
      <point x="278" y="68"/>
      <point x="274" y="56" type="curve" smooth="yes"/>
      <point x="269" y="42"/>
      <point x="266" y="31"/>
      <point x="266" y="20" type="curve" smooth="yes"/>
      <point x="266" y="6"/>
      <point x="282" y="-9"/>
    </contour>
  </outline>
</glyph>
<glyph name="uniA4D9" format="2">
  <advance width="470"/>
  <unicode hex="A4D9"/>
  <outline>
    <contour>
      <point x="417" y="287" type="curve" smooth="yes"/>
      <point x="462" y="412"/>
      <point x="473" y="443"/>
      <point x="478" y="458" type="curve" smooth="yes"/>
      <point x="485" y="478"/>
      <point x="488" y="492"/>
      <point x="488" y="502" type="curve" smooth="yes"/>
      <point x="488" y="520"/>
      <point x="466" y="532"/>
      <point x="428" y="532" type="curve" smooth="yes"/>
      <point x="384" y="532"/>
      <point x="362" y="517"/>
      <point x="353" y="492" type="curve" smooth="yes"/>
      <point x="347" y="475"/>
      <point x="342" y="453"/>
      <point x="330" y="415" type="curve" smooth="yes"/>
      <point x="301" y="323"/>
      <point x="274" y="246"/>
      <point x="244" y="176" type="curve" smooth="yes"/>
      <point x="221" y="125"/>
      <point x="198" y="104"/>
      <point x="163" y="104" type="curve" smooth="yes"/>
      <point x="140" y="104"/>
      <point x="122" y="115"/>
      <point x="112" y="136" type="curve" smooth="yes"/>
      <point x="104" y="153"/>
      <point x="108" y="163"/>
      <point x="100" y="172" type="curve" smooth="yes"/>
      <point x="92" y="181"/>
      <point x="81" y="184"/>
      <point x="61" y="184" type="curve" smooth="yes"/>
      <point x="28" y="184"/>
      <point x="-11" y="168"/>
      <point x="-11" y="135" type="curve" smooth="yes"/>
      <point x="-11" y="124"/>
      <point x="-6" y="105"/>
      <point x="2" y="85" type="curve" smooth="yes"/>
      <point x="22" y="34"/>
      <point x="78" y="-10"/>
      <point x="154" y="-10" type="curve" smooth="yes"/>
      <point x="231" y="-10"/>
      <point x="293" y="21"/>
      <point x="326" y="73" type="curve" smooth="yes"/>
      <point x="356" y="120"/>
      <point x="382" y="190"/>
    </contour>
  </outline>
</glyph>
<glyph name="uniA4DA" format="2">
  <advance width="479"/>
  <unicode hex="A4DA"/>
  <outline>
    <contour>
      <point x="50" y="161" type="curve" smooth="yes"/>
      <point x="50" y="61"/>
      <point x="124" y="-10"/>
      <point x="231" y="-10" type="curve" smooth="yes"/>
      <point x="308" y="-10"/>
      <point x="365" y="38"/>
      <point x="386" y="62" type="curve" smooth="yes"/>
      <point x="397" y="75"/>
      <point x="401" y="82"/>
      <point x="401" y="92" type="curve" smooth="yes"/>
      <point x="401" y="112"/>
      <point x="367" y="127"/>
      <point x="356" y="127" type="curve" smooth="yes"/>
      <point x="345" y="127"/>
      <point x="340" y="124"/>
      <point x="334" y="117" type="curve" smooth="yes"/>
      <point x="329" y="111"/>
      <point x="320" y="102"/>
      <point x="305" y="90" type="curve" smooth="yes"/>
      <point x="291" y="79"/>
      <point x="258" y="63"/>
      <point x="224" y="63" type="curve" smooth="yes"/>
      <point x="158" y="63"/>
      <point x="125" y="105"/>
      <point x="125" y="172" type="curve" smooth="yes"/>
      <point x="125" y="308"/>
      <point x="224" y="465"/>
      <point x="332" y="465" type="curve" smooth="yes"/>
      <point x="385" y="465"/>
      <point x="403" y="431"/>
      <point x="412" y="404" type="curve" smooth="yes"/>
      <point x="417" y="390"/>
      <point x="422" y="386"/>
      <point x="430" y="386" type="curve" smooth="yes"/>
      <point x="445" y="386"/>
      <point x="485" y="406"/>
      <point x="485" y="422" type="curve" smooth="yes"/>
      <point x="485" y="439"/>
      <point x="470" y="464"/>
      <point x="460" y="479" type="curve" smooth="yes"/>
      <point x="433" y="517"/>
      <point x="391" y="538"/>
      <point x="343" y="538" type="curve" smooth="yes"/>
      <point x="163" y="538"/>
      <point x="50" y="330"/>
    </contour>
  </outline>
</glyph>
<glyph name="uniA4DB" format="2">
  <advance width="470"/>
  <unicode hex="A4DB"/>
  <outline>
    <contour>
      <point x="456" y="368" type="curve" smooth="yes"/>
      <point x="456" y="482"/>
      <point x="385" y="538"/>
      <point x="293" y="538" type="curve" smooth="yes"/>
      <point x="231" y="538"/>
      <point x="184" y="512"/>
      <point x="157" y="488" type="curve" smooth="yes"/>
      <point x="135" y="468"/>
      <point x="125" y="457"/>
      <point x="125" y="448" type="curve" smooth="yes"/>
      <point x="125" y="431"/>
      <point x="152" y="404"/>
      <point x="164" y="404" type="curve" smooth="yes"/>
      <point x="173" y="404"/>
      <point x="187" y="415"/>
      <point x="204" y="430" type="curve" smooth="yes"/>
      <point x="219" y="443"/>
      <point x="251" y="465"/>
      <point x="287" y="465" type="curve" smooth="yes"/>
      <point x="341" y="465"/>
      <point x="381" y="433"/>
      <point x="381" y="357" type="curve" smooth="yes"/>
      <point x="381" y="225"/>
      <point x="281" y="63"/>
      <point x="174" y="63" type="curve" smooth="yes"/>
      <point x="135" y="63"/>
      <point x="107" y="95"/>
      <point x="91" y="128" type="curve" smooth="yes"/>
      <point x="82" y="147"/>
      <point x="72" y="164"/>
      <point x="61" y="164" type="curve" smooth="yes"/>
      <point x="50" y="164"/>
      <point x="13" y="147"/>
      <point x="13" y="126" type="curve" smooth="yes"/>
      <point x="13" y="96"/>
      <point x="38" y="58"/>
      <point x="63" y="33" type="curve" smooth="yes"/>
      <point x="85" y="11"/>
      <point x="128" y="-10"/>
      <point x="165" y="-10" type="curve" smooth="yes"/>
      <point x="339" y="-10"/>
      <point x="456" y="200"/>
    </contour>
  </outline>
</glyph>
<glyph name="uniA4DC" format="2">
  <advance width="572"/>
  <unicode hex="A4DC"/>
  <outline>
    <contour>
      <point x="130" y="448" type="curve" smooth="yes"/>
      <point x="137" y="440"/>
      <point x="152" y="427"/>
      <point x="176" y="427" type="curve" smooth="yes"/>
      <point x="193" y="427"/>
      <point x="237" y="426"/>
      <point x="276" y="426" type="curve" smooth="yes"/>
      <point x="305" y="426"/>
      <point x="334" y="426"/>
      <point x="367" y="426" type="curve" smooth="yes"/>
      <point x="412" y="426"/>
      <point x="470" y="424"/>
      <point x="515" y="424" type="curve" smooth="yes"/>
      <point x="521" y="424"/>
      <point x="546" y="425"/>
      <point x="553" y="429" type="curve" smooth="yes"/>
      <point x="565" y="436"/>
      <point x="572" y="444"/>
      <point x="572" y="480" type="curve" smooth="yes"/>
      <point x="572" y="485"/>
      <point x="570" y="492"/>
      <point x="568" y="499" type="curve" smooth="yes"/>
      <point x="563" y="517"/>
      <point x="553" y="526"/>
      <point x="545" y="529" type="curve" smooth="yes"/>
      <point x="538" y="532"/>
      <point x="521" y="533"/>
      <point x="486" y="533" type="curve" smooth="yes"/>
      <point x="467" y="533"/>
      <point x="379" y="532"/>
      <point x="331" y="532" type="curve" smooth="yes"/>
      <point x="273" y="532"/>
      <point x="183" y="533"/>
      <point x="153" y="533" type="curve" smooth="yes"/>
      <point x="137" y="533"/>
      <point x="125" y="530"/>
      <point x="120" y="526" type="curve" smooth="yes"/>
      <point x="115" y="522"/>
      <point x="110" y="513"/>
      <point x="110" y="501" type="curve" smooth="yes"/>
      <point x="110" y="480"/>
      <point x="121" y="458"/>
    </contour>
    <contour>
      <point x="24" y="21" type="curve" smooth="yes"/>
      <point x="36" y="2"/>
      <point x="51" y="-7"/>
      <point x="89" y="-7" type="curve" smooth="yes"/>
      <point x="107" y="-7"/>
      <point x="130" y="-6"/>
      <point x="160" y="-6" type="curve" smooth="yes"/>
      <point x="189" y="-6"/>
      <point x="237" y="-5"/>
      <point x="270" y="-5" type="curve" smooth="yes"/>
      <point x="316" y="-5"/>
      <point x="383" y="-7"/>
      <point x="429" y="-7" type="curve" smooth="yes"/>
      <point x="455" y="-7"/>
      <point x="482" y="-4"/>
      <point x="489" y="0" type="curve" smooth="yes"/>
      <point x="496" y="4"/>
      <point x="503" y="14"/>
      <point x="503" y="26" type="curve" smooth="yes"/>
      <point x="503" y="56"/>
      <point x="497" y="68"/>
      <point x="489" y="79" type="curve" smooth="yes"/>
      <point x="481" y="90"/>
      <point x="474" y="95"/>
      <point x="467" y="98" type="curve" smooth="yes"/>
      <point x="460" y="101"/>
      <point x="435" y="102"/>
      <point x="420" y="102" type="curve" smooth="yes"/>
      <point x="384" y="102"/>
      <point x="320" y="102"/>
      <point x="286" y="102" type="curve" smooth="yes"/>
      <point x="240" y="102"/>
      <point x="209" y="101"/>
      <point x="173" y="101" type="curve" smooth="yes"/>
      <point x="135" y="101"/>
      <point x="126" y="101"/>
      <point x="86" y="101" type="curve" smooth="yes"/>
      <point x="70" y="101"/>
      <point x="35" y="97"/>
      <point x="28" y="93" type="curve" smooth="yes"/>
      <point x="22" y="90"/>
      <point x="11" y="83"/>
      <point x="11" y="71" type="curve" smooth="yes"/>
      <point x="11" y="56"/>
      <point x="15" y="35"/>
    </contour>
    <contour>
      <point x="71" y="5" type="curve" smooth="yes"/>
      <point x="98" y="5"/>
      <point x="108" y="11"/>
      <point x="116" y="17" type="curve" smooth="yes"/>
      <point x="199" y="79"/>
      <point x="518" y="391"/>
      <point x="550" y="423" type="curve" smooth="yes"/>
      <point x="567" y="440"/>
      <point x="571" y="471"/>
      <point x="571" y="478" type="curve" smooth="yes"/>
      <point x="571" y="484"/>
      <point x="570" y="489"/>
      <point x="564" y="498" type="curve" smooth="yes"/>
      <point x="559" y="505"/>
      <point x="517" y="514"/>
      <point x="500" y="514" type="curve" smooth="yes"/>
      <point x="484" y="514"/>
      <point x="460" y="501"/>
      <point x="447" y="487" type="curve" smooth="yes"/>
      <point x="434" y="473"/>
      <point x="93" y="143"/>
      <point x="19" y="87" type="curve" smooth="yes"/>
      <point x="14" y="83"/>
      <point x="12" y="76"/>
      <point x="12" y="69" type="curve" smooth="yes"/>
      <point x="12" y="63"/>
      <point x="13" y="57"/>
      <point x="14" y="54" type="curve" smooth="yes"/>
      <point x="17" y="44"/>
      <point x="24" y="31"/>
      <point x="33" y="22" type="curve" smooth="yes"/>
      <point x="42" y="13"/>
      <point x="56" y="5"/>
    </contour>
  </outline>
</glyph>
<glyph name="uniA4DD" format="2">
  <advance width="500"/>
  <unicode hex="A4DD"/>
  <outline>
    <contour>
      <point x="97" y="-9" type="curve" smooth="yes"/>
      <point x="139" y="-9"/>
      <point x="166" y="3"/>
      <point x="172" y="23" type="curve" smooth="yes"/>
      <point x="178" y="42"/>
      <point x="187" y="75"/>
      <point x="196" y="104" type="curve" smooth="yes"/>
      <point x="219" y="177"/>
      <point x="248" y="266"/>
      <point x="283" y="362" type="curve" smooth="yes"/>
      <point x="299" y="405"/>
      <point x="316" y="450"/>
      <point x="332" y="493" type="curve" smooth="yes"/>
      <point x="334" y="499"/>
      <point x="334" y="502"/>
      <point x="334" y="506" type="curve" smooth="yes"/>
      <point x="334" y="517"/>
      <point x="294" y="528"/>
      <point x="268" y="528" type="curve" smooth="yes"/>
      <point x="247" y="528"/>
      <point x="210" y="525"/>
      <point x="205" y="518" type="curve" smooth="yes"/>
      <point x="201" y="513"/>
      <point x="197" y="505"/>
      <point x="195" y="500" type="curve" smooth="yes"/>
      <point x="183" y="467"/>
      <point x="175" y="432"/>
      <point x="164" y="399" type="curve" smooth="yes"/>
      <point x="134" y="309"/>
      <point x="107" y="228"/>
      <point x="75" y="140" type="curve" smooth="yes"/>
      <point x="68" y="122"/>
      <point x="54" y="86"/>
      <point x="44" y="58" type="curve" smooth="yes"/>
      <point x="38" y="42"/>
      <point x="35" y="31"/>
      <point x="35" y="20" type="curve" smooth="yes"/>
      <point x="35" y="6"/>
      <point x="49" y="-9"/>
    </contour>
    <contour>
      <point x="458" y="281" type="curve" smooth="yes"/>
      <point x="447" y="290"/>
      <point x="432" y="297"/>
      <point x="402" y="297" type="curve" smooth="yes"/>
      <point x="365" y="297"/>
      <point x="305" y="296"/>
      <point x="271" y="296" type="curve" smooth="yes"/>
      <point x="226" y="296"/>
      <point x="164" y="298"/>
      <point x="121" y="298" type="curve" smooth="yes"/>
      <point x="88" y="298"/>
      <point x="72" y="285"/>
      <point x="72" y="258" type="curve" smooth="yes"/>
      <point x="72" y="245"/>
      <point x="76" y="229"/>
      <point x="88" y="216" type="curve" smooth="yes"/>
      <point x="103" y="200"/>
      <point x="121" y="192"/>
      <point x="146" y="192" type="curve" smooth="yes"/>
      <point x="182" y="192"/>
      <point x="221" y="194"/>
      <point x="256" y="194" type="curve" smooth="yes"/>
      <point x="313" y="194"/>
      <point x="374" y="193"/>
      <point x="394" y="193" type="curve" smooth="yes"/>
      <point x="426" y="193"/>
      <point x="442" y="196"/>
      <point x="454" y="206" type="curve" smooth="yes"/>
      <point x="463" y="214"/>
      <point x="473" y="227"/>
      <point x="473" y="245" type="curve" smooth="yes"/>
      <point x="473" y="259"/>
      <point x="467" y="274"/>
    </contour>
    <contour>
      <point x="245" y="529" type="curve" smooth="yes"/>
      <point x="208" y="529"/>
      <point x="175" y="531"/>
      <point x="147" y="531" type="curve" smooth="yes"/>
      <point x="122" y="531"/>
      <point x="107" y="513"/>
      <point x="107" y="496" type="curve" smooth="yes"/>
      <point x="107" y="480"/>
      <point x="111" y="466"/>
      <point x="119" y="452" type="curve" smooth="yes"/>
      <point x="126" y="440"/>
      <point x="137" y="430"/>
      <point x="156" y="427" type="curve" smooth="yes"/>
      <point x="182" y="423"/>
      <point x="221" y="423"/>
      <point x="261" y="423" type="curve" smooth="yes"/>
      <point x="304" y="423"/>
      <point x="418" y="424"/>
      <point x="445" y="424" type="curve" smooth="yes"/>
      <point x="461" y="424"/>
      <point x="488" y="423"/>
      <point x="503" y="423" type="curve" smooth="yes"/>
      <point x="516" y="423"/>
      <point x="533" y="425"/>
      <point x="544" y="434" type="curve" smooth="yes"/>
      <point x="554" y="442"/>
      <point x="561" y="450"/>
      <point x="561" y="467" type="curve" smooth="yes"/>
      <point x="561" y="518"/>
      <point x="509" y="532"/>
      <point x="462" y="532" type="curve" smooth="yes"/>
      <point x="400" y="532"/>
      <point x="309" y="529"/>
    </contour>
  </outline>
</glyph>
<glyph name="uniA4DE" format="2">
  <advance width="523"/>
  <unicode hex="A4DE"/>
  <outline>
    <contour>
      <point x="282" y="-5" type="curve" smooth="yes"/>
      <point x="314" y="-5"/>
      <point x="355" y="5"/>
      <point x="360" y="22" type="curve" smooth="yes"/>
      <point x="365" y="38"/>
      <point x="373" y="66"/>
      <point x="385" y="104" type="curve" smooth="yes"/>
      <point x="408" y="177"/>
      <point x="438" y="270"/>
      <point x="474" y="366" type="curve" smooth="yes"/>
      <point x="490" y="409"/>
      <point x="501" y="436"/>
      <point x="511" y="460" type="curve" smooth="yes"/>
      <point x="521" y="485"/>
      <point x="524" y="495"/>
      <point x="524" y="503" type="curve" smooth="yes"/>
      <point x="524" y="520"/>
      <point x="501" y="532"/>
      <point x="460" y="532" type="curve" smooth="yes"/>
      <point x="431" y="532"/>
      <point x="410" y="526"/>
      <point x="401" y="519" type="curve" smooth="yes"/>
      <point x="393" y="513"/>
      <point x="385" y="498"/>
      <point x="380" y="483" type="curve" smooth="yes"/>
      <point x="371" y="458"/>
      <point x="365" y="436"/>
      <point x="354" y="403" type="curve" smooth="yes"/>
      <point x="324" y="313"/>
      <point x="295" y="229"/>
      <point x="263" y="140" type="curve" smooth="yes"/>
      <point x="250" y="104"/>
      <point x="237" y="73"/>
      <point x="224" y="35" type="curve" smooth="yes"/>
      <point x="222" y="29"/>
      <point x="220" y="23"/>
      <point x="220" y="16" type="curve" smooth="yes"/>
      <point x="220" y="8"/>
      <point x="250" y="-5"/>
    </contour>
    <contour>
      <point x="93" y="253" type="curve" smooth="yes"/>
      <point x="102" y="244"/>
      <point x="117" y="233"/>
      <point x="152" y="233" type="curve" smooth="yes"/>
      <point x="179" y="233"/>
      <point x="239" y="232"/>
      <point x="273" y="232" type="curve" smooth="yes"/>
      <point x="318" y="232"/>
      <point x="365" y="230"/>
      <point x="408" y="230" type="curve" smooth="yes"/>
      <point x="452" y="230"/>
      <point x="484" y="255"/>
      <point x="484" y="285" type="curve" smooth="yes"/>
      <point x="484" y="308"/>
      <point x="474" y="317"/>
      <point x="468" y="322" type="curve" smooth="yes"/>
      <point x="456" y="331"/>
      <point x="443" y="336"/>
      <point x="428" y="336" type="curve" smooth="yes"/>
      <point x="392" y="336"/>
      <point x="323" y="335"/>
      <point x="288" y="335" type="curve" smooth="yes"/>
      <point x="231" y="335"/>
      <point x="170" y="336"/>
      <point x="150" y="336" type="curve" smooth="yes"/>
      <point x="118" y="336"/>
      <point x="104" y="326"/>
      <point x="95" y="316" type="curve" smooth="yes"/>
      <point x="88" y="309"/>
      <point x="81" y="295"/>
      <point x="81" y="282" type="curve" smooth="yes"/>
      <point x="81" y="274"/>
      <point x="85" y="261"/>
    </contour>
    <contour>
      <point x="79" y="99" type="curve" smooth="yes"/>
      <point x="42" y="99"/>
      <point x="39" y="101"/>
      <point x="21" y="101" type="curve" smooth="yes"/>
      <point x="-19" y="101"/>
      <point x="-29" y="67"/>
      <point x="-29" y="50" type="curve" smooth="yes"/>
      <point x="-29" y="37"/>
      <point x="-20" y="22"/>
      <point x="-9" y="13" type="curve" smooth="yes"/>
      <point x="8" y="-2"/>
      <point x="47" y="-9"/>
      <point x="87" y="-9" type="curve" smooth="yes"/>
      <point x="130" y="-9"/>
      <point x="297" y="-6"/>
      <point x="313" y="-6" type="curve" smooth="yes"/>
      <point x="330" y="-6"/>
      <point x="367" y="-7"/>
      <point x="382" y="-7" type="curve" smooth="yes"/>
      <point x="404" y="-7"/>
      <point x="413" y="-2"/>
      <point x="418" y="3" type="curve" smooth="yes"/>
      <point x="426" y="11"/>
      <point x="430" y="21"/>
      <point x="430" y="37" type="curve" smooth="yes"/>
      <point x="430" y="67"/>
      <point x="398" y="100"/>
      <point x="361" y="100" type="curve" smooth="yes"/>
      <point x="299" y="100"/>
      <point x="133" y="99"/>
    </contour>
  </outline>
</glyph>
<glyph name="uniA4DF" format="2">
  <advance width="661"/>
  <unicode hex="A4DF"/>
  <guideline x="577" y="345" angle="0"/>
  <outline>
    <contour>
      <point x="356" y="183" type="curve" smooth="yes"/>
      <point x="356" y="193"/>
      <point x="355" y="212"/>
      <point x="353" y="222" type="curve" smooth="yes"/>
      <point x="332" y="327"/>
      <point x="313" y="376"/>
      <point x="302" y="433" type="curve" smooth="yes"/>
      <point x="298" y="452"/>
      <point x="291" y="496"/>
      <point x="290" y="503" type="curve" smooth="yes"/>
      <point x="288" y="516"/>
      <point x="256" y="529"/>
      <point x="235" y="529" type="curve" smooth="yes"/>
      <point x="222" y="529"/>
      <point x="219" y="528"/>
      <point x="213" y="524" type="curve" smooth="yes"/>
      <point x="209" y="521"/>
      <point x="197" y="511"/>
      <point x="197" y="500" type="curve" smooth="yes"/>
      <point x="197" y="488"/>
      <point x="200" y="473"/>
      <point x="203" y="458" type="curve" smooth="yes"/>
      <point x="212" y="413"/>
      <point x="245" y="278"/>
      <point x="264" y="179" type="curve" smooth="yes"/>
      <point x="267" y="163"/>
      <point x="288" y="160"/>
      <point x="309" y="160" type="curve" smooth="yes"/>
      <point x="322" y="160"/>
      <point x="339" y="163"/>
      <point x="345" y="167" type="curve" smooth="yes"/>
      <point x="349" y="170"/>
      <point x="356" y="176"/>
    </contour>
    <contour>
      <point x="554" y="500" type="curve" smooth="yes"/>
      <point x="507" y="446"/>
      <point x="370" y="332"/>
      <point x="284" y="230" type="curve" smooth="yes"/>
      <point x="275" y="219"/>
      <point x="269" y="207"/>
      <point x="268" y="203" type="curve" smooth="yes"/>
      <point x="267" y="199"/>
      <point x="266" y="192"/>
      <point x="266" y="187" type="curve" smooth="yes"/>
      <point x="266" y="183"/>
      <point x="277" y="170"/>
      <point x="279" y="168" type="curve" smooth="yes"/>
      <point x="285" y="163"/>
      <point x="295" y="160"/>
      <point x="316" y="160" type="curve" smooth="yes"/>
      <point x="334" y="160"/>
      <point x="347" y="161"/>
      <point x="359" y="173" type="curve" smooth="yes"/>
      <point x="363" y="177"/>
      <point x="368" y="182"/>
      <point x="372" y="187" type="curve" smooth="yes"/>
      <point x="439" y="271"/>
      <point x="608" y="408"/>
      <point x="646" y="491" type="curve" smooth="yes"/>
      <point x="652" y="504"/>
      <point x="654" y="511"/>
      <point x="654" y="517" type="curve" smooth="yes"/>
      <point x="654" y="523"/>
      <point x="629" y="531"/>
      <point x="617" y="531" type="curve" smooth="yes"/>
      <point x="593" y="531"/>
      <point x="577" y="523"/>
      <point x="574" y="521" type="curve" smooth="yes"/>
      <point x="569" y="517"/>
      <point x="561" y="508"/>
    </contour>
    <contour>
      <point x="49" y="-9" type="curve" smooth="yes"/>
      <point x="91" y="-9"/>
      <point x="113" y="0"/>
      <point x="120" y="23" type="curve" smooth="yes"/>
      <point x="123" y="33"/>
      <point x="134" y="66"/>
      <point x="146" y="104" type="curve" smooth="yes"/>
      <point x="169" y="178"/>
      <point x="202" y="270"/>
      <point x="239" y="366" type="curve" smooth="yes"/>
      <point x="256" y="409"/>
      <point x="264" y="420"/>
      <point x="280" y="463" type="curve" smooth="yes"/>
      <point x="281" y="466"/>
      <point x="290" y="500"/>
      <point x="290" y="503" type="curve" smooth="yes"/>
      <point x="290" y="514"/>
      <point x="270" y="534"/>
      <point x="234" y="534" type="curve" smooth="yes"/>
      <point x="203" y="534"/>
      <point x="187" y="531"/>
      <point x="177" y="525" type="curve" smooth="yes"/>
      <point x="167" y="519"/>
      <point x="162" y="514"/>
      <point x="150" y="483" type="curve" smooth="yes"/>
      <point x="137" y="450"/>
      <point x="133" y="436"/>
      <point x="121" y="403" type="curve" smooth="yes"/>
      <point x="87" y="313"/>
      <point x="56" y="229"/>
      <point x="22" y="140" type="curve" smooth="yes"/>
      <point x="8" y="104"/>
      <point x="-5" y="68"/>
      <point x="-9" y="56" type="curve" smooth="yes"/>
      <point x="-14" y="42"/>
      <point x="-17" y="31"/>
      <point x="-17" y="20" type="curve" smooth="yes"/>
      <point x="-17" y="6"/>
      <point x="17" y="-9"/>
    </contour>
    <contour>
      <point x="466" y="-9" type="curve" smooth="yes"/>
      <point x="511" y="-9"/>
      <point x="545" y="3"/>
      <point x="553" y="29" type="curve" smooth="yes"/>
      <point x="558" y="45"/>
      <point x="564" y="66"/>
      <point x="576" y="104" type="curve" smooth="yes"/>
      <point x="599" y="177"/>
      <point x="628" y="271"/>
      <point x="658" y="366" type="curve" smooth="yes"/>
      <point x="672" y="409"/>
      <point x="680" y="425"/>
      <point x="694" y="468" type="curve" smooth="yes"/>
      <point x="696" y="474"/>
      <point x="703" y="496"/>
      <point x="703" y="499" type="curve" smooth="yes"/>
      <point x="703" y="520"/>
      <point x="668" y="534"/>
      <point x="631" y="534" type="curve" smooth="yes"/>
      <point x="597" y="534"/>
      <point x="582" y="529"/>
      <point x="574" y="521" type="curve" smooth="yes"/>
      <point x="567" y="514"/>
      <point x="563" y="503"/>
      <point x="562" y="498" type="curve" smooth="yes"/>
      <point x="553" y="465"/>
      <point x="550" y="435"/>
      <point x="540" y="403" type="curve" smooth="yes"/>
      <point x="512" y="313"/>
      <point x="485" y="229"/>
      <point x="453" y="140" type="curve" smooth="yes"/>
      <point x="440" y="104"/>
      <point x="426" y="68"/>
      <point x="421" y="54" type="curve" smooth="yes"/>
      <point x="417" y="42"/>
      <point x="411" y="23"/>
      <point x="411" y="16" type="curve" smooth="yes"/>
      <point x="411" y="3"/>
      <point x="427" y="-9"/>
    </contour>
  </outline>
</glyph>
<glyph name="uniA4E0" format="2">
  <advance width="601"/>
  <unicode hex="A4E0"/>
  <outline>
    <contour>
      <point x="58" y="-9" type="curve" smooth="yes"/>
      <point x="113" y="-9"/>
      <point x="127" y="13"/>
      <point x="133" y="30" type="curve" smooth="yes"/>
      <point x="139" y="46"/>
      <point x="145" y="66"/>
      <point x="158" y="104" type="curve" smooth="yes"/>
      <point x="183" y="176"/>
      <point x="211" y="270"/>
      <point x="247" y="366" type="curve" smooth="yes"/>
      <point x="263" y="409"/>
      <point x="270" y="422"/>
      <point x="286" y="465" type="curve" smooth="yes"/>
      <point x="288" y="471"/>
      <point x="299" y="490"/>
      <point x="299" y="503" type="curve" smooth="yes"/>
      <point x="299" y="517"/>
      <point x="291" y="534"/>
      <point x="235" y="534" type="curve" smooth="yes"/>
      <point x="184" y="534"/>
      <point x="172" y="523"/>
      <point x="167" y="517" type="curve" smooth="yes"/>
      <point x="163" y="512"/>
      <point x="155" y="493"/>
      <point x="152" y="483" type="curve" smooth="yes"/>
      <point x="141" y="450"/>
      <point x="138" y="436"/>
      <point x="127" y="403" type="curve" smooth="yes"/>
      <point x="97" y="313"/>
      <point x="68" y="229"/>
      <point x="36" y="140" type="curve" smooth="yes"/>
      <point x="23" y="104"/>
      <point x="15" y="86"/>
      <point x="1" y="49" type="curve" smooth="yes"/>
      <point x="-1" y="43"/>
      <point x="-6" y="28"/>
      <point x="-6" y="21" type="curve" smooth="yes"/>
      <point x="-6" y="3"/>
      <point x="7" y="-9"/>
    </contour>
    <contour>
      <point x="394" y="-9" type="curve" smooth="yes"/>
      <point x="445" y="-9"/>
      <point x="468" y="6"/>
      <point x="475" y="32" type="curve" smooth="yes"/>
      <point x="479" y="47"/>
      <point x="493" y="91"/>
      <point x="506" y="129" type="curve" smooth="yes"/>
      <point x="532" y="202"/>
      <point x="558" y="284"/>
      <point x="590" y="365" type="curve" smooth="yes"/>
      <point x="613" y="422"/>
      <point x="616" y="434"/>
      <point x="625" y="457" type="curve" smooth="yes"/>
      <point x="635" y="483"/>
      <point x="639" y="495"/>
      <point x="639" y="503" type="curve" smooth="yes"/>
      <point x="639" y="514"/>
      <point x="627" y="532"/>
      <point x="572" y="532" type="curve" smooth="yes"/>
      <point x="526" y="532"/>
      <point x="515" y="518"/>
      <point x="510" y="511" type="curve" smooth="yes"/>
      <point x="506" y="506"/>
      <point x="499" y="488"/>
      <point x="496" y="479" type="curve" smooth="yes"/>
      <point x="485" y="446"/>
      <point x="482" y="436"/>
      <point x="471" y="403" type="curve" smooth="yes"/>
      <point x="441" y="313"/>
      <point x="411" y="229"/>
      <point x="376" y="140" type="curve" smooth="yes"/>
      <point x="362" y="104"/>
      <point x="357" y="91"/>
      <point x="344" y="53" type="curve" smooth="yes"/>
      <point x="342" y="47"/>
      <point x="336" y="29"/>
      <point x="336" y="21" type="curve" smooth="yes"/>
      <point x="336" y="5"/>
      <point x="346" y="-9"/>
    </contour>
    <contour>
      <point x="437" y="16" type="curve" smooth="yes"/>
      <point x="437" y="25"/>
      <point x="436" y="34"/>
      <point x="434" y="44" type="curve" smooth="yes"/>
      <point x="413" y="150"/>
      <point x="323" y="411"/>
      <point x="308" y="467" type="curve" smooth="yes"/>
      <point x="303" y="486"/>
      <point x="300" y="499"/>
      <point x="299" y="506" type="curve" smooth="yes"/>
      <point x="297" y="519"/>
      <point x="268" y="529"/>
      <point x="242" y="529" type="curve" smooth="yes"/>
      <point x="230" y="529"/>
      <point x="208" y="528"/>
      <point x="203" y="524" type="curve" smooth="yes"/>
      <point x="199" y="521"/>
      <point x="196" y="513"/>
      <point x="196" y="500" type="curve" smooth="yes"/>
      <point x="196" y="488"/>
      <point x="198" y="474"/>
      <point x="202" y="458" type="curve" smooth="yes"/>
      <point x="213" y="415"/>
      <point x="314" y="137"/>
      <point x="336" y="19" type="curve" smooth="yes"/>
      <point x="340" y="-2"/>
      <point x="366" y="-8"/>
      <point x="387" y="-8" type="curve" smooth="yes"/>
      <point x="397" y="-8"/>
      <point x="413" y="-4"/>
      <point x="419" y="-2" type="curve" smooth="yes"/>
      <point x="428" y="1"/>
      <point x="437" y="9"/>
    </contour>
  </outline>
</glyph>
<glyph name="uniA4E1" format="2">
  <advance width="499"/>
  <unicode hex="A4E1"/>
  <outline>
    <contour>
      <point x="276" y="366" type="curve" smooth="yes"/>
      <point x="288" y="400"/>
      <point x="304" y="435"/>
      <point x="313" y="460" type="curve" smooth="yes"/>
      <point x="322" y="484"/>
      <point x="326" y="495"/>
      <point x="326" y="503" type="curve" smooth="yes"/>
      <point x="326" y="520"/>
      <point x="305" y="532"/>
      <point x="265" y="532" type="curve" smooth="yes"/>
      <point x="223" y="532"/>
      <point x="212" y="526"/>
      <point x="203" y="519" type="curve" smooth="yes"/>
      <point x="196" y="514"/>
      <point x="187" y="497"/>
      <point x="182" y="483" type="curve" smooth="yes"/>
      <point x="173" y="459"/>
      <point x="168" y="436"/>
      <point x="157" y="403" type="curve" smooth="yes"/>
      <point x="133" y="329"/>
      <point x="103" y="251"/>
      <point x="70" y="156" type="curve" smooth="yes"/>
      <point x="59" y="124"/>
      <point x="42" y="70"/>
      <point x="42" y="52" type="curve" smooth="yes"/>
      <point x="42" y="27"/>
      <point x="55" y="13"/>
      <point x="80" y="3" type="curve" smooth="yes"/>
      <point x="102" y="-6"/>
      <point x="141" y="-8"/>
      <point x="175" y="-8" type="curve" smooth="yes"/>
      <point x="211" y="-8"/>
      <point x="298" y="-4"/>
      <point x="325" y="-4" type="curve" smooth="yes"/>
      <point x="346" y="-4"/>
      <point x="359" y="-5"/>
      <point x="371" y="-5" type="curve" smooth="yes"/>
      <point x="419" y="-5"/>
      <point x="432" y="14"/>
      <point x="432" y="34" type="curve" smooth="yes"/>
      <point x="432" y="53"/>
      <point x="426" y="69"/>
      <point x="416" y="79" type="curve" smooth="yes"/>
      <point x="400" y="95"/>
      <point x="379" y="104"/>
      <point x="337" y="104" type="curve" smooth="yes"/>
      <point x="306" y="104"/>
      <point x="254" y="102"/>
      <point x="234" y="102" type="curve" smooth="yes"/>
      <point x="220" y="102"/>
      <point x="212" y="103"/>
      <point x="206" y="105" type="curve" smooth="yes"/>
      <point x="198" y="108"/>
      <point x="193" y="116"/>
      <point x="194" y="124" type="curve" smooth="yes"/>
      <point x="195" y="131"/>
      <point x="203" y="157"/>
      <point x="208" y="172" type="curve" smooth="yes"/>
      <point x="232" y="243"/>
      <point x="250" y="295"/>
    </contour>
  </outline>
</glyph>
<glyph name="uniA4E3" format="2">
  <advance width="546"/>
  <unicode hex="A4E3"/>
  <guideline x="506" y="284" angle="71"/>
  <outline>
    <contour>
      <point x="409" y="-9" type="curve" smooth="yes"/>
      <point x="445" y="-9"/>
      <point x="477" y="2"/>
      <point x="477" y="23" type="curve" smooth="yes"/>
      <point x="477" y="32"/>
      <point x="473" y="44"/>
      <point x="468" y="59" type="curve" smooth="yes"/>
      <point x="444" y="131"/>
      <point x="391" y="229"/>
      <point x="338" y="284" type="curve"/>
      <point x="225" y="248" type="line"/>
      <point x="281" y="188"/>
      <point x="311" y="124"/>
      <point x="335" y="53" type="curve" smooth="yes"/>
      <point x="340" y="39"/>
      <point x="343" y="29"/>
      <point x="346" y="18" type="curve" smooth="yes"/>
      <point x="351" y="-1"/>
      <point x="370" y="-9"/>
    </contour>
    <contour>
      <point x="90" y="-9" type="curve" smooth="yes"/>
      <point x="135" y="-9"/>
      <point x="159" y="3"/>
      <point x="165" y="23" type="curve" smooth="yes"/>
      <point x="168" y="33"/>
      <point x="179" y="66"/>
      <point x="191" y="104" type="curve" smooth="yes"/>
      <point x="214" y="176"/>
      <point x="240" y="251"/>
      <point x="274" y="348" type="curve" smooth="yes"/>
      <point x="283" y="374"/>
      <point x="289" y="388"/>
      <point x="294" y="402" type="curve" smooth="yes"/>
      <point x="297" y="410"/>
      <point x="301" y="421"/>
      <point x="301" y="428" type="curve" smooth="yes"/>
      <point x="301" y="437"/>
      <point x="289" y="456"/>
      <point x="250" y="456" type="curve" smooth="yes"/>
      <point x="214" y="456"/>
      <point x="196" y="443"/>
      <point x="189" y="436" type="curve" smooth="yes"/>
      <point x="186" y="433"/>
      <point x="177" y="412"/>
      <point x="172" y="398" type="curve" smooth="yes"/>
      <point x="166" y="381"/>
      <point x="159" y="361"/>
      <point x="151" y="338" type="curve" smooth="yes"/>
      <point x="142" y="313"/>
      <point x="111" y="229"/>
      <point x="79" y="140" type="curve" smooth="yes"/>
      <point x="66" y="104"/>
      <point x="52" y="68"/>
      <point x="48" y="56" type="curve" smooth="yes"/>
      <point x="43" y="42"/>
      <point x="40" y="31"/>
      <point x="40" y="20" type="curve" smooth="yes"/>
      <point x="40" y="6"/>
      <point x="46" y="-9"/>
    </contour>
    <contour>
      <point x="158" y="212" type="line"/>
      <point x="195" y="207"/>
      <point x="214" y="205"/>
      <point x="282" y="205" type="curve" smooth="yes"/>
      <point x="401" y="205"/>
      <point x="536" y="283"/>
      <point x="536" y="392" type="curve" smooth="yes"/>
      <point x="536" y="477"/>
      <point x="450" y="538"/>
      <point x="306" y="538" type="curve" smooth="yes"/>
      <point x="217" y="538"/>
      <point x="161" y="517"/>
      <point x="128" y="503" type="curve" smooth="yes"/>
      <point x="100" y="491"/>
      <point x="91" y="480"/>
      <point x="91" y="463" type="curve" smooth="yes"/>
      <point x="91" y="448"/>
      <point x="94" y="432"/>
      <point x="101" y="420" type="curve" smooth="yes"/>
      <point x="109" y="407"/>
      <point x="118" y="400"/>
      <point x="128" y="400" type="curve" smooth="yes"/>
      <point x="135" y="400"/>
      <point x="147" y="405"/>
      <point x="156" y="409" type="curve" smooth="yes"/>
      <point x="177" y="419"/>
      <point x="227" y="440"/>
      <point x="305" y="440" type="curve" smooth="yes"/>
      <point x="385" y="440"/>
      <point x="411" y="414"/>
      <point x="411" y="377" type="curve" smooth="yes"/>
      <point x="411" y="330"/>
      <point x="350" y="302"/>
      <point x="295" y="302" type="curve" smooth="yes"/>
      <point x="237" y="302"/>
      <point x="213" y="303"/>
      <point x="180" y="305" type="curve"/>
    </contour>
  </outline>
</glyph>
<glyph name="uniA4E4" format="2">
  <advance width="575"/>
  <unicode hex="A4E4"/>
  <guideline x="89" y="233" angle="71"/>
  <outline>
    <contour>
      <point x="413" y="310" type="line"/>
      <point x="376" y="317"/>
      <point x="344" y="320"/>
      <point x="321" y="320" type="curve" smooth="yes"/>
      <point x="151" y="320"/>
      <point x="66" y="241"/>
      <point x="66" y="140" type="curve" smooth="yes"/>
      <point x="66" y="48"/>
      <point x="152" y="-10"/>
      <point x="294" y="-10" type="curve" smooth="yes"/>
      <point x="357" y="-10"/>
      <point x="413" y="4"/>
      <point x="449" y="20" type="curve" smooth="yes"/>
      <point x="487" y="37"/>
      <point x="516" y="64"/>
      <point x="516" y="95" type="curve" smooth="yes"/>
      <point x="516" y="114"/>
      <point x="504" y="130"/>
      <point x="483" y="130" type="curve" smooth="yes"/>
      <point x="478" y="130"/>
      <point x="471" y="129"/>
      <point x="459" y="126" type="curve" smooth="yes"/>
      <point x="435" y="119"/>
      <point x="398" y="105"/>
      <point x="363" y="97" type="curve" smooth="yes"/>
      <point x="329" y="89"/>
      <point x="296" y="88"/>
      <point x="277" y="88" type="curve" smooth="yes"/>
      <point x="219" y="88"/>
      <point x="181" y="109"/>
      <point x="181" y="151" type="curve" smooth="yes"/>
      <point x="181" y="194"/>
      <point x="231" y="223"/>
      <point x="307" y="223" type="curve" smooth="yes"/>
      <point x="326" y="223"/>
      <point x="364" y="219"/>
      <point x="388" y="215" type="curve"/>
    </contour>
    <contour>
      <point x="362" y="281" type="line"/>
      <point x="310" y="341"/>
      <point x="273" y="401"/>
      <point x="252" y="455" type="curve" smooth="yes"/>
      <point x="243" y="478"/>
      <point x="240" y="501"/>
      <point x="231" y="511" type="curve" smooth="yes"/>
      <point x="218" y="525"/>
      <point x="200" y="532"/>
      <point x="171" y="532" type="curve" smooth="yes"/>
      <point x="133" y="532"/>
      <point x="109" y="520"/>
      <point x="109" y="501" type="curve" smooth="yes"/>
      <point x="109" y="489"/>
      <point x="110" y="480"/>
      <point x="123" y="445" type="curve" smooth="yes"/>
      <point x="143" y="390"/>
      <point x="197" y="300"/>
      <point x="247" y="246" type="curve"/>
    </contour>
    <contour>
      <point x="344" y="76" type="curve" smooth="yes"/>
      <point x="376" y="76"/>
      <point x="413" y="86"/>
      <point x="418" y="103" type="curve" smooth="yes"/>
      <point x="423" y="119"/>
      <point x="431" y="147"/>
      <point x="443" y="185" type="curve" smooth="yes"/>
      <point x="466" y="258"/>
      <point x="483" y="309"/>
      <point x="504" y="366" type="curve" smooth="yes"/>
      <point x="520" y="409"/>
      <point x="531" y="436"/>
      <point x="541" y="460" type="curve" smooth="yes"/>
      <point x="551" y="485"/>
      <point x="554" y="495"/>
      <point x="554" y="503" type="curve" smooth="yes"/>
      <point x="554" y="520"/>
      <point x="535" y="532"/>
      <point x="494" y="532" type="curve" smooth="yes"/>
      <point x="465" y="532"/>
      <point x="449" y="526"/>
      <point x="440" y="519" type="curve" smooth="yes"/>
      <point x="432" y="513"/>
      <point x="424" y="498"/>
      <point x="419" y="483" type="curve" smooth="yes"/>
      <point x="410" y="458"/>
      <point x="405" y="436"/>
      <point x="394" y="403" type="curve" smooth="yes"/>
      <point x="364" y="313"/>
      <point x="362" y="300"/>
      <point x="334" y="221" type="curve" smooth="yes"/>
      <point x="328" y="203"/>
      <point x="317" y="172"/>
      <point x="307" y="143" type="curve" smooth="yes"/>
      <point x="302" y="128"/>
      <point x="298" y="114"/>
      <point x="298" y="107" type="curve" smooth="yes"/>
      <point x="298" y="89"/>
      <point x="312" y="76"/>
    </contour>
  </outline>
</glyph>
<glyph name="uniA4E5" format="2">
  <advance width="527"/>
  <unicode hex="A4E5"/>
  <outline>
    <contour>
      <point x="100" y="74" type="curve" smooth="yes"/>
      <point x="149" y="169"/>
      <point x="245" y="311"/>
      <point x="286" y="366" type="curve" smooth="yes"/>
      <point x="319" y="411"/>
      <point x="334" y="430"/>
      <point x="343" y="430" type="curve" smooth="yes"/>
      <point x="350" y="430"/>
      <point x="356" y="408"/>
      <point x="356" y="371" type="curve" smooth="yes"/>
      <point x="356" y="282"/>
      <point x="354" y="119"/>
      <point x="351" y="60" type="curve" smooth="yes"/>
      <point x="350" y="31"/>
      <point x="350" y="24"/>
      <point x="350" y="19" type="curve" smooth="yes"/>
      <point x="350" y="0"/>
      <point x="362" y="-9"/>
      <point x="387" y="-9" type="curve" smooth="yes"/>
      <point x="419" y="-9"/>
      <point x="428" y="1"/>
      <point x="429" y="41" type="curve" smooth="yes"/>
      <point x="432" y="125"/>
      <point x="433" y="199"/>
      <point x="433" y="260" type="curve" smooth="yes"/>
      <point x="433" y="312"/>
      <point x="432" y="351"/>
      <point x="430" y="387" type="curve" smooth="yes"/>
      <point x="424" y="501"/>
      <point x="409" y="534"/>
      <point x="380" y="534" type="curve" smooth="yes"/>
      <point x="336" y="534"/>
      <point x="286" y="484"/>
      <point x="223" y="400" type="curve" smooth="yes"/>
      <point x="165" y="323"/>
      <point x="92" y="216"/>
      <point x="9" y="71" type="curve" smooth="yes"/>
      <point x="-6" y="45"/>
      <point x="-18" y="22"/>
      <point x="-18" y="12" type="curve" smooth="yes"/>
      <point x="-18" y="0"/>
      <point x="-13" y="-9"/>
      <point x="17" y="-9" type="curve" smooth="yes"/>
      <point x="41" y="-9"/>
      <point x="56" y="-5"/>
      <point x="69" y="17" type="curve" smooth="yes"/>
      <point x="76" y="29"/>
      <point x="86" y="47"/>
    </contour>
  </outline>
</glyph>
<glyph name="uniA4E7" format="2">
  <advance width="561"/>
  <unicode hex="A4E7"/>
  <outline>
    <contour>
      <point x="142" y="274" type="curve" smooth="yes"/>
      <point x="142" y="248"/>
      <point x="164" y="228"/>
      <point x="193" y="228" type="curve" smooth="yes"/>
      <point x="233" y="228"/>
      <point x="332" y="232"/>
      <point x="378" y="232" type="curve" smooth="yes"/>
      <point x="413" y="232"/>
      <point x="438" y="230"/>
      <point x="473" y="230" type="curve" smooth="yes"/>
      <point x="528" y="230"/>
      <point x="545" y="251"/>
      <point x="545" y="271" type="curve" smooth="yes"/>
      <point x="545" y="294"/>
      <point x="530" y="313"/>
      <point x="488" y="313" type="curve" smooth="yes"/>
      <point x="464" y="313"/>
      <point x="402" y="311"/>
      <point x="378" y="311" type="curve" smooth="yes"/>
      <point x="320" y="311"/>
      <point x="250" y="307"/>
      <point x="210" y="307" type="curve" smooth="yes"/>
      <point x="176" y="307"/>
      <point x="142" y="299"/>
    </contour>
    <contour>
      <point x="39" y="-9" type="curve" smooth="yes"/>
      <point x="67" y="-9"/>
      <point x="84" y="0"/>
      <point x="91" y="17" type="curve" smooth="yes"/>
      <point x="98" y="33"/>
      <point x="106" y="66"/>
      <point x="118" y="104" type="curve" smooth="yes"/>
      <point x="141" y="177"/>
      <point x="171" y="270"/>
      <point x="207" y="366" type="curve" smooth="yes"/>
      <point x="223" y="409"/>
      <point x="244" y="459"/>
      <point x="254" y="488" type="curve" smooth="yes"/>
      <point x="258" y="500"/>
      <point x="260" y="512"/>
      <point x="256" y="522" type="curve" smooth="yes"/>
      <point x="252" y="531"/>
      <point x="241" y="538"/>
      <point x="217" y="538" type="curve" smooth="yes"/>
      <point x="197" y="538"/>
      <point x="187" y="535"/>
      <point x="179" y="527" type="curve" smooth="yes"/>
      <point x="173" y="521"/>
      <point x="168" y="514"/>
      <point x="162" y="499" type="curve" smooth="yes"/>
      <point x="153" y="476"/>
      <point x="142" y="436"/>
      <point x="131" y="403" type="curve" smooth="yes"/>
      <point x="101" y="313"/>
      <point x="72" y="229"/>
      <point x="40" y="140" type="curve" smooth="yes"/>
      <point x="27" y="104"/>
      <point x="14" y="68"/>
      <point x="6" y="45" type="curve" smooth="yes"/>
      <point x="2" y="34"/>
      <point x="-1" y="24"/>
      <point x="-1" y="16" type="curve" smooth="yes"/>
      <point x="-1" y="-1"/>
      <point x="18" y="-9"/>
    </contour>
    <contour>
      <point x="361" y="-9" type="curve" smooth="yes"/>
      <point x="389" y="-9"/>
      <point x="406" y="0"/>
      <point x="413" y="17" type="curve" smooth="yes"/>
      <point x="420" y="33"/>
      <point x="428" y="66"/>
      <point x="440" y="104" type="curve" smooth="yes"/>
      <point x="463" y="177"/>
      <point x="493" y="270"/>
      <point x="529" y="366" type="curve" smooth="yes"/>
      <point x="545" y="409"/>
      <point x="566" y="459"/>
      <point x="576" y="488" type="curve" smooth="yes"/>
      <point x="580" y="500"/>
      <point x="582" y="512"/>
      <point x="578" y="522" type="curve" smooth="yes"/>
      <point x="574" y="531"/>
      <point x="563" y="538"/>
      <point x="539" y="538" type="curve" smooth="yes"/>
      <point x="519" y="538"/>
      <point x="509" y="535"/>
      <point x="501" y="527" type="curve" smooth="yes"/>
      <point x="495" y="521"/>
      <point x="490" y="514"/>
      <point x="484" y="499" type="curve" smooth="yes"/>
      <point x="475" y="476"/>
      <point x="464" y="436"/>
      <point x="453" y="403" type="curve" smooth="yes"/>
      <point x="423" y="313"/>
      <point x="394" y="229"/>
      <point x="362" y="140" type="curve" smooth="yes"/>
      <point x="349" y="104"/>
      <point x="336" y="68"/>
      <point x="328" y="45" type="curve" smooth="yes"/>
      <point x="324" y="33"/>
      <point x="321" y="22"/>
      <point x="321" y="13" type="curve" smooth="yes"/>
      <point x="321" y="3"/>
      <point x="333" y="-9"/>
    </contour>
  </outline>
</glyph>
<glyph name="uniA4E8" format="2">
  <advance width="540"/>
  <unicode hex="A4E8"/>
  <outline>
    <contour>
      <point x="240" y="105" type="curve" smooth="yes"/>
      <point x="207" y="105"/>
      <point x="186" y="123"/>
      <point x="175" y="147" type="curve" smooth="yes"/>
      <point x="160" y="179"/>
      <point x="155" y="184"/>
      <point x="134" y="184" type="curve" smooth="yes"/>
      <point x="108" y="184"/>
      <point x="49" y="156"/>
      <point x="49" y="125" type="curve" smooth="yes"/>
      <point x="49" y="96"/>
      <point x="81" y="51"/>
      <point x="109" y="29" type="curve" smooth="yes"/>
      <point x="135" y="8"/>
      <point x="169" y="-10"/>
      <point x="225" y="-10" type="curve" smooth="yes"/>
      <point x="395" y="-10"/>
      <point x="532" y="180"/>
      <point x="532" y="358" type="curve" smooth="yes"/>
      <point x="532" y="458"/>
      <point x="460" y="538"/>
      <point x="345" y="538" type="curve" smooth="yes"/>
      <point x="218" y="538"/>
      <point x="147" y="453"/>
      <point x="114" y="368" type="curve" smooth="yes"/>
      <point x="111" y="359"/>
      <point x="110" y="351"/>
      <point x="110" y="334" type="curve" smooth="yes"/>
      <point x="110" y="311"/>
      <point x="148" y="304"/>
      <point x="170" y="304" type="curve" smooth="yes"/>
      <point x="203" y="304"/>
      <point x="222" y="318"/>
      <point x="228" y="330" type="curve" smooth="yes"/>
      <point x="231" y="336"/>
      <point x="231" y="355"/>
      <point x="241" y="370" type="curve" smooth="yes"/>
      <point x="262" y="401"/>
      <point x="289" y="424"/>
      <point x="331" y="424" type="curve" smooth="yes"/>
      <point x="378" y="424"/>
      <point x="406" y="395"/>
      <point x="406" y="347" type="curve" smooth="yes"/>
      <point x="406" y="232"/>
      <point x="312" y="105"/>
    </contour>
    <contour>
      <point x="58" y="352" type="curve" smooth="yes"/>
      <point x="49" y="337"/>
      <point x="42" y="307"/>
      <point x="42" y="291" type="curve" smooth="yes"/>
      <point x="42" y="281"/>
      <point x="47" y="276"/>
      <point x="53" y="273" type="curve" smooth="yes"/>
      <point x="59" y="270"/>
      <point x="68" y="270"/>
      <point x="76" y="270" type="curve" smooth="yes"/>
      <point x="102" y="270"/>
      <point x="136" y="271"/>
      <point x="179" y="271" type="curve" smooth="yes"/>
      <point x="198" y="271"/>
      <point x="228" y="270"/>
      <point x="254" y="270" type="curve" smooth="yes"/>
      <point x="259" y="270"/>
      <point x="277" y="271"/>
      <point x="283" y="274" type="curve" smooth="yes"/>
      <point x="290" y="277"/>
      <point x="299" y="283"/>
      <point x="306" y="301" type="curve" smooth="yes"/>
      <point x="310" y="310"/>
      <point x="318" y="332"/>
      <point x="318" y="347" type="curve" smooth="yes"/>
      <point x="318" y="357"/>
      <point x="315" y="363"/>
      <point x="310" y="366" type="curve" smooth="yes"/>
      <point x="304" y="370"/>
      <point x="298" y="372"/>
      <point x="283" y="372" type="curve" smooth="yes"/>
      <point x="247" y="372"/>
      <point x="194" y="369"/>
      <point x="163" y="369" type="curve" smooth="yes"/>
      <point x="146" y="369"/>
      <point x="129" y="371"/>
      <point x="99" y="371" type="curve" smooth="yes"/>
      <point x="80" y="371"/>
      <point x="67" y="367"/>
    </contour>
  </outline>
</glyph>
<glyph name="uniA4E9" format="2">
  <advance width="488"/>
  <unicode hex="A4E9"/>
  <outline>
    <contour>
      <point x="84" y="236" type="curve" smooth="yes"/>
      <point x="39" y="111"/>
      <point x="25" y="69"/>
      <point x="21" y="54" type="curve" smooth="yes"/>
      <point x="17" y="43"/>
      <point x="13" y="30"/>
      <point x="13" y="20" type="curve" smooth="yes"/>
      <point x="13" y="2"/>
      <point x="41" y="-9"/>
      <point x="73" y="-9" type="curve" smooth="yes"/>
      <point x="115" y="-9"/>
      <point x="140" y="6"/>
      <point x="145" y="23" type="curve" smooth="yes"/>
      <point x="150" y="39"/>
      <point x="159" y="70"/>
      <point x="171" y="108" type="curve" smooth="yes"/>
      <point x="200" y="200"/>
      <point x="237" y="302"/>
      <point x="260" y="355" type="curve" smooth="yes"/>
      <point x="282" y="407"/>
      <point x="305" y="424"/>
      <point x="339" y="424" type="curve" smooth="yes"/>
      <point x="363" y="424"/>
      <point x="374" y="413"/>
      <point x="381" y="404" type="curve" smooth="yes"/>
      <point x="392" y="390"/>
      <point x="394" y="360"/>
      <point x="400" y="350" type="curve" smooth="yes"/>
      <point x="408" y="338"/>
      <point x="423" y="332"/>
      <point x="451" y="332" type="curve" smooth="yes"/>
      <point x="474" y="332"/>
      <point x="526" y="351"/>
      <point x="526" y="384" type="curve" smooth="yes"/>
      <point x="526" y="402"/>
      <point x="517" y="431"/>
      <point x="511" y="443" type="curve" smooth="yes"/>
      <point x="487" y="494"/>
      <point x="431" y="538"/>
      <point x="346" y="538" type="curve" smooth="yes"/>
      <point x="278" y="538"/>
      <point x="215" y="514"/>
      <point x="177" y="455" type="curve" smooth="yes"/>
      <point x="147" y="408"/>
      <point x="119" y="333"/>
    </contour>
  </outline>
</glyph>
<glyph name="uniA4EA" format="2">
  <advance width="707"/>
  <unicode hex="A4EA"/>
  <guideline x="417" y="298" angle="0"/>
  <outline>
    <contour>
      <point x="187" y="115" type="curve"/>
      <point x="185" y="115"/>
      <point x="184" y="118"/>
      <point x="184" y="124" type="curve" smooth="yes"/>
      <point x="184" y="131"/>
      <point x="191" y="167"/>
      <point x="197" y="192" type="curve" smooth="yes"/>
      <point x="210" y="247"/>
      <point x="245" y="399"/>
      <point x="252" y="430" type="curve" smooth="yes"/>
      <point x="257" y="453"/>
      <point x="264" y="487"/>
      <point x="264" y="502" type="curve" smooth="yes"/>
      <point x="264" y="521"/>
      <point x="238" y="532"/>
      <point x="206" y="532" type="curve" smooth="yes"/>
      <point x="151" y="532"/>
      <point x="138" y="512"/>
      <point x="131" y="469" type="curve" smooth="yes"/>
      <point x="120" y="405"/>
      <point x="108" y="345"/>
      <point x="97" y="284" type="curve" smooth="yes"/>
      <point x="85" y="218"/>
      <point x="74" y="137"/>
      <point x="74" y="95" type="curve" smooth="yes"/>
      <point x="74" y="36"/>
      <point x="100" y="-10"/>
      <point x="150" y="-10" type="curve" smooth="yes"/>
      <point x="169" y="-10"/>
      <point x="192" y="44"/>
      <point x="192" y="77" type="curve" smooth="yes"/>
      <point x="192" y="94"/>
      <point x="191" y="115"/>
    </contour>
    <contour>
      <point x="150" y="-10" type="curve"/>
      <point x="198" y="-10"/>
      <point x="237" y="32"/>
      <point x="285" y="118" type="curve" smooth="yes"/>
      <point x="327" y="193"/>
      <point x="337" y="221"/>
      <point x="405" y="353" type="curve" smooth="yes"/>
      <point x="418" y="378"/>
      <point x="429" y="403"/>
      <point x="429" y="408" type="curve" smooth="yes"/>
      <point x="429" y="415"/>
      <point x="429" y="425"/>
      <point x="411" y="425" type="curve" smooth="yes"/>
      <point x="377" y="425"/>
      <point x="355" y="411"/>
      <point x="344" y="393" type="curve" smooth="yes"/>
      <point x="333" y="375"/>
      <point x="320" y="353"/>
      <point x="308" y="331" type="curve" smooth="yes"/>
      <point x="279" y="279"/>
      <point x="243" y="206"/>
      <point x="226" y="175" type="curve" smooth="yes"/>
      <point x="208" y="142"/>
      <point x="193" y="115"/>
      <point x="187" y="115" type="curve" smooth="yes"/>
      <point x="174" y="115"/>
      <point x="137" y="54"/>
      <point x="137" y="30" type="curve" smooth="yes"/>
      <point x="137" y="4"/>
      <point x="138" y="-10"/>
    </contour>
    <contour>
      <point x="454" y="115" type="curve"/>
      <point x="449" y="115"/>
      <point x="448" y="125"/>
      <point x="448" y="139" type="curve" smooth="yes"/>
      <point x="448" y="161"/>
      <point x="457" y="290"/>
      <point x="461" y="325" type="curve" smooth="yes"/>
      <point x="464" y="353"/>
      <point x="465" y="368"/>
      <point x="465" y="385" type="curve" smooth="yes"/>
      <point x="465" y="405"/>
      <point x="450" y="425"/>
      <point x="414" y="425" type="curve" smooth="yes"/>
      <point x="408" y="425"/>
      <point x="402" y="423"/>
      <point x="397" y="418" type="curve" smooth="yes"/>
      <point x="392" y="413"/>
      <point x="389" y="403"/>
      <point x="386" y="383" type="curve" smooth="yes"/>
      <point x="381" y="347"/>
      <point x="379" y="310"/>
      <point x="374" y="268" type="curve" smooth="yes"/>
      <point x="368" y="216"/>
      <point x="362" y="162"/>
      <point x="362" y="117" type="curve" smooth="yes"/>
      <point x="362" y="32"/>
      <point x="379" y="-10"/>
      <point x="436" y="-10" type="curve"/>
      <point x="448" y="-10"/>
      <point x="464" y="38"/>
      <point x="464" y="70" type="curve" smooth="yes"/>
      <point x="464" y="95"/>
      <point x="458" y="115"/>
    </contour>
    <contour>
      <point x="436" y="-10" type="curve"/>
      <point x="481" y="-10"/>
      <point x="528" y="21"/>
      <point x="575" y="109" type="curve" smooth="yes"/>
      <point x="621" y="194"/>
      <point x="671" y="303"/>
      <point x="710" y="392" type="curve" smooth="yes"/>
      <point x="737" y="453"/>
      <point x="751" y="485"/>
      <point x="751" y="504" type="curve" smooth="yes"/>
      <point x="751" y="517"/>
      <point x="738" y="532"/>
      <point x="695" y="532" type="curve" smooth="yes"/>
      <point x="651" y="532"/>
      <point x="629" y="516"/>
      <point x="621" y="501" type="curve" smooth="yes"/>
      <point x="608" y="476"/>
      <point x="595" y="443"/>
      <point x="577" y="395" type="curve" smooth="yes"/>
      <point x="536" y="287"/>
      <point x="497" y="194"/>
      <point x="484" y="163" type="curve" smooth="yes"/>
      <point x="470" y="130"/>
      <point x="461" y="115"/>
      <point x="454" y="115" type="curve" smooth="yes"/>
      <point x="438" y="115"/>
      <point x="414" y="53"/>
      <point x="414" y="30" type="curve" smooth="yes"/>
      <point x="414" y="4"/>
      <point x="425" y="-10"/>
    </contour>
  </outline>
</glyph>
<glyph name="uniA4EB" format="2">
  <advance width="492"/>
  <unicode hex="A4EB"/>
  <outline>
    <contour>
      <point x="319" y="238" type="line"/>
      <point x="419" y="338"/>
      <point x="489" y="413"/>
      <point x="513" y="437" type="curve" smooth="yes"/>
      <point x="540" y="464"/>
      <point x="559" y="491"/>
      <point x="559" y="506" type="curve" smooth="yes"/>
      <point x="559" y="523"/>
      <point x="530" y="532"/>
      <point x="492" y="532" type="curve" smooth="yes"/>
      <point x="453" y="532"/>
      <point x="437" y="527"/>
      <point x="425" y="515" type="curve" smooth="yes"/>
      <point x="411" y="501"/>
      <point x="399" y="487"/>
      <point x="387" y="472" type="curve" smooth="yes"/>
      <point x="371" y="452"/>
      <point x="325" y="395"/>
      <point x="231" y="313" type="curve"/>
    </contour>
    <contour>
      <point x="400" y="70" type="curve" smooth="yes"/>
      <point x="388" y="123"/>
      <point x="356" y="223"/>
      <point x="322" y="306" type="curve" smooth="yes"/>
      <point x="290" y="384"/>
      <point x="264" y="450"/>
      <point x="257" y="473" type="curve" smooth="yes"/>
      <point x="254" y="482"/>
      <point x="251" y="492"/>
      <point x="248" y="502" type="curve" smooth="yes"/>
      <point x="241" y="524"/>
      <point x="216" y="532"/>
      <point x="183" y="532" type="curve" smooth="yes"/>
      <point x="144" y="532"/>
      <point x="124" y="517"/>
      <point x="124" y="498" type="curve" smooth="yes"/>
      <point x="124" y="483"/>
      <point x="128" y="466"/>
      <point x="138" y="438" type="curve" smooth="yes"/>
      <point x="150" y="405"/>
      <point x="173" y="354"/>
      <point x="210" y="255" type="curve" smooth="yes"/>
      <point x="247" y="157"/>
      <point x="266" y="100"/>
      <point x="274" y="61" type="curve" smooth="yes"/>
      <point x="278" y="42"/>
      <point x="278" y="35"/>
      <point x="281" y="20" type="curve" smooth="yes"/>
      <point x="285" y="-1"/>
      <point x="317" y="-9"/>
      <point x="348" y="-9" type="curve" smooth="yes"/>
      <point x="384" y="-9"/>
      <point x="407" y="6"/>
      <point x="407" y="22" type="curve" smooth="yes"/>
      <point x="407" y="36"/>
      <point x="405" y="48"/>
    </contour>
    <contour>
      <point x="223" y="319" type="line"/>
      <point x="127" y="223"/>
      <point x="18" y="108"/>
      <point x="-10" y="76" type="curve" smooth="yes"/>
      <point x="-31" y="52"/>
      <point x="-42" y="35"/>
      <point x="-42" y="21" type="curve" smooth="yes"/>
      <point x="-42" y="7"/>
      <point x="-27" y="-9"/>
      <point x="18" y="-9" type="curve" smooth="yes"/>
      <point x="55" y="-9"/>
      <point x="74" y="-2"/>
      <point x="86" y="7" type="curve" smooth="yes"/>
      <point x="98" y="16"/>
      <point x="112" y="31"/>
      <point x="134" y="58" type="curve" smooth="yes"/>
      <point x="157" y="87"/>
      <point x="229" y="170"/>
      <point x="304" y="244" type="curve"/>
    </contour>
  </outline>
</glyph>
<glyph name="uniA4EC" format="2">
  <advance width="507"/>
  <unicode hex="A4EC"/>
  <outline>
    <contour>
      <point x="173" y="-10" type="curve" smooth="yes"/>
      <point x="149" y="-10"/>
      <point x="141" y="0"/>
      <point x="141" y="11" type="curve" smooth="yes"/>
      <point x="141" y="18"/>
      <point x="147" y="38"/>
      <point x="154" y="58" type="curve" smooth="yes"/>
      <point x="164" y="86"/>
      <point x="203" y="193"/>
      <point x="228" y="247" type="curve"/>
      <point x="273" y="287"/>
      <point x="390" y="391"/>
      <point x="468" y="489" type="curve" smooth="yes"/>
      <point x="479" y="503"/>
      <point x="491" y="517"/>
      <point x="502" y="525" type="curve" smooth="yes"/>
      <point x="511" y="531"/>
      <point x="521" y="532"/>
      <point x="538" y="532" type="curve" smooth="yes"/>
      <point x="560" y="532"/>
      <point x="575" y="522"/>
      <point x="575" y="511" type="curve" smooth="yes"/>
      <point x="575" y="500"/>
      <point x="558" y="478"/>
      <point x="544" y="461" type="curve" smooth="yes"/>
      <point x="492" y="399"/>
      <point x="400" y="309"/>
      <point x="340" y="253" type="curve" smooth="yes"/>
      <point x="313" y="227"/>
      <point x="297" y="215"/>
      <point x="293" y="208" type="curve" smooth="yes"/>
      <point x="267" y="161"/>
      <point x="246" y="80"/>
      <point x="222" y="21" type="curve" smooth="yes"/>
      <point x="213" y="-2"/>
      <point x="202" y="-10"/>
    </contour>
    <contour>
      <point x="245" y="200" type="curve" smooth="yes"/>
      <point x="229" y="200"/>
      <point x="219" y="206"/>
      <point x="217" y="212" type="curve" smooth="yes"/>
      <point x="215" y="217"/>
      <point x="210" y="238"/>
      <point x="200" y="264" type="curve" smooth="yes"/>
      <point x="169" y="341"/>
      <point x="146" y="410"/>
      <point x="134" y="454" type="curve" smooth="yes"/>
      <point x="127" y="478"/>
      <point x="123" y="499"/>
      <point x="123" y="505" type="curve" smooth="yes"/>
      <point x="123" y="518"/>
      <point x="130" y="523"/>
      <point x="136" y="527" type="curve" smooth="yes"/>
      <point x="142" y="531"/>
      <point x="156" y="532"/>
      <point x="167" y="532" type="curve" smooth="yes"/>
      <point x="183" y="532"/>
      <point x="197" y="525"/>
      <point x="200" y="514" type="curve" smooth="yes"/>
      <point x="203" y="504"/>
      <point x="205" y="490"/>
      <point x="210" y="473" type="curve" smooth="yes"/>
      <point x="225" y="416"/>
      <point x="240" y="371"/>
      <point x="266" y="306" type="curve" smooth="yes"/>
      <point x="276" y="282"/>
      <point x="285" y="256"/>
      <point x="285" y="243" type="curve" smooth="yes"/>
      <point x="285" y="217"/>
      <point x="262" y="200"/>
    </contour>
  </outline>
</glyph>
